<?xml version="1.0" encoding="utf-8"?>
<!-- Generator: Adobe Illustrator 16.0.0, SVG Export Plug-In . SVG Version: 6.00 Build 0)  -->
<!DOCTYPE svg PUBLIC "-//W3C//DTD SVG 1.1//EN" "http://www.w3.org/Graphics/SVG/1.1/DTD/svg11.dtd">
<svg version="1.1" xmlns="http://www.w3.org/2000/svg" xmlns:xlink="http://www.w3.org/1999/xlink" x="0px" y="0px" width="1280px"
	 height="720px" viewBox="0 0 1280 720" enable-background="new 0 0 1280 720" xml:space="preserve">
<g id="Layer_2" display="none">
	<rect x="-7715.195" y="-7883.498" display="inline" fill="#2C313D" width="16614.48" height="16662.529"/>
</g>
<g id="Fogo">
	<linearGradient id="SVGID_1_" gradientUnits="userSpaceOnUse" x1="-6336.3086" y1="399.5" x2="-484.2705" y2="399.5">
		<stop  offset="0" style="stop-color:#E84041;stop-opacity:0"/>
		<stop  offset="1" style="stop-color:#F7A531"/>
	</linearGradient>
	<path fill="url(#SVGID_1_)" d="M-484.271,2012.983h-5274.202c-185.178,0-335.247-111.407-335.247-248.872
		c0-137.462,150.069-248.985,335.247-248.985l335.406,0.115c242.429,0,438.835-145.8,438.835-325.76
		c0-179.847-196.406-325.761-438.835-325.761h-438.829c-262.031,0-474.413-157.651-474.413-352.172
		c0-194.396,212.382-352.059,474.413-352.059h498.132c262.038,0,474.413-157.653,474.413-352.174
		c0-194.515-212.375-352.173-474.413-352.173h-474.413c-248.905,0-450.688-149.788-450.688-334.563
		c0-184.77,201.783-334.564,450.688-334.564l5282.273,2.705L-484.271,2012.983z"/>
	<linearGradient id="SVGID_2_" gradientUnits="userSpaceOnUse" x1="-4280.0352" y1="526.9131" x2="260.6465" y2="526.9131">
		<stop  offset="0" style="stop-color:#FFF39E;stop-opacity:0.0652"/>
		<stop  offset="1" style="stop-color:#F59A19"/>
	</linearGradient>
	<path fill="url(#SVGID_2_)" d="M260.646,1920.436h-4092.331c-143.684,0-260.13-96.218-260.13-214.939
		c0-118.732,116.446-215.052,260.13-215.052l260.249,0.104c188.107,0,340.497-125.922,340.497-281.35
		c0-155.336-152.39-281.349-340.497-281.349h-340.497c-203.313,0-368.102-136.157-368.102-304.162
		c0-167.9,164.79-304.07,368.102-304.07h386.514c203.318,0,368.096-136.158,368.096-304.162
		c0-167.994-164.777-304.161-368.096-304.161h-368.103c-193.133,0-349.703-129.36-349.703-288.95
		c0-159.579,156.57-288.955,349.703-288.955l4098.591,2.338L260.646,1920.436z"/>
	<linearGradient id="SVGID_3_" gradientUnits="userSpaceOnUse" x1="-2357.6826" y1="263.2407" x2="1245.4707" y2="263.2407">
		<stop  offset="0" style="stop-color:#FFDA67;stop-opacity:0.2"/>
		<stop  offset="0.4286" style="stop-color:#EDE300"/>
	</linearGradient>
	<path fill="url(#SVGID_3_)" d="M1245.471,1539.796h-3247.375c-114.015,0-206.415-88.134-206.415-196.881
		c0-108.771,92.4-197.021,206.415-197.021l206.517,0.093c149.267,0,270.195-115.352,270.195-257.734
		c0-142.289-120.928-257.732-270.195-257.732h-270.194c-161.333,0-292.102-124.727-292.102-278.62
		c0-153.812,130.769-278.545,292.102-278.545h306.713c161.337,0,292.09-124.734,292.09-278.637
		c0-153.893-130.752-278.632-292.09-278.632h-292.102c-153.257,0-277.498-118.502-277.498-264.697
		c0-146.182,124.241-264.703,277.498-264.703l3252.349,2.145L1245.471,1539.796z"/>
</g>
<g id="Brilho_foguete">
	<radialGradient id="SVGID_4_" cx="2869.4951" cy="408.9258" r="3102.6895" gradientUnits="userSpaceOnUse">
		<stop  offset="0.1224" style="stop-color:#2581C4;stop-opacity:0"/>
		<stop  offset="1" style="stop-color:#71C5C8;stop-opacity:0.5"/>
	</radialGradient>
	<path opacity="0.5" fill="url(#SVGID_4_)" d="M6000.298-781.283c-45.328-185.791-144.768-354.878-287.859-486.181
		c-179.984-165.138-413.702-256.087-658.113-256.087H2529.272c-244.926,0-480.076,92.668-658.973,257.062h-827.801
		c-36.053-38.215-74.526-68.767-115.212-91.476c-36.536-30.163-83.389-48.292-134.461-48.292H147.979
		c-44.664,0-88.342,8.231-130.529,24.55h-405.755c-93.558,0-231.2,36.943-355.612,212.949
		c-69.26,97.988-129.617,232.077-179.389,398.55c-94.537,316.199-146.6,732.702-146.6,1172.791
		c0,440.126,52.063,856.645,146.6,1172.855c49.771,166.469,110.129,300.562,179.389,398.546
		c124.412,176.005,262.055,212.954,355.612,212.954H256.53c35.757,0,69.438-8.884,98.956-24.557h437.34
		c51.095,0,97.972-18.146,134.508-48.331c25.37-14.169,49.901-31.378,73.507-51.588h893.111
		c181.394,178.414,424.809,278.942,682.3,278.942h2525.019c470.412,0,865.587-333.522,954.971-781.752
		c455.326-201.479,752.656-651.405,752.656-1158.881C6808.897-126.215,6482.644-594.104,6000.298-781.283z"/>
	<radialGradient id="SVGID_5_" cx="2869.4951" cy="377.2656" r="3296.8384" gradientUnits="userSpaceOnUse">
		<stop  offset="0.1224" style="stop-color:#F08046;stop-opacity:0"/>
		<stop  offset="1" style="stop-color:#9C99CB;stop-opacity:0.5"/>
	</radialGradient>
	<path opacity="0.5" fill="url(#SVGID_5_)" d="M6196.205-887.411c-48.16-197.421-153.823-377.09-305.869-516.606
		c-191.242-175.474-439.587-272.114-699.291-272.114H2507.983c-260.254,0-510.122,98.47-700.206,273.152H928.183
		c-38.313-40.611-79.194-73.071-122.426-97.203c-38.827-32.048-88.615-51.313-142.875-51.313H-22.307
		c-47.467,0-93.89,8.747-138.708,26.087h-431.148c-99.41,0-245.667,39.252-377.864,226.275
		c-73.592,104.116-137.728,246.595-190.616,423.484c-100.448,335.986-155.772,778.553-155.772,1246.191
		c0,467.66,55.324,910.237,155.772,1246.223c52.888,176.892,117.024,319.387,190.616,423.504
		c132.197,187,278.455,226.274,377.864,226.274H93.021c37.991,0,73.781-9.445,105.147-26.092h464.714
		c54.294,0,104.093-19.281,142.923-51.358c26.951-15.064,53.02-33.337,78.102-54.82h949
		c192.743,189.59,451.394,296.39,724.993,296.39h2683.025c499.851,0,919.754-354.375,1014.733-830.656
		c483.813-214.101,799.748-692.171,799.748-1231.39C7055.406-191.354,6708.736-688.522,6196.205-887.411z"/>
</g>
<g id="Foguete">
	<g>
		<path fill="#282828" d="M160.485,1987.854c-12.209,7.222-24.521,13.298-37.017,17.391v7.784h-660.863
			c-266.199,0-481.991-721.771-481.991-1612.144c0-890.342,215.792-1612.113,481.991-1612.113h464.336
			c27.686-16.531,56.185-25.164,85.292-25.164h660.875v7.784c243.905,79.767,434.518,767.569,434.518,1604.342
			c0,836.777-190.612,1524.581-434.518,1604.334v7.785H160.485z"/>
	</g>
	<g opacity="0.5">
		<path fill="#161616" d="M249.354,1900.201c-11.372,6.752-22.871,12.427-34.53,16.245v7.268h-616.795
			c-248.429,0-449.834-673.646-449.834-1504.612c0-830.959,201.405-1504.587,449.834-1504.587H31.401
			c25.84-15.43,52.437-23.49,79.605-23.49h616.795v7.274c227.629,74.447,405.527,716.366,405.527,1497.337
			c0,780.949-177.898,1422.873-405.527,1497.309v7.257H249.354z"/>
	</g>
	<path fill="#FFFFFF" d="M3880.119-1093.155H472.913c-568.309,0-1029.017,666.778-1029.017,1489.307
		c0,822.516,460.708,1489.307,1029.017,1489.307h3407.206c568.313,0,1029.039-666.791,1029.039-1489.307
		C4909.158-426.376,4448.432-1093.155,3880.119-1093.155z"/>
	<path opacity="0.5" fill="#D7D7D7" d="M3998.689-999.5H961.405C454.8-999.5,44.127-372.386,44.127,401.195
		c0,773.59,410.673,1400.703,917.278,1400.703h3037.284c506.604,0,917.288-627.113,917.288-1400.703
		C4915.978-372.386,4505.294-999.5,3998.689-999.5z"/>
	<path fill="#2F344F" d="M5040.558-1356.603H2452.739c-431.642,0-781.544,349.91-781.544,781.55
		c0,431.642,349.902,781.556,781.544,781.556h2587.818c431.641,0,781.556-349.914,781.556-781.556
		C5822.113-1006.693,5472.198-1356.603,5040.558-1356.603z"/>
	<path opacity="0.5" fill="#606B9E" d="M4847.413-1213.956h-2333.09c-389.144,0-704.62,315.472-704.62,704.621
		c0,389.144,315.477,704.616,704.62,704.616h2333.09c389.145,0,704.609-315.472,704.609-704.616
		C5552.022-898.484,5236.558-1213.956,4847.413-1213.956z"/>
	<path opacity="0.5" fill="#B4BEDB" d="M5201.306-1003.811c12.689,10.679,24.842,22.745,36.375,36.387
		c28.647,33.876,70.181,104.918,57.892,158.599c-10.683,46.646-35.708,55.451-68.141,33.257
		c-38.357-26.246-71.455-63.763-112.898-83.108c-60.173-28.076-132.053-24.006-195.644-26.367
		c-47.335-1.76-94.874-1.273-142.232-1.273c-0.173,0-2191.589,0-2191.589,0c-365.575,0-661.873,361.167-661.873,806.565
		c0,198.693,58.971,380.661,156.759,521.244c-164.565-157.114-270.228-401.531-270.228-675.956
		c0-474.23,315.476-858.668,704.621-858.668h2333.029C4967.096-1086.201,5100.743-1088.466,5201.306-1003.811z"/>
	<path fill="#D6DBEA" d="M5183.215-964.179c11.763,7.916,23.032,16.857,33.739,26.963c26.56,25.094,65.046,77.743,53.65,117.511
		c-9.893,34.569-33.097,41.092-63.167,24.647c-35.561-19.443-66.238-47.243-104.664-61.579
		c-55.809-20.807-122.437-17.792-181.385-19.534c-43.896-1.313-87.975-0.947-131.87-0.947c-0.159,0-2031.906,0-2031.906,0
		c-338.933,0-613.645,267.616-613.645,597.651c0,147.237,54.661,282.065,145.33,386.244
		C2136.724-9.65,2038.765-190.758,2038.765-394.105c0-351.4,292.479-636.267,653.285-636.267H4855.07
		C4966.075-1025.23,5089.99-1026.91,5183.215-964.179z"/>
	<path fill="#2F344F" d="M5088.683,608.246H2500.877c-431.642,0-781.557,349.903-781.557,781.544
		c0,431.629,349.915,781.546,781.557,781.546h2587.806c431.642,0,781.556-349.917,781.556-781.546
		C5870.238,958.149,5520.324,608.246,5088.683,608.246z"/>
	<path opacity="0.5" fill="#606B9E" d="M4847.413,597.023h-2333.09c-389.144,0-704.62,315.464-704.62,704.609
		c0,389.145,315.477,704.633,704.62,704.633h2333.09c389.145,0,704.609-315.488,704.609-704.633
		C5552.022,912.487,5236.558,597.023,4847.413,597.023z"/>
	<path opacity="0.5" fill="#B4BEDB" d="M5201.306,1822.578c12.689-10.696,24.842-22.756,36.375-36.387
		c28.647-33.875,70.181-104.93,57.892-158.592c-10.683-46.67-35.708-55.463-68.141-33.257
		c-38.357,26.229-71.455,63.75-112.898,83.091c-60.173,28.087-132.053,24.005-195.644,26.366
		c-47.335,1.755-94.874,1.272-142.232,1.272c-0.173,0-2191.589,0-2191.589,0c-365.575,0-661.873-361.161-661.873-806.569
		c0-198.683,58.971-380.648,156.759-521.233c-164.565,157.115-270.228,401.516-270.228,675.962
		c0,474.23,315.476,858.663,704.621,858.663h2333.029C4967.096,1904.97,5100.743,1907.229,5201.306,1822.578z"/>
	<path fill="#D6DBEA" d="M5183.215,1782.947c11.763-7.922,23.032-16.852,33.739-26.963c26.56-25.105,65.046-77.75,53.65-117.518
		c-9.893-34.563-33.097-41.086-63.167-24.647c-35.561,19.454-66.238,47.243-104.664,61.573
		c-55.809,20.808-122.437,17.804-181.385,19.547c-43.896,1.306-87.975,0.939-131.87,0.939c-0.159,0-2031.906,0-2031.906,0
		c-338.933,0-613.645-267.615-613.645-597.64c0-147.243,54.661-282.082,145.33-386.256
		c-152.574,116.439-250.533,297.547-250.533,500.884c0,351.405,292.479,636.262,653.285,636.262H4855.07
		C4966.075,1844.004,5089.99,1845.679,5183.215,1782.947z"/>
	<path fill="#FFFFFF" d="M5539.365-683.84H1953.942c-598.054,0-1082.852,484.805-1082.852,1082.846
		c0,598.04,484.798,1082.853,1082.852,1082.853h3585.423c598.029,0,1082.841-484.813,1082.841-1082.853
		C6622.206-199.035,6137.395-683.84,5539.365-683.84z"/>
	<path opacity="0.5" fill="#D7D7D7" d="M5450.13-500.066H2139.419c-552.221,0-999.865,392.795-999.865,877.348
		c0,484.534,447.645,877.337,999.865,877.337H5450.13c552.22,0,999.876-392.803,999.876-877.337
		C6450.006-107.271,6002.35-500.066,5450.13-500.066z"/>
	<path fill="#2F344F" d="M3625.778-943.2H1112.522c-419.202,0-759.041,601.898-759.041,1344.396
		c0,742.499,339.839,1344.402,759.041,1344.402h2513.256c419.203,0,759.029-601.903,759.029-1344.402
		C4384.808-341.302,4044.981-943.2,3625.778-943.2z"/>
	<path opacity="0.5" fill="#606B9E" d="M3505.336-814.346H1085.65c-379.022,0-580.559,550.386-580.559,1221.722
		c0,671.328,193.958,1209.367,572.981,1209.367h2427.263c379.013,0,686.271-544.219,686.271-1215.548
		C4191.606-270.128,3884.349-814.346,3505.336-814.346z"/>
	<path opacity="0.5" fill="#B4BEDB" d="M3501.324-679.535H1337.721c-338.921,0-519.146,492.142-519.146,1092.436
		c0,600.274,173.438,1081.373,512.357,1081.373h2170.392c338.899,0,613.657-486.61,613.657-1086.898
		C4114.981-192.918,3840.224-679.535,3501.324-679.535z"/>
	<path fill="#FFFFFF" d="M2163.321-743.751H925.28c-206.5,0-420.188,515.363-420.188,1151.127
		c0,635.721,213.688,1151.118,420.188,1151.118h1238.041c206.5,0,373.896-515.374,373.896-1151.118
		C2537.218-228.376,2369.821-743.751,2163.321-743.751z"/>
	<path fill="#D7D7D7" d="M2154.985-629.305H1072.409c-180.557,0-367.421,450.648-367.421,1006.575
		c0,555.899,186.864,1006.571,367.421,1006.571h1082.576c180.568,0,326.952-450.647,326.952-1006.571
		C2481.938-178.646,2335.554-629.305,2154.985-629.305z"/>
	<path fill="#FFFFFF" d="M2153.587-539.973h-962.971c-160.612,0-326.828,400.86-326.828,895.371
		c0,494.474,166.216,895.369,326.828,895.369h962.971c160.621,0,290.829-400.883,290.829-895.369
		C2444.416-139.1,2314.208-539.973,2153.587-539.973z"/>
	<path fill="#777777" d="M6212.771,420.661c0,376.787-305.412,682.198-682.187,682.198c-376.763,0-682.197-305.411-682.197-682.198
		c0-376.763,305.435-682.185,682.197-682.185C5907.358-261.524,6212.771,43.898,6212.771,420.661z"/>
	<path fill="#A3A2A2" d="M6136.982,420.661c0,334.921-271.49,606.398-606.398,606.398c-334.919,0-606.397-271.478-606.397-606.398
		c0-334.891,271.479-606.386,606.397-606.386C5865.492-185.725,6136.982,85.771,6136.982,420.661z"/>
	<path fill="#E5E5E4" d="M6048.687,405.575c0,299.496-243.403,543.094-542.659,543.094c-134.15,0-257.056-48.916-351.783-129.932
		c0-509.597,241.707-918.436,737.283-794.437l0.378-0.154C5988.775,122.237,6048.687,257.025,6048.687,405.575z"/>
	<path fill="#FFFFFF" d="M5846.623,296.106c0,254.707-206.971,461.826-461.446,461.826c-114.092,0-218.596-41.591-299.154-110.49
		c0-433.326,205.561-780.994,626.977-675.553l0.32-0.126C5795.688,55.168,5846.623,169.801,5846.623,296.106z"/>
	<g opacity="0.7">
		<path fill="#D6DBEA" d="M3340.588,1330.568c-139.71,29.462-260.231,8.839-267.362-139.528
			c-17.219-358.19,152.173-698.613,81.522-1062.549c-31.149-160.5-110.034-310.003-126.001-473.502
			c-5.011-51.266,13.836-96.4,56.207-108.495c259.865-74.235,507.75,60.307,647.095,272.281
			c197.387,300.292,261.116,1115.541-110.925,1387.386C3501.521,1293.551,3485.426,1300.017,3340.588,1330.568z"/>
	</g>
	<g opacity="0.7">
		<path fill="#FFFFFF" d="M3344.12,1199.248c-99.37,22.471-186.359,0.803-195.519-131.812
			c-22.148-320.145,90.039-619.376,29.417-946.11c-26.711-144.108-87.38-279.687-103.291-426.053
			c-4.988-45.891,7.291-85.653,37.352-95.295c184.34-59.154,365.791,67.696,471.512,260.691
			c149.743,273.398,217.714,1002.753-41.672,1235.23C3458.542,1170.623,3447.181,1175.965,3344.12,1199.248z"/>
	</g>
</g>
<g id="Logo">
	<g>
		<path fill-rule="evenodd" clip-rule="evenodd" fill="#545454" d="M1780.848,204.761c42.313,12.955,81.257,33.979,121.646,51.508
			c99.002,42.978,197.465,87.206,296.136,130.963c3.726,1.63,7.268,3.796,11.603,2.432c0,8.187,0,16.36,0,24.546
			c-28.455,9.147-54.432,23.889-81.428,36.259c-71.616,32.833-142.979,66.229-214.379,99.52c-4.893,2.27-9.319,5.526-13.951,8.322
			c-15.557,6.786-31.111,13.516-46.67,20.304c-97.225,45.247-194.278,90.874-291.759,135.537
			c-32.98,15.099-60.149,39.162-91.917,55.933l-0.24-0.251c13.265-29.749,26.7-59.407,39.713-89.26
			c4.344-9.962,9.813-20.13,11.027-30.644c4.78-41.212,32.534-56.644,67.673-70.343c141.396-55.061,281.828-112.564,422.571-169.3
			c6.66-2.681,14.398-3.794,20.291-11.979c-55.003-24.992-109.365-49.823-163.865-74.378c-17.334-7.819-35.023-14.868-52.541-22.252
			C1803.455,269.395,1792.151,237.066,1780.848,204.761z"/>
		<path fill-rule="evenodd" clip-rule="evenodd" fill="#535353" d="M1085.65,434.659c52.367,0.173,104.724,0.229,157.091,0.652
			c8.906,0.069,22.011-2.991,21.529,11.408c-0.481,13.917,9.768,32.408-12.232,40.205c-35.102,12.427-70.217,24.863-111.43,39.48
			c37.109,13.758,68.463,25.564,99.931,37.052c23.926,8.747,30.793,22.285,24.178,46.692c-3.233,11.912-12.495,8.587-19.901,8.621
			c-53.066,0.207-106.099-0.023-159.165-0.091c0-10.903,0-21.816,0-32.73c40.308,0,80.627,0,120.934,0
			c-39.803-17.895-78.724-36.042-120.934-44.974c0-9.537,0-19.075,0-28.625c42.463-7.612,80.866-26.769,121.597-39.311
			c-0.331-1.891-0.663-3.771-0.996-5.674c-40.193,0-80.384,0-120.601,0C1085.65,456.464,1085.65,445.549,1085.65,434.659z"/>
		<path fill-rule="evenodd" clip-rule="evenodd" fill="#535353" d="M1085.65,761.807c8.312,0.311,8.953-7.406,12.048-12.095
			c6.25-9.481,14.17-16.761,24.947-20.063c7.841-2.396,18.376-8.931,21.861,4.563c2.671,10.408,7.038,22.264-8.289,29.565
			c-18.974,9.045-22.768,22.183-12.277,34.84c9.664,11.646,24.497,11.164,31.928-2.111c4.562-8.173,6.979-17.606,9.845-26.652
			c10.525-33.245,33.683-47.576,65.14-40.043c24.717,5.926,40.722,35.595,36.111,65.068c-2.693,17.104-9.206,31.48-24.338,40.444
			c-7.303,4.345-18.606,10.88-23.661,3.142c-5.824-8.896-6.937-23.65,2.167-32.099c9.457-8.77,19.671-15.43,13.849-30.151
			c-2.684-6.798-8.187-10.684-15.946-10.615c-17.655,0.171-18.297,15.66-23.845,26.632c-3.36,6.66-5.778,13.837-9.16,20.484
			c-20.165,39.851-63.453,43.104-90.21,6.902c-2.753-3.714-4.105-8.932-10.169-8.747
			C1085.65,794.514,1085.65,778.166,1085.65,761.807z"/>
		<path fill-rule="evenodd" clip-rule="evenodd" fill="#535353" d="M1085.65-96.965c8.966-0.9,17.334,0.86,25.61,4.591
			c46.395,20.916,92.927,41.528,139.368,62.387c6.051,2.711,13.113,4.764,13.929,13.184c0.734,7.583-4.254,10.936-10.111,13.487
			c-51.623,22.538-103.233,45.099-154.97,67.408c-4.185,1.811-9.195,1.725-13.826,2.522c0-12.266,0-24.539,0-36.806
			c14.961-6.104,29.829-12.461,44.926-18.222c10.216-3.909,12.017-10.317,10.147-20.738c-6.18-34.328-18.549-46.303-55.073-51.009
			C1085.65-72.426,1085.65-84.692,1085.65-96.965z M1191.944-17.027c-8.886-5.003-16.404-15.207-26.825-9.951
			c-4.447,2.247-0.826,10.754,2.463,14.594C1177.074-1.344,1183.724-13.777,1191.944-17.027z"/>
		<path fill-rule="evenodd" clip-rule="evenodd" fill="#545454" d="M1085.65,303.798c53.812-0.217,107.634-0.172,161.435-0.848
			c13.07-0.16,18.561,4.196,18.079,17.654c-0.699,20.406-0.573,40.88-0.033,61.31c0.332,12.267-4.483,16.761-16.818,16.841
			c-13.276,0.067-16.384-6.363-15.729-17.76c0.435-7.462-0.54-15.052,0.184-22.468c1.467-15.121-2.889-22.137-20.072-21.861
			c-17.049,0.274-21.428,7.611-20.145,22.526c0.573,6.751-0.033,13.62,0.104,20.44c0.24,10.215-0.149,18.801-14.457,19.043
			c-15.477,0.262-15.865-9.022-15.534-20.029c0.173-6.132,0.082-12.266,0-18.399c-0.25-21.77-7.015-26.802-29.21-23.032
			c-7.53,1.273-10.764,4.759-10.673,12.05c0.058,4.769,0,9.538-0.114,14.318c-0.859,35.423,7.957,36.18-37.017,34.267
			C1085.65,366.495,1085.65,335.142,1085.65,303.798z"/>
		<path fill-rule="evenodd" clip-rule="evenodd" fill="#535353" d="M1085.65,205.655c38.782-0.229,77.6-1.513,116.335-0.263
			c20.579,0.664,37.35-3.13,50.053-20.2c2.567-3.428,5.355-8.111,12.807-7.572c0,29.56,0.125,59.17-0.069,88.783
			c-0.08,11.463-8.427,12.06-17.174,12.334c-9.95,0.333-16.394-3.117-14.788-13.939c2.969-20.2-7.279-23.673-24.74-23.181
			c-40.788,1.124-81.611,0.654-122.423,0.838C1085.65,230.188,1085.65,217.921,1085.65,205.655z"/>
		<path fill-rule="evenodd" clip-rule="evenodd" fill="#535353" d="M1085.65,136.126c21.495-20.607,46.153-36.604,72.063-51.135
			c13.241-7.429,17.734-5.709,18.171,9.881c0.562,19.236,11.406,29.009,29.072,28.603c16.37-0.378,27.696-12.266,27.388-31.301
			c-0.264-15.901,0.47-29.824,18.181-36.715c7.681-2.975,11.705-2.865,11.578,6.489c-0.24,17.001,1.331,34.277-1.123,50.952
			c-3.451,23.455-20.234,36.495-42.232,41.969c-21.163,5.263-40.158-0.905-51.932-19.208c-8.46-13.16-15.315-11.384-26.185-4.545
			c-17.506,11.022-33.589,23.3-44.468,41.184c-2.66,4.363-5.709,7.406-10.513,8.816
			C1085.65,166.128,1085.65,151.127,1085.65,136.126z"/>
		<path fill-rule="evenodd" clip-rule="evenodd" fill="#545454" d="M1085.65,659.559c47.541,0,95.071,0.082,142.601-0.08
			c6.682-0.021,15.179,1.135,19.765-2.303c22.73-17.139,16.587,3.06,16.805,12.826c0.618,26.965,0.264,27.079-26.391,27.021
			c-50.921-0.149-101.856-0.435-152.779-0.653C1085.65,684.104,1085.65,671.838,1085.65,659.559z"/>
		<path fill-rule="evenodd" clip-rule="evenodd" fill="#26ABD8" d="M1239.589-213.988
			c386.69,310.902,368.669,909.338-7.922,1202.735c5.582-17.426,17.186-27.778,25.564-39.896
			c91.86-132.774,145.799-279.629,164.795-439.722c24.887-209.677-7.212-408.966-107.889-595.875
			c-23.214-43.087-51.656-82.873-77.999-123.982C1237.284-211.811,1238.43-212.9,1239.589-213.988z"/>
		<path fill-rule="evenodd" clip-rule="evenodd" fill="#C0212F" d="M1780.848,204.761c11.304,32.306,22.607,64.634,33.909,96.916
			c10.927,37.086,21.016,74.471,33.133,111.189c5.387,16.314,1.033,22.643-14.49,28.007c-32.524,11.257-32.626,12.231-42.865-21.025
			c-16.164-52.47-30.574-105.537-51.06-156.598c-12.049-36.696-25.909-72.613-44.813-106.414c-1.263-1.537-2.533-3.067-3.784-4.591
			l0.242,0.16c-14.354-37.597-36.984-69.684-67.626-95.397c-35.161-29.531-73.026-31.217-110.972-7.32
			c-5.651,3.102-11.292,6.196-16.933,9.303c-23.386-43.631-45.315-88.101-73.689-128.86c-8.14-11.7-16.394-23.501-26.116-33.842
			c-9.973-10.615-7.152-14.29,5.148-19.243c75.146-30.339,141.432-12.191,200.918,37.539
			c63.531,53.113,102.992,123.862,138.186,197.094C1754.687,142.197,1767.298,173.7,1780.848,204.761z"/>
		<path fill-rule="evenodd" clip-rule="evenodd" fill="#AEACB2" d="M2154.447,539.566c0.046,53.09-32.042,95.734-80.352,106.774
			c-45.845,10.501-91.046-13.837-115.44-60.781c-5.721-11.052-2.958-15.018,7.129-19.513
			c55.132-24.658,110.181-49.523,164.908-75.053c11.111-5.183,15.591-3.36,18.527,8.253
			C2152.578,512.568,2154.345,525.912,2154.447,539.566z"/>
		<path fill-rule="evenodd" clip-rule="evenodd" fill="#545454" d="M1694.674,156.836c18.892,33.801,32.752,69.718,44.801,106.414
			c-42.817-13.321-81.004-38.06-123.261-51.932c-56.873-18.664-96.47-50.201-106.339-112.41
			c-2.18-13.716-9.401-26.643-14.296-39.923c5.651-3.102,11.292-6.196,16.943-9.298c7.12,0.877,12.221,5.657,17.689,9.521
			c33.796,23.874,68.704,46.085,104.78,66.244c18.045,10.088,34.22,24.711,56.128,26.952l-0.242-0.16
			C1692.129,153.769,1693.399,155.299,1694.674,156.836z"/>
		<path fill-rule="evenodd" clip-rule="evenodd" fill="#C0212F" d="M1853.804,578.613c15.559-6.788,31.113-13.518,46.67-20.304
			c21.335,39.378,41.627,79.388,70.779,113.906c3.507,4.126,7.222,8.116,11.027,12.002c40.653,41.42,66.606,26.699,80.581-13.871
			c1.525-4.426,2.819-9.251,8.839-9.733c4.896,24.969-14.342,64.714-39.082,80.5c-24.005,15.281-45.706,6.512-66.146-7.565
			c-30.276-20.831-51.278-50.132-70.858-80.512C1880.193,629.065,1865.956,604.417,1853.804,578.613z"/>
		<path fill-rule="evenodd" clip-rule="evenodd" fill="#545454" d="M1470.128,770.083c-0.344,0.517-0.688,1.044-1.041,1.559
			c0.274-0.607,0.537-1.191,0.801-1.81L1470.128,770.083z"/>
		<path fill-rule="evenodd" clip-rule="evenodd" fill="#020304" d="M1694.674,156.836c-1.274-1.537-2.545-3.067-3.796-4.591
			C1692.129,153.769,1693.399,155.299,1694.674,156.836z"/>
	</g>
</g>
</svg>
