<?xml version="1.0" encoding="UTF-8"?>
<svg xmlns="http://www.w3.org/2000/svg" xmlns:xlink="http://www.w3.org/1999/xlink" width="2000pt" height="2000pt" viewBox="0 0 2000 2000" version="1.1">
<g id="surface1">
<rect x="0" y="0" width="2000" height="2000" style="fill:rgb(93.450928%,93.59436%,92.835999%);fill-opacity:1;stroke:none;"/>
<path style=" stroke:none;fill-rule:nonzero;fill:rgb(100%,100%,100%);fill-opacity:1;" d="M 763.738281 416.5 C 763.738281 597.371094 618.277344 744 438.84375 744 C 259.40625 744 113.949219 597.371094 113.949219 416.5 C 113.949219 235.625 259.40625 88.996094 438.84375 88.996094 C 618.277344 88.996094 763.738281 235.625 763.738281 416.5 "/>
<path style=" stroke:none;fill-rule:nonzero;fill:rgb(100%,100%,100%);fill-opacity:1;" d="M 1000 774.304688 C 1000 830.386719 953.863281 875.851562 896.953125 875.851562 C 840.042969 875.851562 793.90625 830.386719 793.90625 774.304688 C 793.90625 718.21875 840.042969 672.753906 896.953125 672.753906 C 953.863281 672.753906 1000 718.21875 1000 774.304688 "/>
<path style=" stroke:none;fill-rule:nonzero;fill:rgb(100%,100%,100%);fill-opacity:1;" d="M 1471.066406 508.394531 C 1471.066406 597.3125 1398.539062 669.394531 1309.074219 669.394531 C 1219.609375 669.394531 1147.085938 597.3125 1147.085938 508.394531 C 1147.085938 419.476562 1219.609375 347.394531 1309.074219 347.394531 C 1398.539062 347.394531 1471.066406 419.476562 1471.066406 508.394531 "/>
<path style=" stroke:none;fill-rule:nonzero;fill:rgb(100%,100%,100%);fill-opacity:1;" d="M 1845.269531 228.742188 C 1845.269531 286.742188 1798.253906 333.757812 1740.253906 333.757812 C 1682.257812 333.757812 1635.242188 286.742188 1635.242188 228.742188 C 1635.242188 170.746094 1682.257812 123.730469 1740.253906 123.730469 C 1798.253906 123.730469 1845.269531 170.746094 1845.269531 228.742188 "/>
<path style=" stroke:none;fill-rule:nonzero;fill:rgb(100%,100%,100%);fill-opacity:1;" d="M 1890.042969 998.59375 C 1890.042969 1138.59375 1777.222656 1252.082031 1638.054688 1252.082031 C 1498.882812 1252.082031 1386.0625 1138.59375 1386.0625 998.59375 C 1386.0625 858.59375 1498.882812 745.101562 1638.054688 745.101562 C 1777.222656 745.101562 1890.042969 858.59375 1890.042969 998.59375 "/>
<path style=" stroke:none;fill-rule:nonzero;fill:rgb(100%,100%,100%);fill-opacity:1;" d="M 1182.132812 1179.09375 C 1182.132812 1248.5 1125.863281 1304.769531 1056.453125 1304.769531 C 987.042969 1304.769531 930.777344 1248.5 930.777344 1179.09375 C 930.777344 1109.683594 987.042969 1053.414062 1056.453125 1053.414062 C 1125.863281 1053.414062 1182.132812 1109.683594 1182.132812 1179.09375 "/>
<path style=" stroke:none;fill-rule:nonzero;fill:rgb(100%,100%,100%);fill-opacity:1;" d="M 706.472656 1507.121094 C 706.472656 1654.988281 586.601562 1774.855469 438.738281 1774.855469 C 290.867188 1774.855469 171 1654.988281 171 1507.121094 C 171 1359.253906 290.867188 1239.386719 438.738281 1239.386719 C 586.601562 1239.386719 706.472656 1359.253906 706.472656 1507.121094 "/>
<path style=" stroke:none;fill-rule:nonzero;fill:rgb(100%,100%,100%);fill-opacity:1;" d="M 1644.539062 1644.578125 C 1644.539062 1735.425781 1573.898438 1809.070312 1486.757812 1809.070312 C 1399.617188 1809.070312 1328.976562 1735.425781 1328.976562 1644.578125 C 1328.976562 1553.730469 1399.617188 1480.085938 1486.757812 1480.085938 C 1573.898438 1480.085938 1644.539062 1553.730469 1644.539062 1644.578125 "/>
<path style=" stroke:none;fill-rule:nonzero;fill:rgb(50.701904%,51.818848%,52.209473%);fill-opacity:1;" d="M 749.039062 415.3125 C 749.039062 586.546875 610.226562 725.355469 438.992188 725.355469 C 267.757812 725.355469 128.949219 586.546875 128.949219 415.3125 C 128.949219 244.078125 267.757812 105.265625 438.992188 105.265625 C 610.226562 105.265625 749.039062 244.078125 749.039062 415.3125 "/>
<path style=" stroke:none;fill-rule:nonzero;fill:rgb(50.701904%,51.818848%,52.209473%);fill-opacity:1;" d="M 988.167969 774.382812 C 988.167969 824.992188 947.144531 866.015625 896.535156 866.015625 C 845.929688 866.015625 804.90625 824.992188 804.90625 774.382812 C 804.90625 723.777344 845.929688 682.753906 896.535156 682.753906 C 947.144531 682.753906 988.167969 723.777344 988.167969 774.382812 "/>
<path style=" stroke:none;fill-rule:nonzero;fill:rgb(50.701904%,51.818848%,52.209473%);fill-opacity:1;" d="M 385.242188 909.089844 C 385.242188 963.902344 340.8125 1008.335938 286 1008.335938 C 231.191406 1008.335938 186.757812 963.902344 186.757812 909.089844 C 186.757812 854.28125 231.191406 809.847656 286 809.847656 C 340.8125 809.847656 385.242188 854.28125 385.242188 909.089844 "/>
<path style=" stroke:none;fill-rule:nonzero;fill:rgb(50.701904%,51.818848%,52.209473%);fill-opacity:1;" d="M 1459.300781 506.542969 C 1459.300781 589.472656 1392.078125 656.695312 1309.152344 656.695312 C 1226.226562 656.695312 1159 589.472656 1159 506.542969 C 1159 423.617188 1226.226562 356.394531 1309.152344 356.394531 C 1392.078125 356.394531 1459.300781 423.617188 1459.300781 506.542969 "/>
<path style=" stroke:none;fill-rule:nonzero;fill:rgb(50.701904%,51.818848%,52.209473%);fill-opacity:1;" d="M 1837.847656 228.535156 C 1837.847656 282.546875 1794.0625 326.335938 1740.046875 326.335938 C 1686.03125 326.335938 1642.242188 282.546875 1642.242188 228.535156 C 1642.242188 174.519531 1686.03125 130.730469 1740.046875 130.730469 C 1794.0625 130.730469 1837.847656 174.519531 1837.847656 228.535156 "/>
<path style=" stroke:none;fill-rule:nonzero;fill:rgb(50.701904%,51.818848%,52.209473%);fill-opacity:1;" d="M 1169.503906 1180.859375 C 1169.503906 1243.292969 1118.890625 1293.90625 1056.453125 1293.90625 C 994.019531 1293.90625 943.40625 1243.292969 943.40625 1180.859375 C 943.40625 1118.421875 994.019531 1067.808594 1056.453125 1067.808594 C 1118.890625 1067.808594 1169.503906 1118.421875 1169.503906 1180.859375 "/>
<path style=" stroke:none;fill-rule:nonzero;fill:rgb(50.701904%,51.818848%,52.209473%);fill-opacity:1;" d="M 694.675781 1505.910156 C 694.675781 1648.140625 579.375 1763.441406 437.148438 1763.441406 C 294.917969 1763.441406 179.621094 1648.140625 179.621094 1505.910156 C 179.621094 1363.683594 294.917969 1248.386719 437.148438 1248.386719 C 579.375 1248.386719 694.675781 1363.683594 694.675781 1505.910156 "/>
<path style=" stroke:none;fill-rule:nonzero;fill:rgb(50.701904%,51.818848%,52.209473%);fill-opacity:1;" d="M 1871.613281 997.078125 C 1871.613281 1127.296875 1766.050781 1232.855469 1635.835938 1232.855469 C 1505.621094 1232.855469 1400.058594 1127.296875 1400.058594 997.078125 C 1400.058594 866.863281 1505.621094 761.304688 1635.835938 761.304688 C 1766.050781 761.304688 1871.613281 866.863281 1871.613281 997.078125 "/>
<path style=" stroke:none;fill-rule:nonzero;fill:rgb(50.701904%,51.818848%,52.209473%);fill-opacity:1;" d="M 1637.847656 1646.554688 C 1637.847656 1730.746094 1569.601562 1798.992188 1485.410156 1798.992188 C 1401.226562 1798.992188 1332.976562 1730.746094 1332.976562 1646.554688 C 1332.976562 1562.367188 1401.226562 1494.121094 1485.410156 1494.121094 C 1569.601562 1494.121094 1637.847656 1562.367188 1637.847656 1646.554688 "/>
<path style=" stroke:none;fill-rule:nonzero;fill:rgb(65.25116%,66.325378%,65.713501%);fill-opacity:1;" d="M 729.734375 424.417969 C 729.734375 581.734375 600.167969 709.265625 440.339844 709.265625 C 280.511719 709.265625 150.949219 581.734375 150.949219 424.417969 C 150.949219 267.101562 280.511719 139.570312 440.339844 139.570312 C 600.167969 139.570312 729.734375 267.101562 729.734375 424.417969 "/>
<path style=" stroke:none;fill-rule:nonzero;fill:rgb(65.25116%,66.325378%,65.713501%);fill-opacity:1;" d="M 1441.300781 513 C 1441.300781 585.800781 1384.320312 644.816406 1314.03125 644.816406 C 1243.738281 644.816406 1186.757812 585.800781 1186.757812 513 C 1186.757812 440.199219 1243.738281 381.183594 1314.03125 381.183594 C 1384.320312 381.183594 1441.300781 440.199219 1441.300781 513 "/>
<path style=" stroke:none;fill-rule:nonzero;fill:rgb(65.25116%,66.325378%,65.713501%);fill-opacity:1;" d="M 1155.132812 1185.566406 C 1155.132812 1238.71875 1111.039062 1281.808594 1056.648438 1281.808594 C 1002.253906 1281.808594 958.164062 1238.71875 958.164062 1185.566406 C 958.164062 1132.414062 1002.253906 1089.324219 1056.648438 1089.324219 C 1111.039062 1089.324219 1155.132812 1132.414062 1155.132812 1185.566406 "/>
<path style=" stroke:none;fill-rule:nonzero;fill:rgb(65.25116%,66.325378%,65.713501%);fill-opacity:1;" d="M 1853.421875 992.484375 C 1853.421875 1112.984375 1755.738281 1210.667969 1635.242188 1210.667969 C 1514.742188 1210.667969 1417.0625 1112.984375 1417.0625 992.484375 C 1417.0625 871.988281 1514.742188 774.304688 1635.242188 774.304688 C 1755.738281 774.304688 1853.421875 871.988281 1853.421875 992.484375 "/>
<path style=" stroke:none;fill-rule:nonzero;fill:rgb(65.25116%,66.325378%,65.713501%);fill-opacity:1;" d="M 673.691406 1509.683594 C 673.691406 1639.386719 568.546875 1744.53125 438.84375 1744.53125 C 309.140625 1744.53125 203.996094 1639.386719 203.996094 1509.683594 C 203.996094 1379.980469 309.140625 1274.832031 438.84375 1274.832031 C 568.546875 1274.832031 673.691406 1379.980469 673.691406 1509.683594 "/>
<path style=" stroke:none;fill-rule:nonzero;fill:rgb(65.25116%,66.325378%,65.713501%);fill-opacity:1;" d="M 1620.734375 1645 C 1620.734375 1721.148438 1559.003906 1782.878906 1482.855469 1782.878906 C 1406.707031 1782.878906 1344.976562 1721.148438 1344.976562 1645 C 1344.976562 1568.851562 1406.707031 1507.121094 1482.855469 1507.121094 C 1559.003906 1507.121094 1620.734375 1568.851562 1620.734375 1645 "/>
<path style=" stroke:none;fill-rule:nonzero;fill:rgb(65.25116%,66.325378%,65.713501%);fill-opacity:1;" d="M 375.242188 912.726562 C 375.242188 960.425781 336.574219 999.089844 288.878906 999.089844 C 241.183594 999.089844 202.515625 960.425781 202.515625 912.726562 C 202.515625 865.03125 241.183594 826.363281 288.878906 826.363281 C 336.574219 826.363281 375.242188 865.03125 375.242188 912.726562 "/>
<path style=" stroke:none;fill-rule:nonzero;fill:rgb(65.25116%,66.325378%,65.713501%);fill-opacity:1;" d="M 979.84375 779.054688 C 979.84375 822.25 944.828125 857.269531 901.632812 857.269531 C 858.4375 857.269531 823.421875 822.25 823.421875 779.054688 C 823.421875 735.863281 858.4375 700.84375 901.632812 700.84375 C 944.828125 700.84375 979.84375 735.863281 979.84375 779.054688 "/>
<path style=" stroke:none;fill-rule:nonzero;fill:rgb(65.25116%,66.325378%,65.713501%);fill-opacity:1;" d="M 1829 231.09375 C 1829 279.628906 1789.65625 318.972656 1741.121094 318.972656 C 1692.585938 318.972656 1653.242188 279.628906 1653.242188 231.09375 C 1653.242188 182.5625 1692.585938 143.214844 1741.121094 143.214844 C 1789.65625 143.214844 1829 182.5625 1829 231.09375 "/>
</g>
</svg>
