<?xml version="1.0" encoding="UTF-8"?>
<svg xmlns="http://www.w3.org/2000/svg" xmlns:xlink="http://www.w3.org/1999/xlink" width="2000pt" height="2000pt" viewBox="0 0 2000 2000" version="1.1">
<g id="surface1">
<rect x="0" y="0" width="2000" height="2000" style="fill:rgb(10.165405%,14.424133%,26.649475%);fill-opacity:1;stroke:none;"/>
<path style=" stroke:none;fill-rule:nonzero;fill:rgb(28.738403%,36.36322%,63.223267%);fill-opacity:1;" d="M 326.164062 702.804688 C 325.816406 702.714844 325.390625 702.605469 324.890625 702.488281 C 324.640625 702.429688 324.371094 702.367188 324.085938 702.296875 C 323.800781 702.234375 323.492188 702.167969 323.171875 702.09375 C 321.882812 701.808594 320.316406 701.496094 318.523438 701.171875 C 316.726562 700.851562 314.703125 700.527344 312.496094 700.21875 C 308.074219 699.597656 302.921875 699.054688 297.398438 698.691406 C 294.636719 698.507812 291.785156 698.363281 288.886719 698.273438 C 287.601562 698.234375 286.304688 698.203125 285.003906 698.183594 C 284.980469 696.882812 284.953125 695.585938 284.914062 694.300781 C 284.824219 691.402344 284.679688 688.546875 284.496094 685.785156 C 284.132812 680.265625 283.589844 675.109375 282.96875 670.691406 C 282.660156 668.484375 282.332031 666.457031 282.011719 664.664062 C 281.691406 662.867188 281.378906 661.304688 281.089844 660.015625 C 281.019531 659.691406 280.953125 659.386719 280.890625 659.101562 C 280.820312 658.8125 280.757812 658.542969 280.699219 658.292969 C 280.582031 657.792969 280.472656 657.367188 280.382812 657.023438 C 280.207031 656.332031 280.09375 655.964844 280.09375 655.964844 C 280.09375 655.964844 279.984375 656.332031 279.808594 657.023438 C 279.71875 657.367188 279.609375 657.792969 279.492188 658.292969 C 279.433594 658.542969 279.367188 658.8125 279.300781 659.101562 C 279.238281 659.386719 279.171875 659.691406 279.097656 660.015625 C 278.8125 661.304688 278.5 662.867188 278.175781 664.664062 C 277.855469 666.457031 277.53125 668.484375 277.222656 670.691406 C 276.601562 675.109375 276.058594 680.265625 275.691406 685.785156 C 275.511719 688.546875 275.363281 691.402344 275.277344 694.300781 C 275.238281 695.585938 275.207031 696.886719 275.183594 698.1875 C 273.886719 698.210938 272.589844 698.242188 271.304688 698.28125 C 268.40625 698.371094 265.550781 698.515625 262.789062 698.703125 C 257.265625 699.070312 252.113281 699.613281 247.695312 700.230469 C 245.484375 700.539062 243.460938 700.863281 241.667969 701.183594 C 239.871094 701.503906 238.308594 701.816406 237.015625 702.101562 C 236.695312 702.171875 236.390625 702.238281 236.105469 702.300781 C 235.816406 702.367188 235.546875 702.433594 235.296875 702.492188 C 234.796875 702.609375 234.371094 702.714844 234.027344 702.804688 C 233.335938 702.980469 232.96875 703.089844 232.96875 703.089844 C 232.96875 703.089844 233.335938 703.199219 234.027344 703.378906 C 234.371094 703.464844 234.796875 703.574219 235.296875 703.691406 C 235.546875 703.75 235.816406 703.8125 236.105469 703.882812 C 236.390625 703.945312 236.695312 704.011719 237.015625 704.082031 C 238.308594 704.367188 239.871094 704.675781 241.667969 705 C 243.460938 705.320312 245.484375 705.644531 247.695312 705.953125 C 252.113281 706.570312 257.265625 707.113281 262.789062 707.480469 C 265.550781 707.664062 268.40625 707.808594 271.304688 707.902344 C 272.589844 707.941406 273.886719 707.972656 275.1875 707.996094 C 275.214844 709.296875 275.242188 710.59375 275.285156 711.882812 C 275.375 714.78125 275.519531 717.632812 275.707031 720.394531 C 276.070312 725.917969 276.613281 731.074219 277.234375 735.492188 C 277.542969 737.699219 277.867188 739.726562 278.1875 741.519531 C 278.507812 743.316406 278.816406 744.878906 279.105469 746.167969 C 279.175781 746.492188 279.242188 746.796875 279.304688 747.082031 C 279.371094 747.367188 279.4375 747.636719 279.496094 747.890625 C 279.609375 748.390625 279.71875 748.816406 279.808594 749.160156 C 279.984375 749.851562 280.09375 750.21875 280.09375 750.21875 C 280.09375 750.21875 280.203125 749.851562 280.382812 749.160156 C 280.46875 748.816406 280.578125 748.390625 280.695312 747.890625 C 280.753906 747.636719 280.816406 747.367188 280.882812 747.082031 C 280.945312 746.796875 281.015625 746.492188 281.085938 746.167969 C 281.371094 744.878906 281.679688 743.316406 282.003906 741.519531 C 282.320312 739.726562 282.648438 737.699219 282.957031 735.492188 C 283.574219 731.074219 284.117188 725.917969 284.484375 720.394531 C 284.667969 717.632812 284.8125 714.78125 284.902344 711.882812 C 284.945312 710.59375 284.976562 709.300781 285 708 C 286.300781 707.980469 287.597656 707.949219 288.886719 707.910156 C 291.785156 707.820312 294.636719 707.675781 297.398438 707.492188 C 302.921875 707.128906 308.074219 706.585938 312.496094 705.964844 C 314.703125 705.65625 316.726562 705.328125 318.523438 705.007812 C 320.316406 704.6875 321.882812 704.375 323.171875 704.085938 C 323.492188 704.015625 323.800781 703.949219 324.085938 703.886719 C 324.371094 703.816406 324.640625 703.753906 324.890625 703.695312 C 325.390625 703.578125 325.816406 703.46875 326.164062 703.378906 C 326.851562 703.203125 327.222656 703.089844 327.222656 703.089844 C 327.222656 703.089844 326.851562 702.980469 326.164062 702.804688 "/>
<path style=" stroke:none;fill-rule:nonzero;fill:rgb(28.738403%,36.36322%,63.223267%);fill-opacity:1;" d="M 593.765625 249.554688 C 593.417969 249.464844 592.992188 249.355469 592.492188 249.238281 C 592.242188 249.179688 591.972656 249.113281 591.6875 249.046875 C 591.398438 248.984375 591.09375 248.917969 590.773438 248.84375 C 589.484375 248.558594 587.917969 248.246094 586.125 247.925781 C 584.328125 247.601562 582.304688 247.277344 580.09375 246.96875 C 575.675781 246.347656 570.523438 245.804688 565 245.4375 C 562.238281 245.257812 559.386719 245.109375 556.484375 245.023438 C 555.199219 244.984375 553.90625 244.953125 552.605469 244.929688 C 552.582031 243.632812 552.554688 242.335938 552.515625 241.050781 C 552.425781 238.152344 552.28125 235.296875 552.097656 232.539062 C 551.734375 227.015625 551.191406 221.859375 550.570312 217.441406 C 550.261719 215.230469 549.933594 213.207031 549.613281 211.414062 C 549.289062 209.617188 548.980469 208.054688 548.691406 206.765625 C 548.621094 206.441406 548.550781 206.136719 548.488281 205.851562 C 548.421875 205.5625 548.359375 205.292969 548.296875 205.042969 C 548.183594 204.542969 548.074219 204.117188 547.984375 203.773438 C 547.804688 203.082031 547.695312 202.714844 547.695312 202.714844 C 547.695312 202.714844 547.585938 203.082031 547.40625 203.773438 C 547.316406 204.117188 547.207031 204.542969 547.09375 205.042969 C 547.035156 205.292969 546.96875 205.5625 546.902344 205.851562 C 546.835938 206.136719 546.769531 206.441406 546.699219 206.765625 C 546.410156 208.054688 546.101562 209.617188 545.777344 211.414062 C 545.457031 213.207031 545.128906 215.230469 544.820312 217.441406 C 544.199219 221.859375 543.65625 227.015625 543.292969 232.539062 C 543.113281 235.296875 542.964844 238.152344 542.878906 241.050781 C 542.835938 242.339844 542.808594 243.636719 542.785156 244.9375 C 541.488281 244.960938 540.191406 244.992188 538.90625 245.03125 C 536.003906 245.125 533.152344 245.265625 530.390625 245.453125 C 524.867188 245.816406 519.714844 246.359375 515.296875 246.980469 C 513.085938 247.289062 511.0625 247.613281 509.265625 247.933594 C 507.472656 248.253906 505.90625 248.5625 504.617188 248.851562 C 504.296875 248.921875 503.992188 248.988281 503.703125 249.050781 C 503.417969 249.121094 503.148438 249.183594 502.898438 249.242188 C 502.398438 249.355469 501.972656 249.464844 501.628906 249.554688 C 500.9375 249.730469 500.570312 249.839844 500.570312 249.839844 C 500.570312 249.839844 500.9375 249.949219 501.628906 250.128906 C 501.972656 250.214844 502.398438 250.324219 502.898438 250.441406 C 503.148438 250.5 503.417969 250.5625 503.703125 250.632812 C 503.992188 250.695312 504.296875 250.761719 504.617188 250.832031 C 505.90625 251.117188 507.472656 251.429688 509.265625 251.75 C 511.0625 252.070312 513.085938 252.394531 515.296875 252.703125 C 519.714844 253.320312 524.867188 253.863281 530.390625 254.230469 C 533.152344 254.417969 536.003906 254.558594 538.90625 254.648438 C 540.191406 254.691406 541.488281 254.722656 542.789062 254.746094 C 542.8125 256.046875 542.84375 257.34375 542.886719 258.632812 C 542.976562 261.53125 543.121094 264.382812 543.304688 267.144531 C 543.671875 272.667969 544.214844 277.824219 544.835938 282.242188 C 545.144531 284.449219 545.46875 286.476562 545.789062 288.269531 C 546.109375 290.066406 546.417969 291.628906 546.707031 292.917969 C 546.777344 293.238281 546.84375 293.546875 546.90625 293.832031 C 546.972656 294.121094 547.035156 294.386719 547.09375 294.636719 C 547.210938 295.136719 547.320312 295.5625 547.410156 295.910156 C 547.585938 296.601562 547.695312 296.96875 547.695312 296.96875 C 547.695312 296.96875 547.804688 296.601562 547.980469 295.910156 C 548.070312 295.5625 548.179688 295.136719 548.296875 294.636719 C 548.355469 294.386719 548.417969 294.121094 548.484375 293.832031 C 548.546875 293.546875 548.617188 293.238281 548.6875 292.917969 C 548.972656 291.628906 549.28125 290.066406 549.601562 288.269531 C 549.921875 286.476562 550.246094 284.449219 550.558594 282.242188 C 551.175781 277.824219 551.71875 272.667969 552.085938 267.144531 C 552.269531 264.382812 552.414062 261.53125 552.503906 258.632812 C 552.546875 257.347656 552.578125 256.050781 552.601562 254.75 C 553.902344 254.730469 555.199219 254.699219 556.484375 254.660156 C 559.386719 254.570312 562.238281 254.425781 565 254.242188 C 570.523438 253.878906 575.675781 253.335938 580.09375 252.714844 C 582.304688 252.40625 584.328125 252.082031 586.125 251.757812 C 587.917969 251.4375 589.484375 251.125 590.773438 250.835938 C 591.09375 250.765625 591.398438 250.699219 591.6875 250.636719 C 591.972656 250.566406 592.242188 250.503906 592.492188 250.445312 C 592.992188 250.328125 593.417969 250.21875 593.765625 250.128906 C 594.453125 249.953125 594.824219 249.839844 594.824219 249.839844 C 594.824219 249.839844 594.453125 249.730469 593.765625 249.554688 "/>
<path style=" stroke:none;fill-rule:nonzero;fill:rgb(28.738403%,36.36322%,63.223267%);fill-opacity:1;" d="M 771.785156 588.308594 C 771.441406 588.21875 771.015625 588.109375 770.515625 587.996094 C 770.265625 587.933594 769.996094 587.871094 769.707031 587.804688 C 769.421875 587.738281 769.117188 587.671875 768.792969 587.601562 C 767.503906 587.3125 765.941406 587.003906 764.144531 586.679688 C 762.351562 586.359375 760.328125 586.03125 758.117188 585.722656 C 753.699219 585.101562 748.542969 584.558594 743.019531 584.195312 C 740.261719 584.015625 737.40625 583.867188 734.507812 583.78125 C 733.222656 583.738281 731.925781 583.710938 730.625 583.6875 C 730.605469 582.386719 730.574219 581.09375 730.535156 579.808594 C 730.445312 576.90625 730.300781 574.054688 730.117188 571.292969 C 729.753906 565.769531 729.210938 560.617188 728.589844 556.199219 C 728.28125 553.988281 727.957031 551.964844 727.632812 550.167969 C 727.3125 548.375 727 546.808594 726.714844 545.519531 C 726.640625 545.199219 726.574219 544.894531 726.511719 544.605469 C 726.441406 544.320312 726.378906 544.050781 726.320312 543.800781 C 726.203125 543.300781 726.09375 542.875 726.003906 542.53125 C 725.828125 541.839844 725.71875 541.472656 725.71875 541.472656 C 725.71875 541.472656 725.605469 541.839844 725.429688 542.53125 C 725.339844 542.875 725.230469 543.300781 725.113281 543.800781 C 725.054688 544.050781 724.992188 544.320312 724.921875 544.605469 C 724.859375 544.894531 724.792969 545.199219 724.722656 545.519531 C 724.433594 546.808594 724.121094 548.375 723.800781 550.167969 C 723.476562 551.964844 723.152344 553.988281 722.84375 556.199219 C 722.222656 560.617188 721.679688 565.769531 721.3125 571.292969 C 721.132812 574.054688 720.988281 576.90625 720.898438 579.808594 C 720.859375 581.09375 720.828125 582.390625 720.804688 583.691406 C 719.507812 583.714844 718.210938 583.75 716.925781 583.789062 C 714.027344 583.878906 711.175781 584.023438 708.414062 584.207031 C 702.890625 584.574219 697.734375 585.117188 693.316406 585.738281 C 691.109375 586.046875 689.082031 586.371094 687.289062 586.691406 C 685.492188 587.011719 683.929688 587.320312 682.640625 587.609375 C 682.316406 587.679688 682.011719 587.746094 681.726562 587.808594 C 681.4375 587.875 681.171875 587.9375 680.921875 588 C 680.417969 588.113281 679.992188 588.222656 679.648438 588.3125 C 678.957031 588.488281 678.589844 588.597656 678.589844 588.597656 C 678.589844 588.597656 678.957031 588.707031 679.648438 588.882812 C 679.992188 588.972656 680.417969 589.082031 680.921875 589.199219 C 681.171875 589.257812 681.4375 589.320312 681.726562 589.386719 C 682.011719 589.449219 682.316406 589.515625 682.640625 589.589844 C 683.929688 589.875 685.492188 590.183594 687.289062 590.503906 C 689.082031 590.824219 691.109375 591.152344 693.316406 591.457031 C 697.734375 592.078125 702.890625 592.621094 708.414062 592.988281 C 711.175781 593.171875 714.027344 593.316406 716.925781 593.40625 C 718.214844 593.449219 719.511719 593.480469 720.8125 593.503906 C 720.835938 594.804688 720.867188 596.101562 720.90625 597.386719 C 721 600.289062 721.140625 603.140625 721.328125 605.902344 C 721.695312 611.425781 722.238281 616.582031 722.855469 621 C 723.164062 623.207031 723.488281 625.230469 723.808594 627.027344 C 724.128906 628.820312 724.441406 630.386719 724.726562 631.675781 C 724.796875 631.996094 724.863281 632.300781 724.925781 632.589844 C 724.996094 632.875 725.058594 633.144531 725.117188 633.394531 C 725.234375 633.894531 725.34375 634.320312 725.429688 634.667969 C 725.605469 635.355469 725.71875 635.726562 725.71875 635.726562 C 725.71875 635.726562 725.828125 635.355469 726.003906 634.667969 C 726.09375 634.320312 726.203125 633.894531 726.316406 633.394531 C 726.375 633.144531 726.4375 632.875 726.507812 632.589844 C 726.570312 632.300781 726.636719 631.996094 726.707031 631.675781 C 726.992188 630.386719 727.304688 628.820312 727.625 627.027344 C 727.945312 625.230469 728.269531 623.207031 728.578125 621 C 729.195312 616.582031 729.738281 611.425781 730.105469 605.902344 C 730.292969 603.140625 730.433594 600.289062 730.527344 597.386719 C 730.566406 596.101562 730.597656 594.808594 730.621094 593.507812 C 731.921875 593.484375 733.21875 593.457031 734.507812 593.414062 C 737.40625 593.328125 740.261719 593.183594 743.019531 593 C 748.542969 592.636719 753.699219 592.09375 758.117188 591.472656 C 760.328125 591.164062 762.351562 590.835938 764.144531 590.515625 C 765.941406 590.191406 767.503906 589.882812 768.792969 589.59375 C 769.117188 589.523438 769.421875 589.457031 769.707031 589.390625 C 769.996094 589.324219 770.265625 589.261719 770.515625 589.199219 C 771.015625 589.085938 771.441406 588.976562 771.785156 588.886719 C 772.476562 588.707031 772.84375 588.597656 772.84375 588.597656 C 772.84375 588.597656 772.476562 588.488281 771.785156 588.308594 "/>
<path style=" stroke:none;fill-rule:nonzero;fill:rgb(28.738403%,36.36322%,63.223267%);fill-opacity:1;" d="M 373.289062 1580.324219 C 372.945312 1580.230469 372.519531 1580.125 372.019531 1580.007812 C 371.769531 1579.949219 371.5 1579.882812 371.214844 1579.816406 C 370.925781 1579.753906 370.621094 1579.683594 370.300781 1579.613281 C 369.011719 1579.328125 367.445312 1579.015625 365.648438 1578.691406 C 363.855469 1578.371094 361.832031 1578.046875 359.621094 1577.734375 C 355.203125 1577.117188 350.050781 1576.574219 344.527344 1576.207031 C 341.765625 1576.027344 338.910156 1575.878906 336.011719 1575.792969 C 334.726562 1575.753906 333.429688 1575.722656 332.132812 1575.699219 C 332.109375 1574.398438 332.078125 1573.105469 332.039062 1571.820312 C 331.953125 1568.921875 331.804688 1566.066406 331.621094 1563.304688 C 331.257812 1557.785156 330.714844 1552.628906 330.097656 1548.210938 C 329.785156 1546 329.460938 1543.976562 329.140625 1542.179688 C 328.816406 1540.386719 328.503906 1538.824219 328.21875 1537.535156 C 328.144531 1537.210938 328.078125 1536.90625 328.015625 1536.621094 C 327.949219 1536.332031 327.882812 1536.0625 327.824219 1535.8125 C 327.707031 1535.3125 327.597656 1534.886719 327.511719 1534.542969 C 327.332031 1533.851562 327.222656 1533.484375 327.222656 1533.484375 C 327.222656 1533.484375 327.113281 1533.851562 326.933594 1534.542969 C 326.84375 1534.886719 326.734375 1535.3125 326.617188 1535.8125 C 326.558594 1536.0625 326.496094 1536.332031 326.429688 1536.621094 C 326.363281 1536.90625 326.296875 1537.210938 326.226562 1537.535156 C 325.9375 1538.824219 325.625 1540.386719 325.304688 1542.179688 C 324.984375 1543.976562 324.65625 1546 324.347656 1548.210938 C 323.726562 1552.628906 323.183594 1557.785156 322.820312 1563.304688 C 322.636719 1566.066406 322.492188 1568.921875 322.402344 1571.820312 C 322.363281 1573.105469 322.335938 1574.402344 322.3125 1575.707031 C 321.011719 1575.726562 319.71875 1575.761719 318.433594 1575.800781 C 315.53125 1575.890625 312.679688 1576.035156 309.917969 1576.21875 C 304.394531 1576.589844 299.238281 1577.132812 294.820312 1577.75 C 292.613281 1578.058594 290.589844 1578.382812 288.792969 1578.703125 C 286.996094 1579.023438 285.433594 1579.332031 284.144531 1579.621094 C 283.824219 1579.691406 283.519531 1579.757812 283.230469 1579.820312 C 282.945312 1579.886719 282.675781 1579.953125 282.425781 1580.011719 C 281.925781 1580.125 281.496094 1580.234375 281.152344 1580.324219 C 280.464844 1580.5 280.09375 1580.609375 280.09375 1580.609375 C 280.09375 1580.609375 280.464844 1580.71875 281.152344 1580.894531 C 281.496094 1580.984375 281.925781 1581.09375 282.425781 1581.210938 C 282.675781 1581.269531 282.945312 1581.332031 283.230469 1581.398438 C 283.519531 1581.464844 283.824219 1581.53125 284.144531 1581.597656 C 285.433594 1581.886719 286.996094 1582.195312 288.792969 1582.515625 C 290.589844 1582.839844 292.613281 1583.164062 294.820312 1583.46875 C 299.238281 1584.089844 304.394531 1584.632812 309.917969 1585 C 312.679688 1585.183594 315.53125 1585.328125 318.433594 1585.421875 C 319.71875 1585.460938 321.015625 1585.492188 322.316406 1585.515625 C 322.339844 1586.816406 322.371094 1588.113281 322.414062 1589.398438 C 322.503906 1592.300781 322.648438 1595.152344 322.832031 1597.914062 C 323.199219 1603.4375 323.742188 1608.59375 324.359375 1613.011719 C 324.667969 1615.21875 324.996094 1617.246094 325.3125 1619.039062 C 325.636719 1620.835938 325.945312 1622.398438 326.230469 1623.6875 C 326.300781 1624.007812 326.367188 1624.3125 326.433594 1624.601562 C 326.5 1624.886719 326.5625 1625.15625 326.621094 1625.40625 C 326.738281 1625.90625 326.847656 1626.332031 326.9375 1626.679688 C 327.113281 1627.371094 327.222656 1627.738281 327.222656 1627.738281 C 327.222656 1627.738281 327.332031 1627.371094 327.507812 1626.679688 C 327.597656 1626.332031 327.707031 1625.90625 327.820312 1625.40625 C 327.878906 1625.15625 327.945312 1624.886719 328.011719 1624.601562 C 328.074219 1624.3125 328.140625 1624.007812 328.210938 1623.6875 C 328.496094 1622.398438 328.808594 1620.835938 329.128906 1619.039062 C 329.449219 1617.246094 329.773438 1615.21875 330.082031 1613.011719 C 330.703125 1608.59375 331.246094 1603.4375 331.609375 1597.914062 C 331.796875 1595.152344 331.941406 1592.300781 332.03125 1589.398438 C 332.070312 1588.117188 332.101562 1586.820312 332.128906 1585.519531 C 333.429688 1585.5 334.726562 1585.46875 336.011719 1585.425781 C 338.910156 1585.339844 341.765625 1585.191406 344.527344 1585.011719 C 350.050781 1584.648438 355.203125 1584.105469 359.621094 1583.484375 C 361.832031 1583.175781 363.855469 1582.847656 365.648438 1582.527344 C 367.445312 1582.207031 369.011719 1581.894531 370.300781 1581.605469 C 370.621094 1581.535156 370.925781 1581.46875 371.214844 1581.40625 C 371.5 1581.335938 371.769531 1581.273438 372.019531 1581.214844 C 372.519531 1581.097656 372.945312 1580.988281 373.289062 1580.898438 C 373.980469 1580.71875 374.347656 1580.609375 374.347656 1580.609375 C 374.347656 1580.609375 373.980469 1580.5 373.289062 1580.324219 "/>
<path style=" stroke:none;fill-rule:nonzero;fill:rgb(28.738403%,36.36322%,63.223267%);fill-opacity:1;" d="M 980.890625 1388.28125 C 980.546875 1388.191406 980.121094 1388.082031 979.621094 1387.964844 C 979.371094 1387.90625 979.101562 1387.84375 978.8125 1387.773438 C 978.527344 1387.710938 978.222656 1387.644531 977.898438 1387.574219 C 976.613281 1387.285156 975.046875 1386.972656 973.25 1386.652344 C 971.457031 1386.332031 969.429688 1386.003906 967.222656 1385.695312 C 962.804688 1385.074219 957.652344 1384.53125 952.125 1384.167969 C 949.367188 1383.984375 946.511719 1383.839844 943.613281 1383.75 C 942.328125 1383.710938 941.03125 1383.679688 939.734375 1383.660156 C 939.710938 1382.359375 939.679688 1381.0625 939.640625 1379.777344 C 939.550781 1376.878906 939.40625 1374.023438 939.222656 1371.265625 C 938.859375 1365.742188 938.316406 1360.585938 937.699219 1356.167969 C 937.386719 1353.960938 937.0625 1351.933594 936.742188 1350.140625 C 936.417969 1348.34375 936.105469 1346.78125 935.820312 1345.492188 C 935.746094 1345.171875 935.679688 1344.863281 935.617188 1344.578125 C 935.550781 1344.292969 935.484375 1344.023438 935.425781 1343.769531 C 935.308594 1343.269531 935.203125 1342.84375 935.113281 1342.5 C 934.933594 1341.808594 934.824219 1341.441406 934.824219 1341.441406 C 934.824219 1341.441406 934.710938 1341.808594 934.535156 1342.5 C 934.445312 1342.84375 934.335938 1343.269531 934.21875 1343.769531 C 934.160156 1344.023438 934.097656 1344.292969 934.03125 1344.578125 C 933.964844 1344.863281 933.898438 1345.171875 933.828125 1345.492188 C 933.539062 1346.78125 933.226562 1348.34375 932.90625 1350.140625 C 932.585938 1351.933594 932.257812 1353.960938 931.949219 1356.167969 C 931.328125 1360.585938 930.785156 1365.742188 930.421875 1371.265625 C 930.238281 1374.023438 930.09375 1376.878906 930.003906 1379.777344 C 929.964844 1381.066406 929.9375 1382.363281 929.914062 1383.664062 C 928.613281 1383.6875 927.320312 1383.71875 926.035156 1383.761719 C 923.132812 1383.851562 920.28125 1383.996094 917.519531 1384.179688 C 911.996094 1384.546875 906.839844 1385.089844 902.421875 1385.707031 C 900.214844 1386.015625 898.191406 1386.34375 896.394531 1386.660156 C 894.597656 1386.980469 893.035156 1387.292969 891.746094 1387.578125 C 891.421875 1387.648438 891.121094 1387.714844 890.832031 1387.78125 C 890.546875 1387.847656 890.277344 1387.910156 890.027344 1387.96875 C 889.527344 1388.085938 889.097656 1388.191406 888.753906 1388.28125 C 888.066406 1388.460938 887.695312 1388.566406 887.695312 1388.566406 C 887.695312 1388.566406 888.066406 1388.679688 888.753906 1388.855469 C 889.097656 1388.945312 889.527344 1389.050781 890.027344 1389.167969 C 890.277344 1389.226562 890.546875 1389.292969 890.832031 1389.359375 C 891.121094 1389.421875 891.421875 1389.488281 891.746094 1389.558594 C 893.035156 1389.84375 894.597656 1390.15625 896.394531 1390.476562 C 898.191406 1390.796875 900.214844 1391.121094 902.421875 1391.429688 C 906.839844 1392.050781 911.996094 1392.589844 917.519531 1392.960938 C 920.28125 1393.144531 923.132812 1393.289062 926.035156 1393.378906 C 927.320312 1393.417969 928.617188 1393.449219 929.917969 1393.472656 C 929.941406 1394.773438 929.972656 1396.074219 930.011719 1397.359375 C 930.105469 1400.257812 930.25 1403.113281 930.433594 1405.875 C 930.800781 1411.394531 931.34375 1416.550781 931.960938 1420.96875 C 932.269531 1423.175781 932.59375 1425.203125 932.914062 1426.996094 C 933.238281 1428.792969 933.546875 1430.355469 933.832031 1431.644531 C 933.902344 1431.96875 933.96875 1432.273438 934.035156 1432.558594 C 934.101562 1432.847656 934.164062 1433.117188 934.222656 1433.367188 C 934.339844 1433.867188 934.449219 1434.292969 934.539062 1434.636719 C 934.714844 1435.328125 934.824219 1435.695312 934.824219 1435.695312 C 934.824219 1435.695312 934.933594 1435.328125 935.109375 1434.636719 C 935.199219 1434.292969 935.304688 1433.867188 935.421875 1433.367188 C 935.480469 1433.117188 935.542969 1432.847656 935.613281 1432.558594 C 935.675781 1432.273438 935.742188 1431.96875 935.8125 1431.644531 C 936.097656 1430.355469 936.410156 1428.792969 936.730469 1426.996094 C 937.050781 1425.203125 937.375 1423.175781 937.683594 1420.96875 C 938.300781 1416.550781 938.84375 1411.394531 939.210938 1405.875 C 939.398438 1403.113281 939.539062 1400.257812 939.632812 1397.359375 C 939.671875 1396.074219 939.703125 1394.777344 939.730469 1393.476562 C 941.03125 1393.457031 942.328125 1393.425781 943.613281 1393.386719 C 946.511719 1393.300781 949.367188 1393.152344 952.125 1392.96875 C 957.652344 1392.605469 962.804688 1392.0625 967.222656 1391.441406 C 969.429688 1391.132812 971.457031 1390.808594 973.25 1390.484375 C 975.046875 1390.164062 976.613281 1389.851562 977.898438 1389.5625 C 978.222656 1389.492188 978.527344 1389.425781 978.8125 1389.363281 C 979.101562 1389.296875 979.371094 1389.230469 979.621094 1389.171875 C 980.121094 1389.054688 980.546875 1388.945312 980.890625 1388.855469 C 981.582031 1388.679688 981.949219 1388.566406 981.949219 1388.566406 C 981.949219 1388.566406 981.582031 1388.457031 980.890625 1388.28125 "/>
<path style=" stroke:none;fill-rule:nonzero;fill:rgb(28.738403%,36.36322%,63.223267%);fill-opacity:1;" d="M 818.910156 1871.40625 C 818.566406 1871.316406 818.140625 1871.210938 817.640625 1871.09375 C 817.390625 1871.03125 817.121094 1870.96875 816.835938 1870.902344 C 816.546875 1870.839844 816.242188 1870.769531 815.921875 1870.699219 C 814.632812 1870.414062 813.066406 1870.101562 811.273438 1869.777344 C 809.476562 1869.457031 807.453125 1869.132812 805.242188 1868.820312 C 800.824219 1868.203125 795.671875 1867.65625 790.148438 1867.292969 C 787.386719 1867.113281 784.53125 1866.964844 781.632812 1866.878906 C 780.347656 1866.839844 779.054688 1866.808594 777.753906 1866.785156 C 777.730469 1865.484375 777.699219 1864.191406 777.660156 1862.90625 C 777.574219 1860.007812 777.429688 1857.152344 777.246094 1854.390625 C 776.882812 1848.867188 776.339844 1843.714844 775.71875 1839.296875 C 775.40625 1837.085938 775.082031 1835.0625 774.761719 1833.265625 C 774.4375 1831.472656 774.128906 1829.90625 773.839844 1828.621094 C 773.769531 1828.296875 773.699219 1827.992188 773.636719 1827.707031 C 773.570312 1827.417969 773.507812 1827.148438 773.445312 1826.898438 C 773.332031 1826.398438 773.222656 1825.972656 773.132812 1825.628906 C 772.953125 1824.9375 772.84375 1824.570312 772.84375 1824.570312 C 772.84375 1824.570312 772.734375 1824.9375 772.554688 1825.628906 C 772.464844 1825.972656 772.355469 1826.398438 772.238281 1826.898438 C 772.179688 1827.148438 772.117188 1827.417969 772.050781 1827.707031 C 771.984375 1827.992188 771.917969 1828.296875 771.847656 1828.621094 C 771.558594 1829.90625 771.25 1831.472656 770.925781 1833.265625 C 770.605469 1835.0625 770.277344 1837.085938 769.96875 1839.296875 C 769.347656 1843.714844 768.804688 1848.867188 768.441406 1854.390625 C 768.261719 1857.152344 768.113281 1860.007812 768.023438 1862.90625 C 767.984375 1864.191406 767.957031 1865.488281 767.933594 1866.792969 C 766.632812 1866.8125 765.339844 1866.847656 764.054688 1866.886719 C 761.152344 1866.976562 758.300781 1867.121094 755.539062 1867.304688 C 750.015625 1867.671875 744.863281 1868.214844 740.441406 1868.835938 C 738.234375 1869.144531 736.210938 1869.46875 734.414062 1869.789062 C 732.621094 1870.109375 731.054688 1870.417969 729.765625 1870.707031 C 729.445312 1870.777344 729.140625 1870.84375 728.851562 1870.90625 C 728.566406 1870.972656 728.296875 1871.039062 728.046875 1871.097656 C 727.546875 1871.210938 727.121094 1871.320312 726.773438 1871.410156 C 726.085938 1871.585938 725.71875 1871.695312 725.71875 1871.695312 C 725.71875 1871.695312 726.085938 1871.804688 726.773438 1871.980469 C 727.121094 1872.070312 727.546875 1872.179688 728.046875 1872.296875 C 728.296875 1872.355469 728.566406 1872.417969 728.851562 1872.484375 C 729.140625 1872.546875 729.445312 1872.613281 729.765625 1872.6875 C 731.054688 1872.972656 732.621094 1873.28125 734.414062 1873.601562 C 736.210938 1873.921875 738.234375 1874.25 740.441406 1874.554688 C 744.863281 1875.175781 750.015625 1875.71875 755.539062 1876.085938 C 758.300781 1876.269531 761.152344 1876.414062 764.054688 1876.503906 C 765.339844 1876.546875 766.636719 1876.578125 767.9375 1876.601562 C 767.960938 1877.902344 767.992188 1879.199219 768.035156 1880.484375 C 768.125 1883.386719 768.269531 1886.238281 768.453125 1889 C 768.820312 1894.523438 769.363281 1899.679688 769.980469 1904.097656 C 770.292969 1906.304688 770.617188 1908.328125 770.9375 1910.125 C 771.257812 1911.917969 771.566406 1913.484375 771.851562 1914.773438 C 771.925781 1915.09375 771.992188 1915.398438 772.054688 1915.6875 C 772.121094 1915.972656 772.183594 1916.242188 772.242188 1916.492188 C 772.359375 1916.992188 772.46875 1917.417969 772.558594 1917.765625 C 772.734375 1918.453125 772.84375 1918.820312 772.84375 1918.820312 C 772.84375 1918.820312 772.953125 1918.453125 773.128906 1917.765625 C 773.21875 1917.417969 773.328125 1916.992188 773.441406 1916.492188 C 773.503906 1916.242188 773.566406 1915.972656 773.632812 1915.6875 C 773.695312 1915.398438 773.761719 1915.09375 773.835938 1914.773438 C 774.121094 1913.484375 774.429688 1911.917969 774.75 1910.125 C 775.070312 1908.328125 775.394531 1906.304688 775.703125 1904.097656 C 776.324219 1899.679688 776.867188 1894.523438 777.234375 1889 C 777.417969 1886.238281 777.5625 1883.386719 777.652344 1880.484375 C 777.691406 1879.199219 777.722656 1877.90625 777.75 1876.605469 C 779.050781 1876.582031 780.347656 1876.554688 781.632812 1876.511719 C 784.53125 1876.425781 787.386719 1876.277344 790.148438 1876.097656 C 795.671875 1875.734375 800.824219 1875.191406 805.242188 1874.570312 C 807.453125 1874.261719 809.476562 1873.933594 811.273438 1873.613281 C 813.066406 1873.292969 814.632812 1872.980469 815.921875 1872.691406 C 816.242188 1872.621094 816.546875 1872.554688 816.835938 1872.488281 C 817.121094 1872.421875 817.390625 1872.359375 817.640625 1872.300781 C 818.140625 1872.183594 818.566406 1872.074219 818.910156 1871.984375 C 819.601562 1871.804688 819.972656 1871.695312 819.972656 1871.695312 C 819.972656 1871.695312 819.601562 1871.585938 818.910156 1871.40625 "/>
<path style=" stroke:none;fill-rule:nonzero;fill:rgb(28.738403%,36.36322%,63.223267%);fill-opacity:1;" d="M 1097.226562 853.839844 C 1096.878906 853.746094 1096.453125 853.640625 1095.953125 853.523438 C 1095.703125 853.464844 1095.433594 853.398438 1095.148438 853.332031 C 1094.863281 853.269531 1094.554688 853.199219 1094.234375 853.128906 C 1092.945312 852.84375 1091.378906 852.53125 1089.585938 852.207031 C 1087.789062 851.886719 1085.765625 851.5625 1083.554688 851.25 C 1079.136719 850.632812 1073.984375 850.089844 1068.460938 849.722656 C 1065.699219 849.542969 1062.847656 849.394531 1059.949219 849.308594 C 1058.664062 849.269531 1057.367188 849.238281 1056.066406 849.214844 C 1056.042969 847.914062 1056.015625 846.621094 1055.972656 845.335938 C 1055.886719 842.4375 1055.742188 839.582031 1055.558594 836.820312 C 1055.195312 831.296875 1054.652344 826.144531 1054.03125 821.726562 C 1053.722656 819.515625 1053.394531 817.492188 1053.074219 815.695312 C 1052.75 813.902344 1052.441406 812.335938 1052.152344 811.050781 C 1052.082031 810.726562 1052.015625 810.421875 1051.953125 810.136719 C 1051.882812 809.847656 1051.820312 809.578125 1051.761719 809.328125 C 1051.644531 808.828125 1051.535156 808.402344 1051.445312 808.058594 C 1051.269531 807.367188 1051.15625 807 1051.15625 807 C 1051.15625 807 1051.046875 807.367188 1050.871094 808.058594 C 1050.78125 808.402344 1050.671875 808.828125 1050.554688 809.328125 C 1050.496094 809.578125 1050.429688 809.847656 1050.363281 810.136719 C 1050.300781 810.421875 1050.234375 810.726562 1050.160156 811.050781 C 1049.871094 812.335938 1049.5625 813.902344 1049.238281 815.695312 C 1048.917969 817.492188 1048.589844 819.515625 1048.28125 821.726562 C 1047.664062 826.144531 1047.121094 831.296875 1046.753906 836.820312 C 1046.574219 839.582031 1046.425781 842.4375 1046.339844 845.335938 C 1046.296875 846.621094 1046.269531 847.917969 1046.246094 849.222656 C 1044.949219 849.242188 1043.652344 849.277344 1042.367188 849.316406 C 1039.46875 849.40625 1036.613281 849.550781 1033.851562 849.734375 C 1028.328125 850.101562 1023.175781 850.644531 1018.757812 851.265625 C 1016.546875 851.574219 1014.523438 851.898438 1012.730469 852.21875 C 1010.933594 852.539062 1009.367188 852.847656 1008.078125 853.136719 C 1007.757812 853.207031 1007.453125 853.273438 1007.164062 853.335938 C 1006.878906 853.402344 1006.609375 853.46875 1006.359375 853.527344 C 1005.859375 853.640625 1005.433594 853.75 1005.089844 853.839844 C 1004.398438 854.015625 1004.03125 854.125 1004.03125 854.125 C 1004.03125 854.125 1004.398438 854.234375 1005.089844 854.410156 C 1005.433594 854.5 1005.859375 854.609375 1006.359375 854.726562 C 1006.609375 854.785156 1006.878906 854.847656 1007.164062 854.914062 C 1007.453125 854.976562 1007.757812 855.042969 1008.078125 855.117188 C 1009.367188 855.402344 1010.933594 855.710938 1012.730469 856.03125 C 1014.523438 856.351562 1016.546875 856.679688 1018.757812 856.984375 C 1023.175781 857.605469 1028.328125 858.148438 1033.851562 858.515625 C 1036.613281 858.699219 1039.46875 858.84375 1042.367188 858.933594 C 1043.65625 858.976562 1044.949219 859.007812 1046.25 859.03125 C 1046.277344 860.332031 1046.304688 861.628906 1046.347656 862.914062 C 1046.4375 865.816406 1046.582031 868.667969 1046.769531 871.429688 C 1047.132812 876.953125 1047.675781 882.109375 1048.296875 886.527344 C 1048.605469 888.734375 1048.929688 890.757812 1049.25 892.554688 C 1049.570312 894.347656 1049.878906 895.914062 1050.167969 897.203125 C 1050.238281 897.523438 1050.304688 897.828125 1050.367188 898.117188 C 1050.433594 898.402344 1050.496094 898.671875 1050.558594 898.921875 C 1050.671875 899.421875 1050.78125 899.847656 1050.871094 900.195312 C 1051.046875 900.882812 1051.15625 901.25 1051.15625 901.25 C 1051.15625 901.25 1051.265625 900.882812 1051.445312 900.195312 C 1051.53125 899.847656 1051.640625 899.421875 1051.757812 898.921875 C 1051.816406 898.671875 1051.878906 898.402344 1051.945312 898.117188 C 1052.007812 897.828125 1052.078125 897.523438 1052.148438 897.203125 C 1052.433594 895.914062 1052.742188 894.347656 1053.066406 892.554688 C 1053.382812 890.757812 1053.710938 888.734375 1054.019531 886.527344 C 1054.636719 882.109375 1055.179688 876.953125 1055.546875 871.429688 C 1055.730469 868.667969 1055.875 865.816406 1055.964844 862.914062 C 1056.007812 861.628906 1056.039062 860.335938 1056.0625 859.035156 C 1057.363281 859.011719 1058.660156 858.984375 1059.949219 858.941406 C 1062.847656 858.855469 1065.699219 858.707031 1068.460938 858.527344 C 1073.984375 858.164062 1079.136719 857.621094 1083.554688 857 C 1085.765625 856.691406 1087.789062 856.363281 1089.585938 856.042969 C 1091.378906 855.722656 1092.945312 855.410156 1094.234375 855.121094 C 1094.554688 855.050781 1094.863281 854.984375 1095.148438 854.917969 C 1095.433594 854.851562 1095.703125 854.789062 1095.953125 854.730469 C 1096.453125 854.613281 1096.878906 854.503906 1097.226562 854.414062 C 1097.914062 854.234375 1098.285156 854.125 1098.285156 854.125 C 1098.285156 854.125 1097.914062 854.015625 1097.226562 853.839844 "/>
<path style=" stroke:none;fill-rule:nonzero;fill:rgb(28.738403%,36.36322%,63.223267%);fill-opacity:1;" d="M 499.511719 1119.40625 C 499.164062 1119.316406 498.738281 1119.210938 498.238281 1119.09375 C 497.988281 1119.03125 497.71875 1118.96875 497.433594 1118.902344 C 497.144531 1118.839844 496.839844 1118.769531 496.519531 1118.699219 C 495.230469 1118.414062 493.664062 1118.101562 491.871094 1117.777344 C 490.074219 1117.457031 488.050781 1117.132812 485.839844 1116.820312 C 481.421875 1116.203125 476.269531 1115.65625 470.746094 1115.292969 C 467.984375 1115.113281 465.128906 1114.964844 462.230469 1114.878906 C 460.945312 1114.839844 459.652344 1114.808594 458.351562 1114.785156 C 458.328125 1113.484375 458.296875 1112.191406 458.257812 1110.90625 C 458.171875 1108.007812 458.027344 1105.152344 457.84375 1102.390625 C 457.480469 1096.867188 456.9375 1091.714844 456.316406 1087.296875 C 456.003906 1085.085938 455.679688 1083.0625 455.359375 1081.265625 C 455.035156 1079.472656 454.726562 1077.90625 454.4375 1076.621094 C 454.367188 1076.296875 454.296875 1075.992188 454.234375 1075.707031 C 454.167969 1075.417969 454.105469 1075.148438 454.042969 1074.898438 C 453.929688 1074.398438 453.820312 1073.972656 453.730469 1073.628906 C 453.550781 1072.9375 453.441406 1072.570312 453.441406 1072.570312 C 453.441406 1072.570312 453.332031 1072.9375 453.152344 1073.628906 C 453.0625 1073.972656 452.953125 1074.398438 452.835938 1074.898438 C 452.777344 1075.148438 452.714844 1075.417969 452.648438 1075.707031 C 452.582031 1075.992188 452.515625 1076.296875 452.445312 1076.621094 C 452.15625 1077.90625 451.847656 1079.472656 451.523438 1081.265625 C 451.203125 1083.0625 450.875 1085.085938 450.566406 1087.296875 C 449.945312 1091.714844 449.402344 1096.867188 449.039062 1102.390625 C 448.859375 1105.152344 448.710938 1108.007812 448.621094 1110.90625 C 448.582031 1112.191406 448.554688 1113.488281 448.53125 1114.792969 C 447.230469 1114.8125 445.9375 1114.847656 444.652344 1114.886719 C 441.75 1114.976562 438.898438 1115.121094 436.136719 1115.304688 C 430.613281 1115.671875 425.460938 1116.214844 421.039062 1116.835938 C 418.832031 1117.144531 416.808594 1117.46875 415.011719 1117.789062 C 413.21875 1118.109375 411.652344 1118.417969 410.363281 1118.707031 C 410.042969 1118.777344 409.738281 1118.84375 409.449219 1118.90625 C 409.164062 1118.972656 408.894531 1119.039062 408.644531 1119.097656 C 408.144531 1119.210938 407.71875 1119.320312 407.371094 1119.410156 C 406.683594 1119.585938 406.316406 1119.695312 406.316406 1119.695312 C 406.316406 1119.695312 406.683594 1119.804688 407.371094 1119.980469 C 407.71875 1120.070312 408.144531 1120.179688 408.644531 1120.296875 C 408.894531 1120.355469 409.164062 1120.417969 409.449219 1120.484375 C 409.738281 1120.546875 410.042969 1120.613281 410.363281 1120.6875 C 411.652344 1120.972656 413.21875 1121.28125 415.011719 1121.601562 C 416.808594 1121.921875 418.832031 1122.25 421.039062 1122.554688 C 425.460938 1123.175781 430.613281 1123.71875 436.136719 1124.085938 C 438.898438 1124.269531 441.75 1124.414062 444.652344 1124.503906 C 445.9375 1124.546875 447.234375 1124.578125 448.535156 1124.601562 C 448.558594 1125.902344 448.589844 1127.199219 448.632812 1128.484375 C 448.722656 1131.386719 448.867188 1134.238281 449.050781 1137 C 449.417969 1142.523438 449.960938 1147.679688 450.578125 1152.097656 C 450.890625 1154.304688 451.214844 1156.328125 451.535156 1158.125 C 451.855469 1159.917969 452.164062 1161.484375 452.449219 1162.773438 C 452.523438 1163.09375 452.589844 1163.398438 452.652344 1163.6875 C 452.71875 1163.972656 452.78125 1164.242188 452.84375 1164.492188 C 452.957031 1164.992188 453.066406 1165.417969 453.15625 1165.765625 C 453.332031 1166.453125 453.441406 1166.820312 453.441406 1166.820312 C 453.441406 1166.820312 453.550781 1166.453125 453.726562 1165.765625 C 453.816406 1165.417969 453.925781 1164.992188 454.039062 1164.492188 C 454.101562 1164.242188 454.164062 1163.972656 454.230469 1163.6875 C 454.292969 1163.398438 454.359375 1163.09375 454.433594 1162.773438 C 454.71875 1161.484375 455.027344 1159.917969 455.347656 1158.125 C 455.667969 1156.328125 455.992188 1154.304688 456.300781 1152.097656 C 456.921875 1147.679688 457.464844 1142.523438 457.832031 1137 C 458.015625 1134.238281 458.160156 1131.386719 458.25 1128.484375 C 458.289062 1127.199219 458.320312 1125.90625 458.347656 1124.605469 C 459.648438 1124.582031 460.945312 1124.554688 462.230469 1124.511719 C 465.128906 1124.425781 467.984375 1124.277344 470.746094 1124.097656 C 476.269531 1123.734375 481.421875 1123.191406 485.839844 1122.570312 C 488.050781 1122.261719 490.074219 1121.933594 491.871094 1121.613281 C 493.664062 1121.292969 495.230469 1120.980469 496.519531 1120.691406 C 496.839844 1120.621094 497.144531 1120.554688 497.433594 1120.488281 C 497.71875 1120.421875 497.988281 1120.359375 498.238281 1120.300781 C 498.738281 1120.183594 499.164062 1120.074219 499.511719 1119.984375 C 500.199219 1119.804688 500.570312 1119.695312 500.570312 1119.695312 C 500.570312 1119.695312 500.199219 1119.585938 499.511719 1119.40625 "/>
<path style=" stroke:none;fill-rule:nonzero;fill:rgb(28.738403%,36.36322%,63.223267%);fill-opacity:1;" d="M 1806.679688 1435.40625 C 1806.332031 1435.316406 1805.90625 1435.210938 1805.40625 1435.09375 C 1805.15625 1435.03125 1804.886719 1434.96875 1804.601562 1434.902344 C 1804.316406 1434.839844 1804.007812 1434.769531 1803.6875 1434.699219 C 1802.398438 1434.414062 1800.832031 1434.101562 1799.039062 1433.777344 C 1797.242188 1433.457031 1795.21875 1433.132812 1793.007812 1432.820312 C 1788.589844 1432.203125 1783.4375 1431.65625 1777.914062 1431.292969 C 1775.152344 1431.113281 1772.300781 1430.964844 1769.402344 1430.878906 C 1768.117188 1430.839844 1766.820312 1430.808594 1765.519531 1430.785156 C 1765.496094 1429.484375 1765.46875 1428.191406 1765.425781 1426.90625 C 1765.339844 1424.007812 1765.195312 1421.152344 1765.011719 1418.390625 C 1764.648438 1412.867188 1764.105469 1407.714844 1763.484375 1403.296875 C 1763.175781 1401.085938 1762.847656 1399.0625 1762.527344 1397.265625 C 1762.203125 1395.472656 1761.894531 1393.90625 1761.605469 1392.621094 C 1761.535156 1392.296875 1761.46875 1391.992188 1761.40625 1391.707031 C 1761.335938 1391.417969 1761.273438 1391.148438 1761.214844 1390.898438 C 1761.097656 1390.398438 1760.988281 1389.972656 1760.898438 1389.628906 C 1760.71875 1388.9375 1760.609375 1388.570312 1760.609375 1388.570312 C 1760.609375 1388.570312 1760.5 1388.9375 1760.324219 1389.628906 C 1760.234375 1389.972656 1760.125 1390.398438 1760.007812 1390.898438 C 1759.949219 1391.148438 1759.882812 1391.417969 1759.816406 1391.707031 C 1759.753906 1391.992188 1759.6875 1392.296875 1759.613281 1392.621094 C 1759.324219 1393.90625 1759.015625 1395.472656 1758.691406 1397.265625 C 1758.371094 1399.0625 1758.042969 1401.085938 1757.734375 1403.296875 C 1757.117188 1407.714844 1756.574219 1412.867188 1756.207031 1418.390625 C 1756.027344 1421.152344 1755.878906 1424.007812 1755.792969 1426.90625 C 1755.75 1428.191406 1755.722656 1429.488281 1755.699219 1430.792969 C 1754.402344 1430.8125 1753.105469 1430.847656 1751.820312 1430.886719 C 1748.921875 1430.976562 1746.066406 1431.121094 1743.304688 1431.304688 C 1737.78125 1431.671875 1732.628906 1432.214844 1728.210938 1432.835938 C 1726 1433.144531 1723.976562 1433.46875 1722.183594 1433.789062 C 1720.386719 1434.109375 1718.820312 1434.417969 1717.53125 1434.707031 C 1717.210938 1434.777344 1716.90625 1434.84375 1716.617188 1434.90625 C 1716.332031 1434.972656 1716.0625 1435.039062 1715.8125 1435.097656 C 1715.3125 1435.210938 1714.886719 1435.320312 1714.542969 1435.410156 C 1713.851562 1435.585938 1713.484375 1435.695312 1713.484375 1435.695312 C 1713.484375 1435.695312 1713.851562 1435.804688 1714.542969 1435.980469 C 1714.886719 1436.070312 1715.3125 1436.179688 1715.8125 1436.296875 C 1716.0625 1436.355469 1716.332031 1436.417969 1716.617188 1436.484375 C 1716.90625 1436.546875 1717.210938 1436.613281 1717.53125 1436.6875 C 1718.820312 1436.972656 1720.386719 1437.28125 1722.183594 1437.601562 C 1723.976562 1437.921875 1726 1438.25 1728.210938 1438.554688 C 1732.628906 1439.175781 1737.78125 1439.71875 1743.304688 1440.085938 C 1746.066406 1440.269531 1748.921875 1440.414062 1751.820312 1440.503906 C 1753.109375 1440.546875 1754.402344 1440.578125 1755.703125 1440.601562 C 1755.730469 1441.902344 1755.757812 1443.199219 1755.800781 1444.484375 C 1755.890625 1447.386719 1756.035156 1450.238281 1756.21875 1453 C 1756.585938 1458.523438 1757.128906 1463.679688 1757.75 1468.097656 C 1758.058594 1470.304688 1758.382812 1472.328125 1758.703125 1474.125 C 1759.023438 1475.917969 1759.332031 1477.484375 1759.621094 1478.773438 C 1759.691406 1479.09375 1759.757812 1479.398438 1759.820312 1479.6875 C 1759.886719 1479.972656 1759.949219 1480.242188 1760.011719 1480.492188 C 1760.125 1480.992188 1760.234375 1481.417969 1760.324219 1481.765625 C 1760.5 1482.453125 1760.609375 1482.820312 1760.609375 1482.820312 C 1760.609375 1482.820312 1760.71875 1482.453125 1760.898438 1481.765625 C 1760.984375 1481.417969 1761.09375 1480.992188 1761.210938 1480.492188 C 1761.269531 1480.242188 1761.332031 1479.972656 1761.398438 1479.6875 C 1761.460938 1479.398438 1761.53125 1479.09375 1761.601562 1478.773438 C 1761.886719 1477.484375 1762.195312 1475.917969 1762.519531 1474.125 C 1762.835938 1472.328125 1763.164062 1470.304688 1763.46875 1468.097656 C 1764.089844 1463.679688 1764.632812 1458.523438 1765 1453 C 1765.183594 1450.238281 1765.328125 1447.386719 1765.417969 1444.484375 C 1765.460938 1443.199219 1765.492188 1441.90625 1765.515625 1440.605469 C 1766.816406 1440.582031 1768.113281 1440.554688 1769.402344 1440.511719 C 1772.300781 1440.425781 1775.152344 1440.277344 1777.914062 1440.097656 C 1783.4375 1439.734375 1788.589844 1439.191406 1793.007812 1438.570312 C 1795.21875 1438.261719 1797.242188 1437.933594 1799.039062 1437.613281 C 1800.832031 1437.292969 1802.398438 1436.980469 1803.6875 1436.691406 C 1804.007812 1436.621094 1804.316406 1436.554688 1804.601562 1436.488281 C 1804.886719 1436.421875 1805.15625 1436.359375 1805.40625 1436.300781 C 1805.90625 1436.183594 1806.332031 1436.074219 1806.679688 1435.984375 C 1807.367188 1435.804688 1807.738281 1435.695312 1807.738281 1435.695312 C 1807.738281 1435.695312 1807.367188 1435.585938 1806.679688 1435.40625 "/>
<path style=" stroke:none;fill-rule:nonzero;fill:rgb(28.738403%,36.36322%,63.223267%);fill-opacity:1;" d="M 1370.15625 1645.621094 C 1369.8125 1645.53125 1369.386719 1645.425781 1368.886719 1645.308594 C 1368.636719 1645.246094 1368.367188 1645.183594 1368.082031 1645.117188 C 1367.796875 1645.054688 1367.488281 1644.984375 1367.167969 1644.914062 C 1365.878906 1644.628906 1364.3125 1644.316406 1362.519531 1643.992188 C 1360.722656 1643.671875 1358.699219 1643.34375 1356.488281 1643.035156 C 1352.070312 1642.414062 1346.917969 1641.871094 1341.394531 1641.507812 C 1338.632812 1641.324219 1335.78125 1641.179688 1332.882812 1641.09375 C 1331.59375 1641.050781 1330.300781 1641.023438 1329 1641 C 1328.976562 1639.699219 1328.949219 1638.40625 1328.90625 1637.121094 C 1328.820312 1634.222656 1328.675781 1631.367188 1328.492188 1628.605469 C 1328.128906 1623.082031 1327.585938 1617.929688 1326.964844 1613.511719 C 1326.65625 1611.300781 1326.328125 1609.277344 1326.007812 1607.480469 C 1325.683594 1605.6875 1325.375 1604.121094 1325.085938 1602.832031 C 1325.015625 1602.511719 1324.945312 1602.207031 1324.886719 1601.917969 C 1324.816406 1601.632812 1324.753906 1601.363281 1324.691406 1601.113281 C 1324.578125 1600.613281 1324.46875 1600.1875 1324.378906 1599.84375 C 1324.203125 1599.152344 1324.089844 1598.78125 1324.089844 1598.78125 C 1324.089844 1598.78125 1323.980469 1599.152344 1323.804688 1599.84375 C 1323.714844 1600.1875 1323.601562 1600.613281 1323.488281 1601.113281 C 1323.429688 1601.363281 1323.363281 1601.632812 1323.296875 1601.917969 C 1323.230469 1602.207031 1323.167969 1602.511719 1323.09375 1602.832031 C 1322.804688 1604.121094 1322.496094 1605.6875 1322.171875 1607.480469 C 1321.851562 1609.277344 1321.523438 1611.300781 1321.21875 1613.511719 C 1320.59375 1617.929688 1320.054688 1623.082031 1319.6875 1628.605469 C 1319.507812 1631.367188 1319.359375 1634.222656 1319.273438 1637.121094 C 1319.230469 1638.40625 1319.203125 1639.703125 1319.179688 1641.003906 C 1317.882812 1641.027344 1316.585938 1641.058594 1315.300781 1641.101562 C 1312.398438 1641.191406 1309.546875 1641.335938 1306.785156 1641.519531 C 1301.261719 1641.886719 1296.109375 1642.429688 1291.691406 1643.050781 C 1289.480469 1643.355469 1287.457031 1643.683594 1285.664062 1644.003906 C 1283.867188 1644.324219 1282.304688 1644.632812 1281.011719 1644.921875 C 1280.691406 1644.988281 1280.386719 1645.058594 1280.097656 1645.121094 C 1279.8125 1645.1875 1279.542969 1645.25 1279.292969 1645.308594 C 1278.792969 1645.425781 1278.367188 1645.535156 1278.019531 1645.625 C 1277.332031 1645.800781 1276.964844 1645.910156 1276.964844 1645.910156 C 1276.964844 1645.910156 1277.332031 1646.019531 1278.019531 1646.195312 C 1278.367188 1646.285156 1278.792969 1646.394531 1279.292969 1646.511719 C 1279.542969 1646.566406 1279.8125 1646.632812 1280.097656 1646.699219 C 1280.386719 1646.761719 1280.691406 1646.828125 1281.011719 1646.898438 C 1282.304688 1647.1875 1283.867188 1647.496094 1285.664062 1647.816406 C 1287.457031 1648.136719 1289.480469 1648.464844 1291.691406 1648.769531 C 1296.109375 1649.390625 1301.261719 1649.933594 1306.785156 1650.300781 C 1309.546875 1650.484375 1312.398438 1650.628906 1315.300781 1650.71875 C 1316.589844 1650.761719 1317.882812 1650.792969 1319.183594 1650.816406 C 1319.210938 1652.117188 1319.238281 1653.414062 1319.28125 1654.699219 C 1319.371094 1657.601562 1319.515625 1660.453125 1319.703125 1663.214844 C 1320.066406 1668.738281 1320.609375 1673.890625 1321.230469 1678.308594 C 1321.539062 1680.519531 1321.863281 1682.542969 1322.183594 1684.339844 C 1322.503906 1686.132812 1322.8125 1687.699219 1323.101562 1688.988281 C 1323.171875 1689.308594 1323.238281 1689.613281 1323.300781 1689.902344 C 1323.367188 1690.1875 1323.429688 1690.457031 1323.488281 1690.707031 C 1323.605469 1691.207031 1323.714844 1691.632812 1323.804688 1691.976562 C 1323.980469 1692.667969 1324.089844 1693.035156 1324.089844 1693.035156 C 1324.089844 1693.035156 1324.199219 1692.667969 1324.378906 1691.976562 C 1324.464844 1691.632812 1324.574219 1691.207031 1324.6875 1690.707031 C 1324.75 1690.457031 1324.8125 1690.1875 1324.878906 1689.902344 C 1324.941406 1689.613281 1325.011719 1689.308594 1325.082031 1688.988281 C 1325.367188 1687.699219 1325.675781 1686.132812 1326 1684.339844 C 1326.316406 1682.542969 1326.640625 1680.519531 1326.953125 1678.308594 C 1327.570312 1673.890625 1328.113281 1668.738281 1328.480469 1663.214844 C 1328.664062 1660.453125 1328.808594 1657.601562 1328.898438 1654.699219 C 1328.941406 1653.414062 1328.972656 1652.117188 1328.996094 1650.820312 C 1330.296875 1650.796875 1331.59375 1650.769531 1332.882812 1650.726562 C 1335.78125 1650.640625 1338.632812 1650.492188 1341.394531 1650.3125 C 1346.917969 1649.945312 1352.070312 1649.402344 1356.488281 1648.785156 C 1358.699219 1648.476562 1360.722656 1648.148438 1362.519531 1647.828125 C 1364.3125 1647.503906 1365.878906 1647.191406 1367.167969 1646.90625 C 1367.488281 1646.835938 1367.796875 1646.769531 1368.082031 1646.703125 C 1368.367188 1646.636719 1368.636719 1646.570312 1368.886719 1646.515625 C 1369.386719 1646.394531 1369.8125 1646.285156 1370.15625 1646.199219 C 1370.847656 1646.019531 1371.21875 1645.910156 1371.21875 1645.910156 C 1371.21875 1645.910156 1370.847656 1645.800781 1370.15625 1645.621094 "/>
<path style=" stroke:none;fill-rule:nonzero;fill:rgb(28.738403%,36.36322%,63.223267%);fill-opacity:1;" d="M 1836.371094 832.046875 C 1836.027344 831.957031 1835.601562 831.847656 1835.101562 831.734375 C 1834.851562 831.671875 1834.582031 831.609375 1834.296875 831.542969 C 1834.007812 831.480469 1833.703125 831.410156 1833.382812 831.339844 C 1832.09375 831.050781 1830.527344 830.742188 1828.734375 830.417969 C 1826.9375 830.097656 1824.914062 829.769531 1822.703125 829.460938 C 1818.285156 828.839844 1813.132812 828.296875 1807.609375 827.933594 C 1804.847656 827.75 1801.992188 827.605469 1799.09375 827.519531 C 1797.808594 827.476562 1796.515625 827.449219 1795.214844 827.425781 C 1795.191406 826.125 1795.164062 824.832031 1795.121094 823.546875 C 1795.035156 820.644531 1794.890625 817.792969 1794.707031 815.03125 C 1794.34375 809.507812 1793.800781 804.355469 1793.179688 799.9375 C 1792.867188 797.726562 1792.542969 795.703125 1792.222656 793.90625 C 1791.898438 792.113281 1791.589844 790.546875 1791.300781 789.257812 C 1791.230469 788.9375 1791.160156 788.632812 1791.097656 788.34375 C 1791.03125 788.058594 1790.96875 787.789062 1790.90625 787.539062 C 1790.789062 787.039062 1790.683594 786.613281 1790.59375 786.265625 C 1790.414062 785.578125 1790.304688 785.207031 1790.304688 785.207031 C 1790.304688 785.207031 1790.195312 785.578125 1790.015625 786.265625 C 1789.925781 786.613281 1789.816406 787.039062 1789.699219 787.539062 C 1789.640625 787.789062 1789.578125 788.058594 1789.511719 788.34375 C 1789.445312 788.632812 1789.378906 788.9375 1789.308594 789.257812 C 1789.019531 790.546875 1788.710938 792.113281 1788.386719 793.90625 C 1788.066406 795.703125 1787.738281 797.726562 1787.429688 799.9375 C 1786.808594 804.355469 1786.265625 809.507812 1785.902344 815.03125 C 1785.722656 817.792969 1785.574219 820.644531 1785.484375 823.546875 C 1785.445312 824.832031 1785.417969 826.128906 1785.394531 827.429688 C 1784.09375 827.453125 1782.800781 827.484375 1781.515625 827.527344 C 1778.613281 827.617188 1775.761719 827.761719 1773 827.945312 C 1767.476562 828.3125 1762.324219 828.855469 1757.90625 829.476562 C 1755.695312 829.78125 1753.671875 830.109375 1751.875 830.429688 C 1750.082031 830.75 1748.515625 831.058594 1747.226562 831.347656 C 1746.90625 831.414062 1746.601562 831.484375 1746.3125 831.546875 C 1746.027344 831.613281 1745.757812 831.675781 1745.507812 831.734375 C 1745.007812 831.851562 1744.582031 831.960938 1744.234375 832.050781 C 1743.546875 832.226562 1743.179688 832.335938 1743.179688 832.335938 C 1743.179688 832.335938 1743.546875 832.445312 1744.234375 832.621094 C 1744.582031 832.710938 1745.007812 832.820312 1745.507812 832.9375 C 1745.757812 832.992188 1746.027344 833.058594 1746.3125 833.125 C 1746.601562 833.1875 1746.90625 833.257812 1747.226562 833.324219 C 1748.515625 833.613281 1750.082031 833.921875 1751.875 834.242188 C 1753.671875 834.5625 1755.695312 834.890625 1757.90625 835.195312 C 1762.324219 835.816406 1767.476562 836.359375 1773 836.726562 C 1775.761719 836.910156 1778.613281 837.054688 1781.515625 837.144531 C 1782.800781 837.1875 1784.097656 837.21875 1785.398438 837.242188 C 1785.421875 838.542969 1785.453125 839.839844 1785.496094 841.125 C 1785.585938 844.027344 1785.730469 846.878906 1785.914062 849.640625 C 1786.28125 855.164062 1786.824219 860.316406 1787.441406 864.734375 C 1787.753906 866.945312 1788.078125 868.96875 1788.394531 870.765625 C 1788.71875 872.558594 1789.027344 874.125 1789.3125 875.414062 C 1789.386719 875.734375 1789.453125 876.039062 1789.515625 876.328125 C 1789.582031 876.613281 1789.644531 876.882812 1789.703125 877.132812 C 1789.820312 877.632812 1789.929688 878.058594 1790.019531 878.402344 C 1790.195312 879.09375 1790.304688 879.464844 1790.304688 879.464844 C 1790.304688 879.464844 1790.414062 879.09375 1790.589844 878.402344 C 1790.679688 878.058594 1790.789062 877.632812 1790.902344 877.132812 C 1790.964844 876.882812 1791.027344 876.613281 1791.09375 876.328125 C 1791.15625 876.039062 1791.222656 875.734375 1791.296875 875.414062 C 1791.582031 874.125 1791.890625 872.558594 1792.210938 870.765625 C 1792.53125 868.96875 1792.855469 866.945312 1793.164062 864.734375 C 1793.785156 860.316406 1794.328125 855.164062 1794.695312 849.640625 C 1794.878906 846.878906 1795.023438 844.027344 1795.113281 841.125 C 1795.15625 839.839844 1795.183594 838.542969 1795.210938 837.246094 C 1796.511719 837.222656 1797.808594 837.195312 1799.09375 837.152344 C 1801.992188 837.066406 1804.847656 836.917969 1807.609375 836.738281 C 1813.132812 836.375 1818.285156 835.832031 1822.703125 835.210938 C 1824.914062 834.902344 1826.9375 834.574219 1828.734375 834.253906 C 1830.527344 833.929688 1832.09375 833.617188 1833.382812 833.332031 C 1833.703125 833.261719 1834.007812 833.195312 1834.296875 833.128906 C 1834.582031 833.0625 1834.851562 832.996094 1835.101562 832.9375 C 1835.601562 832.820312 1836.027344 832.714844 1836.371094 832.625 C 1837.0625 832.445312 1837.433594 832.335938 1837.433594 832.335938 C 1837.433594 832.335938 1837.0625 832.226562 1836.371094 832.046875 "/>
<path style=" stroke:none;fill-rule:nonzero;fill:rgb(28.738403%,36.36322%,63.223267%);fill-opacity:1;" d="M 1464.414062 1047.832031 C 1464.066406 1047.742188 1463.640625 1047.636719 1463.140625 1047.519531 C 1462.890625 1047.457031 1462.625 1047.394531 1462.335938 1047.328125 C 1462.050781 1047.265625 1461.742188 1047.195312 1461.421875 1047.125 C 1460.132812 1046.839844 1458.566406 1046.523438 1456.773438 1046.203125 C 1454.976562 1045.882812 1452.953125 1045.554688 1450.742188 1045.246094 C 1446.324219 1044.625 1441.171875 1044.082031 1435.648438 1043.71875 C 1432.886719 1043.535156 1430.035156 1043.390625 1427.136719 1043.304688 C 1425.851562 1043.261719 1424.554688 1043.234375 1423.253906 1043.210938 C 1423.230469 1041.910156 1423.203125 1040.617188 1423.160156 1039.332031 C 1423.074219 1036.433594 1422.929688 1033.578125 1422.746094 1030.816406 C 1422.382812 1025.292969 1421.839844 1020.140625 1421.21875 1015.722656 C 1420.910156 1013.511719 1420.582031 1011.488281 1420.261719 1009.691406 C 1419.9375 1007.898438 1419.628906 1006.332031 1419.339844 1005.042969 C 1419.269531 1004.722656 1419.203125 1004.417969 1419.140625 1004.128906 C 1419.070312 1003.84375 1419.007812 1003.574219 1418.949219 1003.324219 C 1418.832031 1002.824219 1418.722656 1002.398438 1418.632812 1002.054688 C 1418.457031 1001.363281 1418.34375 1000.992188 1418.34375 1000.992188 C 1418.34375 1000.992188 1418.234375 1001.363281 1418.058594 1002.054688 C 1417.96875 1002.398438 1417.855469 1002.824219 1417.742188 1003.324219 C 1417.683594 1003.574219 1417.617188 1003.84375 1417.550781 1004.128906 C 1417.488281 1004.417969 1417.421875 1004.722656 1417.347656 1005.042969 C 1417.058594 1006.332031 1416.75 1007.898438 1416.425781 1009.691406 C 1416.105469 1011.488281 1415.777344 1013.511719 1415.472656 1015.722656 C 1414.851562 1020.140625 1414.308594 1025.292969 1413.941406 1030.816406 C 1413.761719 1033.578125 1413.613281 1036.433594 1413.527344 1039.332031 C 1413.484375 1040.617188 1413.457031 1041.914062 1413.433594 1043.214844 C 1412.136719 1043.238281 1410.839844 1043.269531 1409.554688 1043.3125 C 1406.652344 1043.402344 1403.800781 1043.546875 1401.039062 1043.730469 C 1395.515625 1044.097656 1390.363281 1044.640625 1385.945312 1045.261719 C 1383.734375 1045.566406 1381.710938 1045.894531 1379.917969 1046.214844 C 1378.121094 1046.535156 1376.558594 1046.84375 1375.265625 1047.132812 C 1374.945312 1047.199219 1374.640625 1047.269531 1374.351562 1047.332031 C 1374.066406 1047.398438 1373.796875 1047.460938 1373.546875 1047.519531 C 1373.046875 1047.636719 1372.621094 1047.746094 1372.277344 1047.835938 C 1371.585938 1048.011719 1371.21875 1048.121094 1371.21875 1048.121094 C 1371.21875 1048.121094 1371.585938 1048.230469 1372.277344 1048.40625 C 1372.621094 1048.496094 1373.046875 1048.605469 1373.546875 1048.722656 C 1373.796875 1048.777344 1374.066406 1048.84375 1374.351562 1048.910156 C 1374.640625 1048.972656 1374.945312 1049.039062 1375.265625 1049.109375 C 1376.558594 1049.398438 1378.121094 1049.707031 1379.917969 1050.027344 C 1381.710938 1050.347656 1383.734375 1050.675781 1385.945312 1050.980469 C 1390.363281 1051.601562 1395.515625 1052.144531 1401.039062 1052.511719 C 1403.800781 1052.695312 1406.652344 1052.839844 1409.554688 1052.929688 C 1410.839844 1052.972656 1412.136719 1053.003906 1413.4375 1053.027344 C 1413.464844 1054.328125 1413.492188 1055.625 1413.535156 1056.910156 C 1413.625 1059.8125 1413.769531 1062.664062 1413.957031 1065.425781 C 1414.320312 1070.949219 1414.863281 1076.101562 1415.484375 1080.519531 C 1415.792969 1082.730469 1416.117188 1084.753906 1416.4375 1086.550781 C 1416.757812 1088.34375 1417.066406 1089.910156 1417.355469 1091.195312 C 1417.425781 1091.519531 1417.492188 1091.824219 1417.554688 1092.109375 C 1417.621094 1092.398438 1417.683594 1092.667969 1417.746094 1092.917969 C 1417.859375 1093.417969 1417.96875 1093.84375 1418.058594 1094.1875 C 1418.234375 1094.878906 1418.34375 1095.246094 1418.34375 1095.246094 C 1418.34375 1095.246094 1418.453125 1094.878906 1418.632812 1094.1875 C 1418.71875 1093.84375 1418.828125 1093.417969 1418.945312 1092.917969 C 1419.003906 1092.667969 1419.066406 1092.398438 1419.136719 1092.109375 C 1419.195312 1091.824219 1419.265625 1091.519531 1419.335938 1091.195312 C 1419.621094 1089.910156 1419.929688 1088.34375 1420.253906 1086.550781 C 1420.570312 1084.753906 1420.894531 1082.730469 1421.207031 1080.519531 C 1421.824219 1076.101562 1422.367188 1070.949219 1422.734375 1065.425781 C 1422.921875 1062.664062 1423.0625 1059.8125 1423.152344 1056.910156 C 1423.195312 1055.625 1423.226562 1054.328125 1423.25 1053.03125 C 1424.550781 1053.007812 1425.847656 1052.980469 1427.136719 1052.9375 C 1430.035156 1052.851562 1432.886719 1052.703125 1435.648438 1052.523438 C 1441.171875 1052.15625 1446.324219 1051.613281 1450.742188 1050.996094 C 1452.953125 1050.6875 1454.976562 1050.359375 1456.773438 1050.039062 C 1458.566406 1049.714844 1460.132812 1049.402344 1461.421875 1049.117188 C 1461.742188 1049.046875 1462.050781 1048.980469 1462.335938 1048.914062 C 1462.625 1048.847656 1462.890625 1048.78125 1463.140625 1048.726562 C 1463.640625 1048.605469 1464.066406 1048.496094 1464.414062 1048.410156 C 1465.101562 1048.230469 1465.472656 1048.121094 1465.472656 1048.121094 C 1465.472656 1048.121094 1465.101562 1048.011719 1464.414062 1047.832031 "/>
<path style=" stroke:none;fill-rule:nonzero;fill:rgb(28.738403%,36.36322%,63.223267%);fill-opacity:1;" d="M 1591.972656 343.808594 C 1591.628906 343.71875 1591.203125 343.609375 1590.703125 343.492188 C 1590.453125 343.433594 1590.183594 343.367188 1589.898438 343.300781 C 1589.609375 343.238281 1589.304688 343.171875 1588.984375 343.097656 C 1587.695312 342.8125 1586.128906 342.5 1584.332031 342.175781 C 1582.539062 341.855469 1580.515625 341.53125 1578.304688 341.21875 C 1573.886719 340.601562 1568.734375 340.058594 1563.210938 339.691406 C 1560.449219 339.511719 1557.59375 339.363281 1554.695312 339.277344 C 1553.410156 339.238281 1552.113281 339.207031 1550.816406 339.183594 C 1550.792969 337.886719 1550.761719 336.589844 1550.722656 335.304688 C 1550.632812 332.40625 1550.488281 329.550781 1550.308594 326.789062 C 1549.945312 321.265625 1549.398438 316.113281 1548.78125 311.695312 C 1548.46875 309.484375 1548.144531 307.460938 1547.824219 305.667969 C 1547.5 303.871094 1547.1875 302.304688 1546.902344 301.019531 C 1546.828125 300.695312 1546.761719 300.390625 1546.699219 300.105469 C 1546.632812 299.816406 1546.566406 299.546875 1546.507812 299.296875 C 1546.390625 298.796875 1546.285156 298.371094 1546.195312 298.027344 C 1546.015625 297.335938 1545.90625 296.96875 1545.90625 296.96875 C 1545.90625 296.96875 1545.792969 297.335938 1545.617188 298.027344 C 1545.527344 298.371094 1545.417969 298.796875 1545.300781 299.296875 C 1545.242188 299.546875 1545.179688 299.816406 1545.113281 300.105469 C 1545.046875 300.390625 1544.980469 300.695312 1544.910156 301.019531 C 1544.621094 302.304688 1544.3125 303.871094 1543.988281 305.667969 C 1543.667969 307.460938 1543.339844 309.484375 1543.03125 311.695312 C 1542.410156 316.113281 1541.867188 321.265625 1541.503906 326.789062 C 1541.320312 329.550781 1541.175781 332.40625 1541.085938 335.304688 C 1541.046875 336.59375 1541.019531 337.890625 1540.996094 339.191406 C 1539.695312 339.214844 1538.402344 339.246094 1537.117188 339.285156 C 1534.214844 339.375 1531.363281 339.519531 1528.601562 339.707031 C 1523.078125 340.070312 1517.921875 340.613281 1513.503906 341.234375 C 1511.296875 341.542969 1509.273438 341.867188 1507.476562 342.1875 C 1505.679688 342.507812 1504.117188 342.816406 1502.828125 343.105469 C 1502.503906 343.175781 1502.203125 343.242188 1501.914062 343.304688 C 1501.628906 343.375 1501.359375 343.4375 1501.109375 343.496094 C 1500.609375 343.609375 1500.183594 343.71875 1499.835938 343.808594 C 1499.148438 343.984375 1498.777344 344.09375 1498.777344 344.09375 C 1498.777344 344.09375 1499.148438 344.203125 1499.835938 344.382812 C 1500.183594 344.46875 1500.609375 344.578125 1501.109375 344.695312 C 1501.359375 344.753906 1501.628906 344.816406 1501.914062 344.882812 C 1502.203125 344.945312 1502.503906 345.015625 1502.828125 345.085938 C 1504.117188 345.371094 1505.679688 345.679688 1507.476562 346.003906 C 1509.273438 346.320312 1511.296875 346.648438 1513.503906 346.957031 C 1517.921875 347.574219 1523.078125 348.117188 1528.601562 348.484375 C 1531.363281 348.667969 1534.214844 348.8125 1537.117188 348.902344 C 1538.402344 348.945312 1539.699219 348.976562 1541 349 C 1541.023438 350.300781 1541.054688 351.597656 1541.09375 352.886719 C 1541.1875 355.785156 1541.332031 358.636719 1541.515625 361.398438 C 1541.882812 366.921875 1542.425781 372.074219 1543.042969 376.496094 C 1543.351562 378.703125 1543.675781 380.726562 1543.996094 382.523438 C 1544.320312 384.316406 1544.628906 385.882812 1544.914062 387.171875 C 1544.984375 387.492188 1545.050781 387.800781 1545.117188 388.085938 C 1545.183594 388.371094 1545.246094 388.640625 1545.304688 388.890625 C 1545.421875 389.390625 1545.53125 389.816406 1545.621094 390.164062 C 1545.796875 390.851562 1545.90625 391.222656 1545.90625 391.222656 C 1545.90625 391.222656 1546.015625 390.851562 1546.191406 390.164062 C 1546.28125 389.816406 1546.390625 389.390625 1546.503906 388.890625 C 1546.5625 388.640625 1546.628906 388.371094 1546.695312 388.085938 C 1546.757812 387.800781 1546.824219 387.492188 1546.894531 387.171875 C 1547.183594 385.882812 1547.492188 384.316406 1547.8125 382.523438 C 1548.132812 380.726562 1548.457031 378.703125 1548.765625 376.496094 C 1549.382812 372.074219 1549.925781 366.921875 1550.292969 361.398438 C 1550.480469 358.636719 1550.625 355.785156 1550.714844 352.886719 C 1550.753906 351.597656 1550.785156 350.304688 1550.8125 349.003906 C 1552.113281 348.980469 1553.410156 348.953125 1554.695312 348.910156 C 1557.59375 348.824219 1560.449219 348.679688 1563.210938 348.496094 C 1568.734375 348.132812 1573.886719 347.589844 1578.304688 346.96875 C 1580.515625 346.660156 1582.539062 346.332031 1584.332031 346.011719 C 1586.128906 345.691406 1587.695312 345.378906 1588.984375 345.089844 C 1589.304688 345.019531 1589.609375 344.953125 1589.898438 344.890625 C 1590.183594 344.820312 1590.453125 344.757812 1590.703125 344.699219 C 1591.203125 344.582031 1591.628906 344.472656 1591.972656 344.382812 C 1592.664062 344.207031 1593.03125 344.09375 1593.03125 344.09375 C 1593.03125 344.09375 1592.664062 343.984375 1591.972656 343.808594 "/>
<path style=" stroke:none;fill-rule:nonzero;fill:rgb(28.738403%,36.36322%,63.223267%);fill-opacity:1;" d="M 134.679688 343.808594 C 134.332031 343.71875 133.90625 343.609375 133.40625 343.492188 C 133.15625 343.433594 132.890625 343.367188 132.601562 343.300781 C 132.316406 343.238281 132.007812 343.171875 131.6875 343.097656 C 130.398438 342.8125 128.832031 342.5 127.039062 342.175781 C 125.242188 341.855469 123.21875 341.53125 121.007812 341.21875 C 116.589844 340.601562 111.4375 340.058594 105.914062 339.691406 C 103.152344 339.511719 100.300781 339.363281 97.402344 339.277344 C 96.117188 339.238281 94.820312 339.207031 93.519531 339.183594 C 93.496094 337.886719 93.46875 336.589844 93.429688 335.304688 C 93.339844 332.40625 93.195312 329.550781 93.011719 326.789062 C 92.648438 321.265625 92.105469 316.113281 91.484375 311.695312 C 91.175781 309.484375 90.847656 307.460938 90.527344 305.667969 C 90.203125 303.871094 89.894531 302.304688 89.605469 301.019531 C 89.535156 300.695312 89.46875 300.390625 89.40625 300.105469 C 89.335938 299.816406 89.273438 299.546875 89.214844 299.296875 C 89.097656 298.796875 88.988281 298.371094 88.898438 298.027344 C 88.71875 297.335938 88.609375 296.96875 88.609375 296.96875 C 88.609375 296.96875 88.5 297.335938 88.324219 298.027344 C 88.234375 298.371094 88.125 298.796875 88.007812 299.296875 C 87.949219 299.546875 87.882812 299.816406 87.816406 300.105469 C 87.753906 300.390625 87.6875 300.695312 87.613281 301.019531 C 87.328125 302.304688 87.015625 303.871094 86.691406 305.667969 C 86.371094 307.460938 86.042969 309.484375 85.738281 311.695312 C 85.117188 316.113281 84.574219 321.265625 84.207031 326.789062 C 84.027344 329.550781 83.878906 332.40625 83.792969 335.304688 C 83.75 336.59375 83.722656 337.890625 83.699219 339.191406 C 82.402344 339.214844 81.105469 339.246094 79.820312 339.285156 C 76.921875 339.375 74.066406 339.519531 71.304688 339.707031 C 65.78125 340.070312 60.628906 340.613281 56.210938 341.234375 C 54 341.542969 51.976562 341.867188 50.183594 342.1875 C 48.386719 342.507812 46.824219 342.816406 45.53125 343.105469 C 45.210938 343.175781 44.90625 343.242188 44.617188 343.304688 C 44.332031 343.375 44.0625 343.4375 43.8125 343.496094 C 43.3125 343.609375 42.886719 343.71875 42.542969 343.808594 C 41.851562 343.984375 41.484375 344.09375 41.484375 344.09375 C 41.484375 344.09375 41.851562 344.203125 42.542969 344.382812 C 42.886719 344.46875 43.3125 344.578125 43.8125 344.695312 C 44.0625 344.753906 44.332031 344.816406 44.617188 344.882812 C 44.90625 344.945312 45.210938 345.015625 45.53125 345.085938 C 46.824219 345.371094 48.386719 345.679688 50.183594 346.003906 C 51.976562 346.320312 54 346.648438 56.210938 346.957031 C 60.628906 347.574219 65.78125 348.117188 71.304688 348.484375 C 74.066406 348.667969 76.921875 348.8125 79.820312 348.902344 C 81.109375 348.945312 82.402344 348.976562 83.703125 349 C 83.730469 350.300781 83.757812 351.597656 83.800781 352.886719 C 83.890625 355.785156 84.035156 358.636719 84.21875 361.398438 C 84.585938 366.921875 85.128906 372.074219 85.75 376.496094 C 86.058594 378.703125 86.382812 380.726562 86.703125 382.523438 C 87.023438 384.316406 87.332031 385.882812 87.621094 387.171875 C 87.691406 387.492188 87.757812 387.800781 87.820312 388.085938 C 87.886719 388.371094 87.953125 388.640625 88.011719 388.890625 C 88.125 389.390625 88.234375 389.816406 88.324219 390.164062 C 88.5 390.851562 88.609375 391.222656 88.609375 391.222656 C 88.609375 391.222656 88.71875 390.851562 88.898438 390.164062 C 88.984375 389.816406 89.09375 389.390625 89.210938 388.890625 C 89.269531 388.640625 89.332031 388.371094 89.402344 388.085938 C 89.460938 387.800781 89.53125 387.492188 89.601562 387.171875 C 89.886719 385.882812 90.195312 384.316406 90.519531 382.523438 C 90.835938 380.726562 91.164062 378.703125 91.472656 376.496094 C 92.089844 372.074219 92.632812 366.921875 93 361.398438 C 93.183594 358.636719 93.328125 355.785156 93.417969 352.886719 C 93.460938 351.597656 93.492188 350.304688 93.515625 349.003906 C 94.816406 348.980469 96.113281 348.953125 97.402344 348.910156 C 100.300781 348.824219 103.152344 348.679688 105.914062 348.496094 C 111.4375 348.132812 116.589844 347.589844 121.007812 346.96875 C 123.21875 346.660156 125.242188 346.332031 127.039062 346.011719 C 128.832031 345.691406 130.398438 345.378906 131.6875 345.089844 C 132.007812 345.019531 132.316406 344.953125 132.601562 344.890625 C 132.890625 344.820312 133.15625 344.757812 133.40625 344.699219 C 133.90625 344.582031 134.332031 344.472656 134.679688 344.382812 C 135.367188 344.207031 135.738281 344.09375 135.738281 344.09375 C 135.738281 344.09375 135.367188 343.984375 134.679688 343.808594 "/>
<path style=" stroke:none;fill-rule:nonzero;fill:rgb(28.738403%,36.36322%,63.223267%);fill-opacity:1;" d="M 1853.804688 155.300781 C 1853.460938 155.210938 1853.035156 155.101562 1852.535156 154.984375 C 1852.285156 154.925781 1852.015625 154.863281 1851.730469 154.792969 C 1851.441406 154.730469 1851.136719 154.664062 1850.816406 154.59375 C 1849.527344 154.304688 1847.960938 153.992188 1846.164062 153.667969 C 1844.371094 153.347656 1842.347656 153.023438 1840.136719 152.710938 C 1835.71875 152.09375 1830.566406 151.550781 1825.042969 151.1875 C 1822.28125 151.003906 1819.425781 150.859375 1816.527344 150.769531 C 1815.242188 150.730469 1813.945312 150.699219 1812.648438 150.679688 C 1812.625 149.378906 1812.59375 148.082031 1812.554688 146.796875 C 1812.464844 143.898438 1812.320312 141.042969 1812.140625 138.28125 C 1811.777344 132.761719 1811.230469 127.605469 1810.613281 123.1875 C 1810.300781 120.980469 1809.976562 118.953125 1809.65625 117.160156 C 1809.332031 115.363281 1809.019531 113.796875 1808.734375 112.511719 C 1808.660156 112.1875 1808.59375 111.882812 1808.53125 111.597656 C 1808.464844 111.308594 1808.398438 111.039062 1808.339844 110.789062 C 1808.222656 110.289062 1808.117188 109.863281 1808.027344 109.519531 C 1807.847656 108.828125 1807.738281 108.460938 1807.738281 108.460938 C 1807.738281 108.460938 1807.625 108.828125 1807.449219 109.519531 C 1807.359375 109.863281 1807.25 110.289062 1807.132812 110.789062 C 1807.074219 111.039062 1807.011719 111.308594 1806.945312 111.597656 C 1806.878906 111.882812 1806.8125 112.1875 1806.742188 112.511719 C 1806.453125 113.796875 1806.144531 115.363281 1805.820312 117.160156 C 1805.5 118.953125 1805.171875 120.980469 1804.863281 123.1875 C 1804.242188 127.605469 1803.699219 132.761719 1803.335938 138.28125 C 1803.152344 141.042969 1803.007812 143.898438 1802.917969 146.796875 C 1802.878906 148.085938 1802.851562 149.382812 1802.828125 150.683594 C 1801.527344 150.707031 1800.234375 150.738281 1798.949219 150.777344 C 1796.046875 150.867188 1793.195312 151.011719 1790.433594 151.199219 C 1784.910156 151.566406 1779.753906 152.109375 1775.335938 152.726562 C 1773.128906 153.035156 1771.105469 153.359375 1769.308594 153.679688 C 1767.515625 154 1765.949219 154.3125 1764.660156 154.597656 C 1764.335938 154.667969 1764.035156 154.734375 1763.746094 154.796875 C 1763.460938 154.867188 1763.191406 154.929688 1762.941406 154.988281 C 1762.441406 155.105469 1762.015625 155.210938 1761.667969 155.300781 C 1760.980469 155.476562 1760.609375 155.585938 1760.609375 155.585938 C 1760.609375 155.585938 1760.980469 155.695312 1761.667969 155.875 C 1762.015625 155.960938 1762.441406 156.070312 1762.941406 156.1875 C 1763.191406 156.246094 1763.460938 156.308594 1763.746094 156.375 C 1764.035156 156.441406 1764.335938 156.507812 1764.660156 156.578125 C 1765.949219 156.863281 1767.515625 157.171875 1769.308594 157.496094 C 1771.105469 157.816406 1773.128906 158.140625 1775.335938 158.449219 C 1779.753906 159.066406 1784.910156 159.609375 1790.433594 159.976562 C 1793.195312 160.160156 1796.046875 160.304688 1798.949219 160.398438 C 1800.234375 160.4375 1801.53125 160.46875 1802.832031 160.492188 C 1802.855469 161.792969 1802.886719 163.089844 1802.925781 164.378906 C 1803.019531 167.277344 1803.164062 170.128906 1803.347656 172.890625 C 1803.714844 178.414062 1804.257812 183.570312 1804.875 187.988281 C 1805.183594 190.195312 1805.507812 192.222656 1805.828125 194.015625 C 1806.152344 195.8125 1806.460938 197.375 1806.746094 198.664062 C 1806.816406 198.988281 1806.882812 199.292969 1806.949219 199.578125 C 1807.015625 199.863281 1807.078125 200.132812 1807.136719 200.386719 C 1807.253906 200.886719 1807.363281 201.3125 1807.453125 201.65625 C 1807.628906 202.347656 1807.738281 202.714844 1807.738281 202.714844 C 1807.738281 202.714844 1807.847656 202.347656 1808.023438 201.65625 C 1808.113281 201.3125 1808.222656 200.886719 1808.335938 200.386719 C 1808.394531 200.132812 1808.460938 199.863281 1808.527344 199.578125 C 1808.589844 199.292969 1808.65625 198.988281 1808.726562 198.664062 C 1809.015625 197.375 1809.324219 195.8125 1809.644531 194.015625 C 1809.964844 192.222656 1810.289062 190.195312 1810.597656 187.988281 C 1811.214844 183.570312 1811.757812 178.414062 1812.125 172.890625 C 1812.3125 170.128906 1812.457031 167.277344 1812.546875 164.378906 C 1812.585938 163.09375 1812.617188 161.796875 1812.644531 160.496094 C 1813.945312 160.476562 1815.242188 160.445312 1816.527344 160.40625 C 1819.425781 160.316406 1822.28125 160.171875 1825.042969 159.988281 C 1830.566406 159.625 1835.71875 159.082031 1840.136719 158.460938 C 1842.347656 158.152344 1844.371094 157.824219 1846.164062 157.503906 C 1847.960938 157.183594 1849.527344 156.871094 1850.816406 156.582031 C 1851.136719 156.511719 1851.441406 156.445312 1851.730469 156.382812 C 1852.015625 156.3125 1852.285156 156.25 1852.535156 156.191406 C 1853.035156 156.074219 1853.460938 155.964844 1853.804688 155.875 C 1854.496094 155.699219 1854.863281 155.585938 1854.863281 155.585938 C 1854.863281 155.585938 1854.496094 155.476562 1853.804688 155.300781 "/>
<path style=" stroke:none;fill-rule:nonzero;fill:rgb(28.738403%,36.36322%,63.223267%);fill-opacity:1;" d="M 1097.226562 422.015625 C 1096.878906 421.925781 1096.453125 421.816406 1095.953125 421.703125 C 1095.703125 421.640625 1095.4375 421.578125 1095.148438 421.511719 C 1094.863281 421.449219 1094.554688 421.378906 1094.234375 421.308594 C 1092.945312 421.019531 1091.378906 420.710938 1089.585938 420.386719 C 1087.789062 420.066406 1085.765625 419.738281 1083.554688 419.429688 C 1079.136719 418.808594 1073.984375 418.265625 1068.460938 417.902344 C 1065.699219 417.71875 1062.847656 417.574219 1059.949219 417.488281 C 1058.664062 417.445312 1057.367188 417.417969 1056.066406 417.394531 C 1056.042969 416.09375 1056.015625 414.800781 1055.972656 413.515625 C 1055.886719 410.617188 1055.742188 407.761719 1055.558594 405 C 1055.195312 399.476562 1054.652344 394.324219 1054.03125 389.90625 C 1053.722656 387.695312 1053.394531 385.671875 1053.074219 383.875 C 1052.75 382.082031 1052.441406 380.515625 1052.152344 379.226562 C 1052.082031 378.90625 1052.015625 378.601562 1051.953125 378.3125 C 1051.882812 378.027344 1051.820312 377.757812 1051.761719 377.507812 C 1051.644531 377.007812 1051.535156 376.582031 1051.445312 376.238281 C 1051.269531 375.546875 1051.15625 375.175781 1051.15625 375.175781 C 1051.15625 375.175781 1051.046875 375.546875 1050.871094 376.238281 C 1050.78125 376.582031 1050.667969 377.007812 1050.554688 377.507812 C 1050.496094 377.757812 1050.429688 378.027344 1050.363281 378.3125 C 1050.300781 378.601562 1050.234375 378.90625 1050.160156 379.226562 C 1049.871094 380.515625 1049.5625 382.082031 1049.238281 383.875 C 1048.917969 385.671875 1048.589844 387.695312 1048.285156 389.90625 C 1047.664062 394.324219 1047.121094 399.476562 1046.753906 405 C 1046.574219 407.761719 1046.425781 410.617188 1046.339844 413.515625 C 1046.296875 414.800781 1046.269531 416.097656 1046.246094 417.398438 C 1044.949219 417.421875 1043.652344 417.453125 1042.367188 417.496094 C 1039.464844 417.585938 1036.613281 417.730469 1033.851562 417.914062 C 1028.328125 418.28125 1023.175781 418.824219 1018.757812 419.445312 C 1016.546875 419.75 1014.523438 420.078125 1012.730469 420.398438 C 1010.933594 420.71875 1009.371094 421.027344 1008.078125 421.316406 C 1007.757812 421.386719 1007.453125 421.453125 1007.164062 421.515625 C 1006.878906 421.582031 1006.609375 421.644531 1006.359375 421.703125 C 1005.859375 421.820312 1005.433594 421.929688 1005.089844 422.019531 C 1004.398438 422.195312 1004.03125 422.304688 1004.03125 422.304688 C 1004.03125 422.304688 1004.398438 422.414062 1005.089844 422.589844 C 1005.433594 422.679688 1005.859375 422.789062 1006.359375 422.90625 C 1006.609375 422.960938 1006.878906 423.027344 1007.164062 423.09375 C 1007.453125 423.15625 1007.757812 423.222656 1008.078125 423.292969 C 1009.371094 423.582031 1010.933594 423.890625 1012.730469 424.210938 C 1014.523438 424.53125 1016.546875 424.859375 1018.757812 425.164062 C 1023.175781 425.785156 1028.328125 426.328125 1033.851562 426.695312 C 1036.613281 426.878906 1039.464844 427.023438 1042.367188 427.113281 C 1043.652344 427.15625 1044.949219 427.1875 1046.25 427.210938 C 1046.277344 428.511719 1046.304688 429.808594 1046.347656 431.09375 C 1046.4375 433.996094 1046.582031 436.847656 1046.769531 439.609375 C 1047.132812 445.132812 1047.675781 450.285156 1048.296875 454.703125 C 1048.605469 456.914062 1048.929688 458.9375 1049.25 460.734375 C 1049.570312 462.527344 1049.878906 464.09375 1050.167969 465.382812 C 1050.238281 465.703125 1050.304688 466.007812 1050.367188 466.296875 C 1050.433594 466.582031 1050.496094 466.851562 1050.558594 467.101562 C 1050.671875 467.601562 1050.78125 468.027344 1050.871094 468.371094 C 1051.046875 469.0625 1051.15625 469.429688 1051.15625 469.429688 C 1051.15625 469.429688 1051.265625 469.0625 1051.445312 468.371094 C 1051.53125 468.027344 1051.640625 467.601562 1051.757812 467.101562 C 1051.816406 466.851562 1051.878906 466.582031 1051.949219 466.296875 C 1052.007812 466.007812 1052.078125 465.703125 1052.148438 465.382812 C 1052.433594 464.09375 1052.742188 462.527344 1053.066406 460.734375 C 1053.382812 458.9375 1053.707031 456.914062 1054.019531 454.703125 C 1054.636719 450.285156 1055.179688 445.132812 1055.546875 439.609375 C 1055.734375 436.847656 1055.875 433.996094 1055.964844 431.09375 C 1056.007812 429.808594 1056.039062 428.515625 1056.0625 427.214844 C 1057.363281 427.191406 1058.660156 427.164062 1059.949219 427.121094 C 1062.847656 427.035156 1065.699219 426.886719 1068.460938 426.707031 C 1073.984375 426.34375 1079.136719 425.800781 1083.554688 425.179688 C 1085.765625 424.871094 1087.789062 424.542969 1089.585938 424.222656 C 1091.378906 423.898438 1092.945312 423.585938 1094.234375 423.300781 C 1094.554688 423.230469 1094.863281 423.164062 1095.148438 423.097656 C 1095.4375 423.03125 1095.703125 422.964844 1095.953125 422.90625 C 1096.453125 422.789062 1096.878906 422.683594 1097.226562 422.59375 C 1097.914062 422.414062 1098.285156 422.304688 1098.285156 422.304688 C 1098.285156 422.304688 1097.914062 422.195312 1097.226562 422.015625 "/>
</g>
</svg>
