<?xml version="1.0" encoding="UTF-8"?>
<svg xmlns="http://www.w3.org/2000/svg" xmlns:xlink="http://www.w3.org/1999/xlink" width="2000pt" height="2000pt" viewBox="0 0 2000 2000" version="1.1">
<g id="surface1">
<rect x="0" y="0" width="2000" height="2000" style="fill:rgb(10.165405%,14.424133%,26.649475%);fill-opacity:1;stroke:none;"/>
<path style=" stroke:none;fill-rule:nonzero;fill:rgb(53.48053%,59.672546%,78.315735%);fill-opacity:1;" d="M 326.164062 702.804688 C 325.816406 702.714844 325.390625 702.605469 324.890625 702.488281 C 324.640625 702.429688 324.371094 702.367188 324.085938 702.296875 C 323.800781 702.234375 323.492188 702.167969 323.171875 702.09375 C 321.882812 701.808594 320.316406 701.496094 318.523438 701.171875 C 316.726562 700.851562 314.703125 700.527344 312.496094 700.21875 C 308.074219 699.597656 302.921875 699.054688 297.398438 698.691406 C 294.636719 698.507812 291.785156 698.363281 288.886719 698.273438 C 287.601562 698.234375 286.304688 698.203125 285.003906 698.183594 C 284.980469 696.882812 284.953125 695.585938 284.914062 694.300781 C 284.824219 691.402344 284.679688 688.546875 284.496094 685.785156 C 284.132812 680.265625 283.589844 675.109375 282.96875 670.691406 C 282.660156 668.484375 282.332031 666.457031 282.011719 664.664062 C 281.691406 662.867188 281.378906 661.304688 281.089844 660.015625 C 281.019531 659.691406 280.953125 659.386719 280.890625 659.101562 C 280.820312 658.8125 280.757812 658.542969 280.699219 658.292969 C 280.582031 657.792969 280.472656 657.367188 280.382812 657.023438 C 280.207031 656.332031 280.09375 655.964844 280.09375 655.964844 C 280.09375 655.964844 279.984375 656.332031 279.808594 657.023438 C 279.71875 657.367188 279.609375 657.792969 279.492188 658.292969 C 279.433594 658.542969 279.367188 658.8125 279.300781 659.101562 C 279.238281 659.386719 279.171875 659.691406 279.097656 660.015625 C 278.8125 661.304688 278.5 662.867188 278.175781 664.664062 C 277.855469 666.457031 277.53125 668.484375 277.222656 670.691406 C 276.601562 675.109375 276.058594 680.265625 275.691406 685.785156 C 275.511719 688.546875 275.363281 691.402344 275.277344 694.300781 C 275.238281 695.585938 275.207031 696.886719 275.183594 698.1875 C 273.886719 698.210938 272.589844 698.242188 271.304688 698.28125 C 268.40625 698.371094 265.550781 698.515625 262.789062 698.703125 C 257.265625 699.070312 252.113281 699.613281 247.695312 700.230469 C 245.484375 700.539062 243.460938 700.863281 241.667969 701.183594 C 239.871094 701.503906 238.308594 701.816406 237.015625 702.101562 C 236.695312 702.171875 236.390625 702.238281 236.105469 702.300781 C 235.816406 702.367188 235.546875 702.433594 235.296875 702.492188 C 234.796875 702.609375 234.371094 702.714844 234.027344 702.804688 C 233.335938 702.980469 232.96875 703.089844 232.96875 703.089844 C 232.96875 703.089844 233.335938 703.199219 234.027344 703.378906 C 234.371094 703.464844 234.796875 703.574219 235.296875 703.691406 C 235.546875 703.75 235.816406 703.8125 236.105469 703.882812 C 236.390625 703.945312 236.695312 704.011719 237.015625 704.082031 C 238.308594 704.367188 239.871094 704.675781 241.667969 705 C 243.460938 705.320312 245.484375 705.644531 247.695312 705.953125 C 252.113281 706.570312 257.265625 707.113281 262.789062 707.480469 C 265.550781 707.664062 268.40625 707.808594 271.304688 707.902344 C 272.589844 707.941406 273.886719 707.972656 275.1875 707.996094 C 275.214844 709.296875 275.242188 710.59375 275.285156 711.882812 C 275.375 714.78125 275.519531 717.632812 275.707031 720.394531 C 276.070312 725.917969 276.613281 731.074219 277.234375 735.492188 C 277.542969 737.699219 277.867188 739.726562 278.1875 741.519531 C 278.507812 743.316406 278.816406 744.878906 279.105469 746.167969 C 279.175781 746.492188 279.242188 746.796875 279.304688 747.082031 C 279.371094 747.367188 279.4375 747.636719 279.496094 747.890625 C 279.609375 748.390625 279.71875 748.816406 279.808594 749.160156 C 279.984375 749.851562 280.09375 750.21875 280.09375 750.21875 C 280.09375 750.21875 280.203125 749.851562 280.382812 749.160156 C 280.46875 748.816406 280.578125 748.390625 280.695312 747.890625 C 280.753906 747.636719 280.816406 747.367188 280.882812 747.082031 C 280.945312 746.796875 281.015625 746.492188 281.085938 746.167969 C 281.371094 744.878906 281.679688 743.316406 282.003906 741.519531 C 282.320312 739.726562 282.648438 737.699219 282.957031 735.492188 C 283.574219 731.074219 284.117188 725.917969 284.484375 720.394531 C 284.667969 717.632812 284.8125 714.78125 284.902344 711.882812 C 284.945312 710.59375 284.976562 709.300781 285 708 C 286.300781 707.980469 287.597656 707.949219 288.886719 707.910156 C 291.785156 707.820312 294.636719 707.675781 297.398438 707.492188 C 302.921875 707.128906 308.074219 706.585938 312.496094 705.964844 C 314.703125 705.65625 316.726562 705.328125 318.523438 705.007812 C 320.316406 704.6875 321.882812 704.375 323.171875 704.085938 C 323.492188 704.015625 323.800781 703.949219 324.085938 703.886719 C 324.371094 703.816406 324.640625 703.753906 324.890625 703.695312 C 325.390625 703.578125 325.816406 703.46875 326.164062 703.378906 C 326.851562 703.203125 327.222656 703.089844 327.222656 703.089844 C 327.222656 703.089844 326.851562 702.980469 326.164062 702.804688 "/>
<path style=" stroke:none;fill-rule:nonzero;fill:rgb(53.48053%,59.672546%,78.315735%);fill-opacity:1;" d="M 593.765625 249.554688 C 593.417969 249.464844 592.992188 249.355469 592.492188 249.238281 C 592.242188 249.179688 591.972656 249.113281 591.6875 249.046875 C 591.398438 248.984375 591.09375 248.917969 590.773438 248.84375 C 589.484375 248.558594 587.917969 248.246094 586.125 247.925781 C 584.328125 247.601562 582.304688 247.277344 580.09375 246.96875 C 575.675781 246.347656 570.523438 245.804688 565 245.4375 C 562.238281 245.257812 559.386719 245.109375 556.484375 245.023438 C 555.199219 244.984375 553.90625 244.953125 552.605469 244.929688 C 552.582031 243.632812 552.554688 242.335938 552.515625 241.050781 C 552.425781 238.152344 552.28125 235.296875 552.097656 232.539062 C 551.734375 227.015625 551.191406 221.859375 550.570312 217.441406 C 550.261719 215.230469 549.933594 213.207031 549.613281 211.414062 C 549.289062 209.617188 548.980469 208.054688 548.691406 206.765625 C 548.621094 206.441406 548.550781 206.136719 548.488281 205.851562 C 548.421875 205.5625 548.359375 205.292969 548.296875 205.042969 C 548.183594 204.542969 548.074219 204.117188 547.984375 203.773438 C 547.804688 203.082031 547.695312 202.714844 547.695312 202.714844 C 547.695312 202.714844 547.585938 203.082031 547.40625 203.773438 C 547.316406 204.117188 547.207031 204.542969 547.09375 205.042969 C 547.035156 205.292969 546.96875 205.5625 546.902344 205.851562 C 546.835938 206.136719 546.769531 206.441406 546.699219 206.765625 C 546.410156 208.054688 546.101562 209.617188 545.777344 211.414062 C 545.457031 213.207031 545.128906 215.230469 544.820312 217.441406 C 544.199219 221.859375 543.65625 227.015625 543.292969 232.539062 C 543.113281 235.296875 542.964844 238.152344 542.878906 241.050781 C 542.835938 242.339844 542.808594 243.636719 542.785156 244.9375 C 541.488281 244.960938 540.191406 244.992188 538.90625 245.03125 C 536.003906 245.125 533.152344 245.265625 530.390625 245.453125 C 524.867188 245.816406 519.714844 246.359375 515.296875 246.980469 C 513.085938 247.289062 511.0625 247.613281 509.265625 247.933594 C 507.472656 248.253906 505.90625 248.5625 504.617188 248.851562 C 504.296875 248.921875 503.992188 248.988281 503.703125 249.050781 C 503.417969 249.121094 503.148438 249.183594 502.898438 249.242188 C 502.398438 249.355469 501.972656 249.464844 501.628906 249.554688 C 500.9375 249.730469 500.570312 249.839844 500.570312 249.839844 C 500.570312 249.839844 500.9375 249.949219 501.628906 250.128906 C 501.972656 250.214844 502.398438 250.324219 502.898438 250.441406 C 503.148438 250.5 503.417969 250.5625 503.703125 250.632812 C 503.992188 250.695312 504.296875 250.761719 504.617188 250.832031 C 505.90625 251.117188 507.472656 251.429688 509.265625 251.75 C 511.0625 252.070312 513.085938 252.394531 515.296875 252.703125 C 519.714844 253.320312 524.867188 253.863281 530.390625 254.230469 C 533.152344 254.417969 536.003906 254.558594 538.90625 254.648438 C 540.191406 254.691406 541.488281 254.722656 542.789062 254.746094 C 542.8125 256.046875 542.84375 257.34375 542.886719 258.632812 C 542.976562 261.53125 543.121094 264.382812 543.304688 267.144531 C 543.671875 272.667969 544.214844 277.824219 544.835938 282.242188 C 545.144531 284.449219 545.46875 286.476562 545.789062 288.269531 C 546.109375 290.066406 546.417969 291.628906 546.707031 292.917969 C 546.777344 293.238281 546.84375 293.546875 546.90625 293.832031 C 546.972656 294.121094 547.035156 294.386719 547.09375 294.636719 C 547.210938 295.136719 547.320312 295.5625 547.410156 295.910156 C 547.585938 296.601562 547.695312 296.96875 547.695312 296.96875 C 547.695312 296.96875 547.804688 296.601562 547.980469 295.910156 C 548.070312 295.5625 548.179688 295.136719 548.296875 294.636719 C 548.355469 294.386719 548.417969 294.121094 548.484375 293.832031 C 548.546875 293.546875 548.617188 293.238281 548.6875 292.917969 C 548.972656 291.628906 549.28125 290.066406 549.601562 288.269531 C 549.921875 286.476562 550.246094 284.449219 550.558594 282.242188 C 551.175781 277.824219 551.71875 272.667969 552.085938 267.144531 C 552.269531 264.382812 552.414062 261.53125 552.503906 258.632812 C 552.546875 257.347656 552.578125 256.050781 552.601562 254.75 C 553.902344 254.730469 555.199219 254.699219 556.484375 254.660156 C 559.386719 254.570312 562.238281 254.425781 565 254.242188 C 570.523438 253.878906 575.675781 253.335938 580.09375 252.714844 C 582.304688 252.40625 584.328125 252.082031 586.125 251.757812 C 587.917969 251.4375 589.484375 251.125 590.773438 250.835938 C 591.09375 250.765625 591.398438 250.699219 591.6875 250.636719 C 591.972656 250.566406 592.242188 250.503906 592.492188 250.445312 C 592.992188 250.328125 593.417969 250.21875 593.765625 250.128906 C 594.453125 249.953125 594.824219 249.839844 594.824219 249.839844 C 594.824219 249.839844 594.453125 249.730469 593.765625 249.554688 "/>
<path style=" stroke:none;fill-rule:nonzero;fill:rgb(53.48053%,59.672546%,78.315735%);fill-opacity:1;" d="M 771.785156 588.308594 C 771.441406 588.21875 771.015625 588.109375 770.515625 587.996094 C 770.265625 587.933594 769.996094 587.871094 769.707031 587.804688 C 769.421875 587.738281 769.117188 587.671875 768.792969 587.601562 C 767.503906 587.3125 765.941406 587.003906 764.144531 586.679688 C 762.351562 586.359375 760.328125 586.03125 758.117188 585.722656 C 753.699219 585.101562 748.542969 584.558594 743.019531 584.195312 C 740.261719 584.015625 737.40625 583.867188 734.507812 583.78125 C 733.222656 583.738281 731.925781 583.710938 730.625 583.6875 C 730.605469 582.386719 730.574219 581.09375 730.535156 579.808594 C 730.445312 576.90625 730.300781 574.054688 730.117188 571.292969 C 729.753906 565.769531 729.210938 560.617188 728.589844 556.199219 C 728.28125 553.988281 727.957031 551.964844 727.632812 550.167969 C 727.3125 548.375 727 546.808594 726.714844 545.519531 C 726.640625 545.199219 726.574219 544.894531 726.511719 544.605469 C 726.441406 544.320312 726.378906 544.050781 726.320312 543.800781 C 726.203125 543.300781 726.09375 542.875 726.003906 542.53125 C 725.828125 541.839844 725.71875 541.472656 725.71875 541.472656 C 725.71875 541.472656 725.605469 541.839844 725.429688 542.53125 C 725.339844 542.875 725.230469 543.300781 725.113281 543.800781 C 725.054688 544.050781 724.992188 544.320312 724.921875 544.605469 C 724.859375 544.894531 724.792969 545.199219 724.722656 545.519531 C 724.433594 546.808594 724.121094 548.375 723.800781 550.167969 C 723.476562 551.964844 723.152344 553.988281 722.84375 556.199219 C 722.222656 560.617188 721.679688 565.769531 721.3125 571.292969 C 721.132812 574.054688 720.988281 576.90625 720.898438 579.808594 C 720.859375 581.09375 720.828125 582.390625 720.804688 583.691406 C 719.507812 583.714844 718.210938 583.75 716.925781 583.789062 C 714.027344 583.878906 711.175781 584.023438 708.414062 584.207031 C 702.890625 584.574219 697.734375 585.117188 693.316406 585.738281 C 691.109375 586.046875 689.082031 586.371094 687.289062 586.691406 C 685.492188 587.011719 683.929688 587.320312 682.640625 587.609375 C 682.316406 587.679688 682.011719 587.746094 681.726562 587.808594 C 681.4375 587.875 681.171875 587.9375 680.921875 588 C 680.417969 588.113281 679.992188 588.222656 679.648438 588.3125 C 678.957031 588.488281 678.589844 588.597656 678.589844 588.597656 C 678.589844 588.597656 678.957031 588.707031 679.648438 588.882812 C 679.992188 588.972656 680.417969 589.082031 680.921875 589.199219 C 681.171875 589.257812 681.4375 589.320312 681.726562 589.386719 C 682.011719 589.449219 682.316406 589.515625 682.640625 589.589844 C 683.929688 589.875 685.492188 590.183594 687.289062 590.503906 C 689.082031 590.824219 691.109375 591.152344 693.316406 591.457031 C 697.734375 592.078125 702.890625 592.621094 708.414062 592.988281 C 711.175781 593.171875 714.027344 593.316406 716.925781 593.40625 C 718.214844 593.449219 719.511719 593.480469 720.8125 593.503906 C 720.835938 594.804688 720.867188 596.101562 720.90625 597.386719 C 721 600.289062 721.140625 603.140625 721.328125 605.902344 C 721.695312 611.425781 722.238281 616.582031 722.855469 621 C 723.164062 623.207031 723.488281 625.230469 723.808594 627.027344 C 724.128906 628.820312 724.441406 630.386719 724.726562 631.675781 C 724.796875 631.996094 724.863281 632.300781 724.925781 632.589844 C 724.996094 632.875 725.058594 633.144531 725.117188 633.394531 C 725.234375 633.894531 725.34375 634.320312 725.429688 634.667969 C 725.605469 635.355469 725.71875 635.726562 725.71875 635.726562 C 725.71875 635.726562 725.828125 635.355469 726.003906 634.667969 C 726.09375 634.320312 726.203125 633.894531 726.316406 633.394531 C 726.375 633.144531 726.4375 632.875 726.507812 632.589844 C 726.570312 632.300781 726.636719 631.996094 726.707031 631.675781 C 726.992188 630.386719 727.304688 628.820312 727.625 627.027344 C 727.945312 625.230469 728.269531 623.207031 728.578125 621 C 729.195312 616.582031 729.738281 611.425781 730.105469 605.902344 C 730.292969 603.140625 730.433594 600.289062 730.527344 597.386719 C 730.566406 596.101562 730.597656 594.808594 730.621094 593.507812 C 731.921875 593.484375 733.21875 593.457031 734.507812 593.414062 C 737.40625 593.328125 740.261719 593.183594 743.019531 593 C 748.542969 592.636719 753.699219 592.09375 758.117188 591.472656 C 760.328125 591.164062 762.351562 590.835938 764.144531 590.515625 C 765.941406 590.191406 767.503906 589.882812 768.792969 589.59375 C 769.117188 589.523438 769.421875 589.457031 769.707031 589.390625 C 769.996094 589.324219 770.265625 589.261719 770.515625 589.199219 C 771.015625 589.085938 771.441406 588.976562 771.785156 588.886719 C 772.476562 588.707031 772.84375 588.597656 772.84375 588.597656 C 772.84375 588.597656 772.476562 588.488281 771.785156 588.308594 "/>
<path style=" stroke:none;fill-rule:nonzero;fill:rgb(53.48053%,59.672546%,78.315735%);fill-opacity:1;" d="M 373.289062 1263.800781 C 372.945312 1263.710938 372.519531 1263.605469 372.019531 1263.488281 C 371.769531 1263.425781 371.5 1263.363281 371.214844 1263.296875 C 370.925781 1263.234375 370.621094 1263.164062 370.300781 1263.09375 C 369.011719 1262.808594 367.445312 1262.496094 365.648438 1262.171875 C 363.855469 1261.851562 361.832031 1261.527344 359.621094 1261.214844 C 355.203125 1260.59375 350.050781 1260.050781 344.527344 1259.6875 C 341.765625 1259.507812 338.910156 1259.359375 336.011719 1259.273438 C 334.726562 1259.234375 333.429688 1259.203125 332.132812 1259.179688 C 332.109375 1257.878906 332.078125 1256.585938 332.039062 1255.300781 C 331.953125 1252.402344 331.804688 1249.546875 331.621094 1246.785156 C 331.257812 1241.265625 330.714844 1236.109375 330.097656 1231.691406 C 329.785156 1229.480469 329.460938 1227.457031 329.140625 1225.660156 C 328.816406 1223.867188 328.503906 1222.300781 328.21875 1221.015625 C 328.144531 1220.691406 328.078125 1220.386719 328.015625 1220.101562 C 327.949219 1219.8125 327.882812 1219.542969 327.824219 1219.292969 C 327.707031 1218.792969 327.597656 1218.367188 327.511719 1218.023438 C 327.332031 1217.332031 327.222656 1216.964844 327.222656 1216.964844 C 327.222656 1216.964844 327.113281 1217.332031 326.933594 1218.023438 C 326.84375 1218.367188 326.734375 1218.792969 326.617188 1219.292969 C 326.558594 1219.542969 326.496094 1219.8125 326.429688 1220.101562 C 326.363281 1220.386719 326.296875 1220.691406 326.226562 1221.015625 C 325.9375 1222.300781 325.625 1223.867188 325.304688 1225.660156 C 324.984375 1227.457031 324.65625 1229.480469 324.347656 1231.691406 C 323.726562 1236.109375 323.183594 1241.265625 322.820312 1246.785156 C 322.636719 1249.546875 322.492188 1252.402344 322.402344 1255.300781 C 322.363281 1256.585938 322.335938 1257.882812 322.3125 1259.1875 C 321.011719 1259.207031 319.71875 1259.242188 318.433594 1259.28125 C 315.53125 1259.371094 312.679688 1259.515625 309.917969 1259.699219 C 304.394531 1260.070312 299.238281 1260.613281 294.820312 1261.230469 C 292.613281 1261.539062 290.589844 1261.863281 288.792969 1262.183594 C 286.996094 1262.503906 285.433594 1262.8125 284.144531 1263.101562 C 283.824219 1263.171875 283.519531 1263.238281 283.230469 1263.300781 C 282.945312 1263.367188 282.675781 1263.433594 282.425781 1263.492188 C 281.925781 1263.605469 281.496094 1263.714844 281.152344 1263.804688 C 280.464844 1263.980469 280.09375 1264.089844 280.09375 1264.089844 C 280.09375 1264.089844 280.464844 1264.199219 281.152344 1264.375 C 281.496094 1264.464844 281.925781 1264.574219 282.425781 1264.691406 C 282.675781 1264.75 282.945312 1264.8125 283.230469 1264.878906 C 283.519531 1264.945312 283.824219 1265.007812 284.144531 1265.078125 C 285.433594 1265.367188 286.996094 1265.675781 288.792969 1265.996094 C 290.589844 1266.320312 292.613281 1266.644531 294.820312 1266.949219 C 299.238281 1267.570312 304.394531 1268.113281 309.917969 1268.480469 C 312.679688 1268.664062 315.53125 1268.808594 318.433594 1268.902344 C 319.71875 1268.941406 321.015625 1268.972656 322.316406 1268.996094 C 322.339844 1270.296875 322.371094 1271.59375 322.414062 1272.878906 C 322.503906 1275.78125 322.648438 1278.632812 322.832031 1281.394531 C 323.199219 1286.917969 323.742188 1292.074219 324.359375 1296.492188 C 324.667969 1298.699219 324.996094 1300.726562 325.3125 1302.519531 C 325.636719 1304.316406 325.945312 1305.878906 326.230469 1307.167969 C 326.300781 1307.488281 326.367188 1307.792969 326.433594 1308.082031 C 326.5 1308.367188 326.5625 1308.636719 326.621094 1308.886719 C 326.738281 1309.386719 326.847656 1309.8125 326.9375 1310.160156 C 327.113281 1310.851562 327.222656 1311.21875 327.222656 1311.21875 C 327.222656 1311.21875 327.332031 1310.851562 327.507812 1310.160156 C 327.597656 1309.8125 327.707031 1309.386719 327.820312 1308.886719 C 327.878906 1308.636719 327.945312 1308.367188 328.011719 1308.082031 C 328.074219 1307.792969 328.140625 1307.488281 328.210938 1307.167969 C 328.496094 1305.878906 328.808594 1304.316406 329.128906 1302.519531 C 329.449219 1300.726562 329.773438 1298.699219 330.082031 1296.492188 C 330.703125 1292.074219 331.246094 1286.917969 331.609375 1281.394531 C 331.796875 1278.632812 331.941406 1275.78125 332.03125 1272.878906 C 332.070312 1271.59375 332.101562 1270.300781 332.128906 1269 C 333.429688 1268.980469 334.726562 1268.949219 336.011719 1268.90625 C 338.910156 1268.820312 341.765625 1268.671875 344.527344 1268.492188 C 350.050781 1268.128906 355.203125 1267.585938 359.621094 1266.964844 C 361.832031 1266.65625 363.855469 1266.328125 365.648438 1266.007812 C 367.445312 1265.6875 369.011719 1265.375 370.300781 1265.085938 C 370.621094 1265.015625 370.925781 1264.949219 371.214844 1264.882812 C 371.5 1264.816406 371.769531 1264.753906 372.019531 1264.695312 C 372.519531 1264.578125 372.945312 1264.46875 373.289062 1264.378906 C 373.980469 1264.199219 374.347656 1264.089844 374.347656 1264.089844 C 374.347656 1264.089844 373.980469 1263.980469 373.289062 1263.800781 "/>
<path style=" stroke:none;fill-rule:nonzero;fill:rgb(53.48053%,59.672546%,78.315735%);fill-opacity:1;" d="M 886.636719 1482.535156 C 886.292969 1482.445312 885.867188 1482.335938 885.367188 1482.21875 C 885.117188 1482.160156 884.847656 1482.097656 884.558594 1482.027344 C 884.273438 1481.964844 883.96875 1481.894531 883.644531 1481.828125 C 882.359375 1481.539062 880.792969 1481.226562 878.996094 1480.902344 C 877.203125 1480.582031 875.175781 1480.257812 872.96875 1479.945312 C 868.550781 1479.328125 863.398438 1478.785156 857.871094 1478.421875 C 855.113281 1478.238281 852.257812 1478.09375 849.359375 1478.003906 C 848.074219 1477.964844 846.777344 1477.933594 845.480469 1477.914062 C 845.457031 1476.613281 845.425781 1475.316406 845.386719 1474.03125 C 845.296875 1471.132812 845.152344 1468.277344 844.96875 1465.515625 C 844.605469 1459.996094 844.0625 1454.839844 843.445312 1450.421875 C 843.132812 1448.214844 842.808594 1446.1875 842.488281 1444.394531 C 842.164062 1442.597656 841.851562 1441.03125 841.566406 1439.746094 C 841.492188 1439.421875 841.425781 1439.117188 841.363281 1438.832031 C 841.296875 1438.542969 841.230469 1438.273438 841.171875 1438.023438 C 841.054688 1437.523438 840.949219 1437.097656 840.859375 1436.753906 C 840.679688 1436.0625 840.570312 1435.695312 840.570312 1435.695312 C 840.570312 1435.695312 840.457031 1436.0625 840.28125 1436.753906 C 840.191406 1437.097656 840.082031 1437.523438 839.964844 1438.023438 C 839.90625 1438.273438 839.84375 1438.542969 839.777344 1438.832031 C 839.710938 1439.117188 839.644531 1439.421875 839.574219 1439.746094 C 839.285156 1441.03125 838.972656 1442.597656 838.652344 1444.394531 C 838.332031 1446.1875 838.003906 1448.214844 837.695312 1450.421875 C 837.074219 1454.839844 836.53125 1459.996094 836.167969 1465.515625 C 835.984375 1468.277344 835.839844 1471.132812 835.75 1474.03125 C 835.710938 1475.316406 835.683594 1476.613281 835.660156 1477.917969 C 834.359375 1477.941406 833.066406 1477.972656 831.78125 1478.011719 C 828.878906 1478.101562 826.027344 1478.246094 823.265625 1478.429688 C 817.742188 1478.800781 812.585938 1479.34375 808.167969 1479.960938 C 805.960938 1480.269531 803.9375 1480.59375 802.140625 1480.914062 C 800.34375 1481.234375 798.78125 1481.546875 797.492188 1481.832031 C 797.167969 1481.902344 796.867188 1481.96875 796.578125 1482.03125 C 796.292969 1482.097656 796.023438 1482.164062 795.773438 1482.222656 C 795.273438 1482.339844 794.84375 1482.445312 794.5 1482.535156 C 793.8125 1482.710938 793.441406 1482.820312 793.441406 1482.820312 C 793.441406 1482.820312 793.8125 1482.929688 794.5 1483.109375 C 794.84375 1483.195312 795.273438 1483.304688 795.773438 1483.421875 C 796.023438 1483.480469 796.292969 1483.542969 796.578125 1483.609375 C 796.867188 1483.675781 797.167969 1483.742188 797.492188 1483.8125 C 798.78125 1484.097656 800.34375 1484.40625 802.140625 1484.730469 C 803.9375 1485.050781 805.960938 1485.375 808.167969 1485.683594 C 812.585938 1486.300781 817.742188 1486.84375 823.265625 1487.210938 C 826.027344 1487.394531 828.878906 1487.539062 831.78125 1487.632812 C 833.066406 1487.671875 834.363281 1487.703125 835.664062 1487.726562 C 835.6875 1489.027344 835.71875 1490.324219 835.757812 1491.613281 C 835.851562 1494.511719 835.996094 1497.363281 836.179688 1500.125 C 836.546875 1505.648438 837.089844 1510.804688 837.707031 1515.222656 C 838.015625 1517.429688 838.339844 1519.457031 838.660156 1521.25 C 838.984375 1523.046875 839.292969 1524.609375 839.578125 1525.898438 C 839.648438 1526.222656 839.714844 1526.523438 839.78125 1526.8125 C 839.847656 1527.097656 839.910156 1527.371094 839.96875 1527.621094 C 840.085938 1528.121094 840.195312 1528.546875 840.285156 1528.890625 C 840.460938 1529.582031 840.570312 1529.949219 840.570312 1529.949219 C 840.570312 1529.949219 840.679688 1529.582031 840.855469 1528.890625 C 840.945312 1528.546875 841.050781 1528.121094 841.167969 1527.621094 C 841.226562 1527.371094 841.289062 1527.097656 841.359375 1526.8125 C 841.421875 1526.523438 841.488281 1526.222656 841.558594 1525.898438 C 841.84375 1524.609375 842.15625 1523.046875 842.476562 1521.25 C 842.796875 1519.457031 843.121094 1517.429688 843.429688 1515.222656 C 844.046875 1510.804688 844.589844 1505.648438 844.957031 1500.125 C 845.144531 1497.363281 845.285156 1494.511719 845.378906 1491.613281 C 845.417969 1490.328125 845.449219 1489.03125 845.476562 1487.730469 C 846.777344 1487.710938 848.074219 1487.679688 849.359375 1487.640625 C 852.257812 1487.550781 855.113281 1487.40625 857.871094 1487.222656 C 863.398438 1486.859375 868.550781 1486.316406 872.96875 1485.695312 C 875.175781 1485.386719 877.203125 1485.058594 878.996094 1484.738281 C 880.792969 1484.417969 882.359375 1484.105469 883.644531 1483.816406 C 883.96875 1483.746094 884.273438 1483.679688 884.558594 1483.617188 C 884.847656 1483.546875 885.117188 1483.484375 885.367188 1483.425781 C 885.867188 1483.308594 886.292969 1483.199219 886.636719 1483.109375 C 887.328125 1482.929688 887.695312 1482.820312 887.695312 1482.820312 C 887.695312 1482.820312 887.328125 1482.710938 886.636719 1482.535156 "/>
<path style=" stroke:none;fill-rule:nonzero;fill:rgb(53.48053%,59.672546%,78.315735%);fill-opacity:1;" d="M 511.457031 1739.875 C 511.113281 1739.785156 510.6875 1739.675781 510.1875 1739.5625 C 509.9375 1739.5 509.667969 1739.4375 509.378906 1739.367188 C 509.09375 1739.304688 508.789062 1739.238281 508.464844 1739.167969 C 507.179688 1738.878906 505.613281 1738.566406 503.816406 1738.246094 C 502.023438 1737.925781 499.996094 1737.597656 497.789062 1737.289062 C 493.371094 1736.667969 488.21875 1736.125 482.691406 1735.761719 C 479.933594 1735.578125 477.078125 1735.433594 474.179688 1735.347656 C 472.894531 1735.304688 471.597656 1735.277344 470.300781 1735.253906 C 470.277344 1733.953125 470.246094 1732.65625 470.207031 1731.371094 C 470.117188 1728.472656 469.972656 1725.621094 469.789062 1722.859375 C 469.425781 1717.335938 468.882812 1712.183594 468.265625 1707.765625 C 467.953125 1705.554688 467.628906 1703.527344 467.308594 1701.734375 C 466.984375 1699.941406 466.671875 1698.375 466.386719 1697.085938 C 466.3125 1696.765625 466.246094 1696.460938 466.183594 1696.171875 C 466.117188 1695.886719 466.050781 1695.617188 465.992188 1695.367188 C 465.875 1694.867188 465.769531 1694.441406 465.679688 1694.097656 C 465.5 1693.402344 465.390625 1693.035156 465.390625 1693.035156 C 465.390625 1693.035156 465.277344 1693.402344 465.101562 1694.097656 C 465.011719 1694.441406 464.902344 1694.867188 464.785156 1695.367188 C 464.726562 1695.617188 464.664062 1695.886719 464.597656 1696.171875 C 464.53125 1696.460938 464.464844 1696.765625 464.394531 1697.085938 C 464.105469 1698.375 463.792969 1699.941406 463.472656 1701.734375 C 463.152344 1703.527344 462.824219 1705.554688 462.515625 1707.765625 C 461.894531 1712.183594 461.351562 1717.335938 460.988281 1722.859375 C 460.804688 1725.621094 460.660156 1728.472656 460.570312 1731.371094 C 460.53125 1732.660156 460.503906 1733.957031 460.480469 1735.257812 C 459.179688 1735.28125 457.886719 1735.3125 456.601562 1735.355469 C 453.699219 1735.445312 450.847656 1735.589844 448.085938 1735.773438 C 442.5625 1736.140625 437.40625 1736.683594 432.988281 1737.304688 C 430.78125 1737.609375 428.757812 1737.9375 426.960938 1738.257812 C 425.164062 1738.578125 423.601562 1738.886719 422.3125 1739.175781 C 421.988281 1739.242188 421.6875 1739.3125 421.398438 1739.375 C 421.113281 1739.441406 420.84375 1739.503906 420.59375 1739.5625 C 420.09375 1739.679688 419.664062 1739.789062 419.320312 1739.878906 C 418.632812 1740.054688 418.261719 1740.164062 418.261719 1740.164062 C 418.261719 1740.164062 418.632812 1740.273438 419.320312 1740.449219 C 419.664062 1740.539062 420.09375 1740.648438 420.59375 1740.765625 C 420.84375 1740.820312 421.113281 1740.886719 421.398438 1740.953125 C 421.6875 1741.015625 421.988281 1741.082031 422.3125 1741.152344 C 423.601562 1741.441406 425.164062 1741.75 426.960938 1742.070312 C 428.757812 1742.390625 430.78125 1742.71875 432.988281 1743.023438 C 437.40625 1743.644531 442.5625 1744.1875 448.085938 1744.554688 C 450.847656 1744.738281 453.699219 1744.882812 456.601562 1744.972656 C 457.886719 1745.015625 459.183594 1745.046875 460.484375 1745.066406 C 460.507812 1746.371094 460.539062 1747.667969 460.578125 1748.953125 C 460.671875 1751.855469 460.816406 1754.707031 461 1757.46875 C 461.367188 1762.988281 461.910156 1768.144531 462.527344 1772.5625 C 462.835938 1774.773438 463.160156 1776.796875 463.480469 1778.59375 C 463.804688 1780.386719 464.113281 1781.953125 464.398438 1783.238281 C 464.46875 1783.5625 464.535156 1783.867188 464.601562 1784.152344 C 464.667969 1784.441406 464.730469 1784.710938 464.789062 1784.960938 C 464.90625 1785.460938 465.015625 1785.886719 465.105469 1786.230469 C 465.28125 1786.921875 465.390625 1787.289062 465.390625 1787.289062 C 465.390625 1787.289062 465.5 1786.921875 465.675781 1786.230469 C 465.765625 1785.886719 465.871094 1785.460938 465.988281 1784.960938 C 466.046875 1784.710938 466.109375 1784.441406 466.179688 1784.152344 C 466.242188 1783.867188 466.308594 1783.5625 466.378906 1783.238281 C 466.664062 1781.953125 466.976562 1780.386719 467.296875 1778.59375 C 467.617188 1776.796875 467.941406 1774.773438 468.25 1772.5625 C 468.867188 1768.144531 469.410156 1762.988281 469.777344 1757.46875 C 469.964844 1754.707031 470.105469 1751.855469 470.199219 1748.953125 C 470.238281 1747.667969 470.269531 1746.371094 470.296875 1745.074219 C 471.597656 1745.050781 472.894531 1745.023438 474.179688 1744.980469 C 477.078125 1744.894531 479.933594 1744.746094 482.691406 1744.566406 C 488.21875 1744.199219 493.371094 1743.65625 497.789062 1743.039062 C 499.996094 1742.730469 502.023438 1742.402344 503.816406 1742.082031 C 505.613281 1741.757812 507.179688 1741.445312 508.464844 1741.160156 C 508.789062 1741.089844 509.09375 1741.023438 509.378906 1740.957031 C 509.667969 1740.890625 509.9375 1740.824219 510.1875 1740.765625 C 510.6875 1740.648438 511.113281 1740.539062 511.457031 1740.449219 C 512.148438 1740.273438 512.515625 1740.164062 512.515625 1740.164062 C 512.515625 1740.164062 512.148438 1740.054688 511.457031 1739.875 "/>
<path style=" stroke:none;fill-rule:nonzero;fill:rgb(53.48053%,59.672546%,78.315735%);fill-opacity:1;" d="M 1370.15625 727.921875 C 1369.8125 727.832031 1369.386719 727.722656 1368.886719 727.605469 C 1368.636719 727.546875 1368.367188 727.484375 1368.082031 727.414062 C 1367.792969 727.351562 1367.488281 727.285156 1367.167969 727.214844 C 1365.878906 726.925781 1364.3125 726.613281 1362.519531 726.292969 C 1360.722656 725.972656 1358.699219 725.644531 1356.488281 725.335938 C 1352.070312 724.714844 1346.917969 724.171875 1341.394531 723.808594 C 1338.632812 723.625 1335.777344 723.480469 1332.878906 723.390625 C 1331.59375 723.351562 1330.300781 723.320312 1329 723.300781 C 1328.976562 722 1328.945312 720.703125 1328.90625 719.417969 C 1328.820312 716.519531 1328.675781 713.664062 1328.492188 710.90625 C 1328.128906 705.382812 1327.585938 700.226562 1326.964844 695.808594 C 1326.652344 693.601562 1326.328125 691.574219 1326.007812 689.78125 C 1325.683594 687.984375 1325.375 686.421875 1325.085938 685.132812 C 1325.015625 684.8125 1324.945312 684.503906 1324.882812 684.21875 C 1324.816406 683.933594 1324.753906 683.664062 1324.691406 683.410156 C 1324.578125 682.910156 1324.46875 682.484375 1324.378906 682.140625 C 1324.199219 681.449219 1324.089844 681.082031 1324.089844 681.082031 C 1324.089844 681.082031 1323.980469 681.449219 1323.800781 682.140625 C 1323.710938 682.484375 1323.601562 682.910156 1323.484375 683.410156 C 1323.425781 683.664062 1323.363281 683.933594 1323.296875 684.21875 C 1323.230469 684.503906 1323.164062 684.8125 1323.09375 685.132812 C 1322.804688 686.421875 1322.496094 687.984375 1322.171875 689.78125 C 1321.851562 691.574219 1321.523438 693.601562 1321.214844 695.808594 C 1320.59375 700.226562 1320.050781 705.382812 1319.6875 710.90625 C 1319.507812 713.664062 1319.359375 716.519531 1319.269531 719.417969 C 1319.230469 720.707031 1319.203125 722.003906 1319.179688 723.304688 C 1317.878906 723.328125 1316.585938 723.359375 1315.300781 723.402344 C 1312.398438 723.492188 1309.546875 723.636719 1306.785156 723.820312 C 1301.261719 724.1875 1296.109375 724.730469 1291.6875 725.347656 C 1289.480469 725.65625 1287.457031 725.984375 1285.660156 726.300781 C 1283.867188 726.621094 1282.300781 726.933594 1281.011719 727.21875 C 1280.691406 727.289062 1280.386719 727.355469 1280.097656 727.417969 C 1279.8125 727.488281 1279.542969 727.550781 1279.292969 727.609375 C 1278.792969 727.726562 1278.367188 727.832031 1278.019531 727.921875 C 1277.332031 728.101562 1276.964844 728.207031 1276.964844 728.207031 C 1276.964844 728.207031 1277.332031 728.320312 1278.019531 728.496094 C 1278.367188 728.585938 1278.792969 728.691406 1279.292969 728.808594 C 1279.542969 728.867188 1279.8125 728.933594 1280.097656 729 C 1280.386719 729.0625 1280.691406 729.128906 1281.011719 729.199219 C 1282.300781 729.484375 1283.867188 729.796875 1285.660156 730.117188 C 1287.457031 730.4375 1289.480469 730.761719 1291.6875 731.070312 C 1296.109375 731.691406 1301.261719 732.230469 1306.785156 732.601562 C 1309.546875 732.785156 1312.398438 732.929688 1315.300781 733.019531 C 1316.585938 733.058594 1317.882812 733.089844 1319.183594 733.113281 C 1319.207031 734.414062 1319.238281 735.714844 1319.28125 737 C 1319.371094 739.898438 1319.515625 742.753906 1319.699219 745.515625 C 1320.066406 751.035156 1320.609375 756.191406 1321.226562 760.609375 C 1321.539062 762.816406 1321.863281 764.84375 1322.183594 766.636719 C 1322.503906 768.433594 1322.8125 769.996094 1323.097656 771.285156 C 1323.171875 771.609375 1323.238281 771.914062 1323.300781 772.199219 C 1323.367188 772.488281 1323.429688 772.757812 1323.488281 773.007812 C 1323.605469 773.507812 1323.714844 773.933594 1323.804688 774.277344 C 1323.980469 774.96875 1324.089844 775.335938 1324.089844 775.335938 C 1324.089844 775.335938 1324.199219 774.96875 1324.375 774.277344 C 1324.464844 773.933594 1324.574219 773.507812 1324.6875 773.007812 C 1324.75 772.757812 1324.8125 772.488281 1324.878906 772.199219 C 1324.941406 771.914062 1325.007812 771.609375 1325.082031 771.285156 C 1325.367188 769.996094 1325.675781 768.433594 1325.996094 766.636719 C 1326.316406 764.84375 1326.640625 762.816406 1326.949219 760.609375 C 1327.570312 756.191406 1328.113281 751.035156 1328.480469 745.515625 C 1328.664062 742.753906 1328.808594 739.898438 1328.898438 737 C 1328.9375 735.714844 1328.96875 734.417969 1328.996094 733.117188 C 1330.296875 733.097656 1331.59375 733.066406 1332.878906 733.027344 C 1335.777344 732.941406 1338.632812 732.792969 1341.394531 732.609375 C 1346.917969 732.246094 1352.070312 731.703125 1356.488281 731.082031 C 1358.699219 730.773438 1360.722656 730.449219 1362.519531 730.125 C 1364.3125 729.804688 1365.878906 729.492188 1367.167969 729.203125 C 1367.488281 729.132812 1367.792969 729.066406 1368.082031 729.003906 C 1368.367188 728.9375 1368.636719 728.871094 1368.886719 728.8125 C 1369.386719 728.695312 1369.8125 728.585938 1370.15625 728.496094 C 1370.847656 728.320312 1371.21875 728.207031 1371.21875 728.207031 C 1371.21875 728.207031 1370.847656 728.097656 1370.15625 727.921875 "/>
<path style=" stroke:none;fill-rule:nonzero;fill:rgb(53.48053%,59.672546%,78.315735%);fill-opacity:1;" d="M 771.785156 1072.28125 C 771.4375 1072.191406 771.015625 1072.082031 770.515625 1071.964844 C 770.265625 1071.90625 769.996094 1071.84375 769.707031 1071.773438 C 769.421875 1071.710938 769.117188 1071.644531 768.792969 1071.574219 C 767.503906 1071.285156 765.941406 1070.972656 764.144531 1070.652344 C 762.351562 1070.332031 760.324219 1070.003906 758.117188 1069.695312 C 753.699219 1069.074219 748.542969 1068.53125 743.019531 1068.167969 C 740.261719 1067.984375 737.40625 1067.839844 734.507812 1067.75 C 733.222656 1067.710938 731.925781 1067.679688 730.628906 1067.660156 C 730.601562 1066.359375 730.574219 1065.0625 730.535156 1063.777344 C 730.445312 1060.878906 730.300781 1058.023438 730.117188 1055.265625 C 729.753906 1049.742188 729.210938 1044.585938 728.589844 1040.167969 C 728.28125 1037.960938 727.957031 1035.933594 727.632812 1034.140625 C 727.3125 1032.34375 727 1030.78125 726.714844 1029.492188 C 726.640625 1029.171875 726.574219 1028.863281 726.511719 1028.578125 C 726.441406 1028.292969 726.378906 1028.023438 726.320312 1027.769531 C 726.203125 1027.269531 726.09375 1026.84375 726.003906 1026.5 C 725.828125 1025.808594 725.71875 1025.441406 725.71875 1025.441406 C 725.71875 1025.441406 725.605469 1025.808594 725.429688 1026.5 C 725.339844 1026.84375 725.230469 1027.269531 725.113281 1027.769531 C 725.054688 1028.023438 724.988281 1028.292969 724.921875 1028.578125 C 724.859375 1028.863281 724.792969 1029.171875 724.722656 1029.492188 C 724.433594 1030.78125 724.121094 1032.34375 723.800781 1034.140625 C 723.476562 1035.933594 723.152344 1037.960938 722.84375 1040.167969 C 722.222656 1044.585938 721.679688 1049.742188 721.3125 1055.265625 C 721.132812 1058.023438 720.984375 1060.878906 720.898438 1063.777344 C 720.859375 1065.066406 720.828125 1066.363281 720.804688 1067.664062 C 719.507812 1067.6875 718.210938 1067.71875 716.925781 1067.761719 C 714.027344 1067.851562 711.175781 1067.996094 708.414062 1068.179688 C 702.890625 1068.546875 697.734375 1069.089844 693.316406 1069.707031 C 691.105469 1070.015625 689.082031 1070.34375 687.289062 1070.660156 C 685.492188 1070.980469 683.929688 1071.292969 682.640625 1071.578125 C 682.316406 1071.648438 682.011719 1071.714844 681.726562 1071.78125 C 681.4375 1071.847656 681.171875 1071.910156 680.921875 1071.96875 C 680.417969 1072.085938 679.992188 1072.191406 679.648438 1072.28125 C 678.957031 1072.460938 678.589844 1072.566406 678.589844 1072.566406 C 678.589844 1072.566406 678.957031 1072.679688 679.648438 1072.855469 C 679.992188 1072.945312 680.417969 1073.050781 680.921875 1073.167969 C 681.171875 1073.226562 681.4375 1073.292969 681.726562 1073.359375 C 682.011719 1073.421875 682.316406 1073.488281 682.640625 1073.558594 C 683.929688 1073.84375 685.492188 1074.15625 687.289062 1074.476562 C 689.082031 1074.796875 691.105469 1075.121094 693.316406 1075.429688 C 697.734375 1076.050781 702.890625 1076.589844 708.414062 1076.960938 C 711.175781 1077.144531 714.027344 1077.289062 716.925781 1077.378906 C 718.214844 1077.417969 719.511719 1077.449219 720.8125 1077.472656 C 720.835938 1078.773438 720.867188 1080.074219 720.90625 1081.359375 C 721 1084.257812 721.140625 1087.113281 721.328125 1089.875 C 721.695312 1095.394531 722.234375 1100.550781 722.855469 1104.96875 C 723.164062 1107.175781 723.488281 1109.203125 723.808594 1110.996094 C 724.128906 1112.792969 724.4375 1114.355469 724.726562 1115.644531 C 724.796875 1115.96875 724.863281 1116.273438 724.925781 1116.558594 C 724.996094 1116.847656 725.058594 1117.117188 725.117188 1117.367188 C 725.230469 1117.867188 725.34375 1118.292969 725.429688 1118.636719 C 725.605469 1119.328125 725.71875 1119.695312 725.71875 1119.695312 C 725.71875 1119.695312 725.828125 1119.328125 726.003906 1118.636719 C 726.09375 1118.292969 726.199219 1117.867188 726.316406 1117.367188 C 726.375 1117.117188 726.4375 1116.847656 726.507812 1116.558594 C 726.570312 1116.273438 726.636719 1115.96875 726.707031 1115.644531 C 726.992188 1114.355469 727.304688 1112.792969 727.625 1110.996094 C 727.941406 1109.203125 728.269531 1107.175781 728.578125 1104.96875 C 729.195312 1100.550781 729.738281 1095.394531 730.105469 1089.875 C 730.292969 1087.113281 730.433594 1084.257812 730.527344 1081.359375 C 730.566406 1080.074219 730.597656 1078.777344 730.621094 1077.476562 C 731.921875 1077.457031 733.21875 1077.425781 734.507812 1077.386719 C 737.40625 1077.300781 740.261719 1077.152344 743.019531 1076.96875 C 748.542969 1076.605469 753.699219 1076.0625 758.117188 1075.441406 C 760.324219 1075.132812 762.351562 1074.808594 764.144531 1074.484375 C 765.941406 1074.164062 767.503906 1073.851562 768.792969 1073.5625 C 769.117188 1073.492188 769.421875 1073.425781 769.707031 1073.363281 C 769.996094 1073.296875 770.265625 1073.230469 770.515625 1073.171875 C 771.015625 1073.054688 771.4375 1072.945312 771.785156 1072.855469 C 772.476562 1072.679688 772.84375 1072.566406 772.84375 1072.566406 C 772.84375 1072.566406 772.476562 1072.457031 771.785156 1072.28125 "/>
<path style=" stroke:none;fill-rule:nonzero;fill:rgb(53.48053%,59.672546%,78.315735%);fill-opacity:1;" d="M 1853.804688 1503.894531 C 1853.460938 1503.804688 1853.035156 1503.695312 1852.535156 1503.578125 C 1852.285156 1503.519531 1852.015625 1503.457031 1851.726562 1503.386719 C 1851.441406 1503.324219 1851.136719 1503.257812 1850.8125 1503.1875 C 1849.527344 1502.898438 1847.960938 1502.585938 1846.164062 1502.265625 C 1844.371094 1501.945312 1842.34375 1501.617188 1840.136719 1501.308594 C 1835.71875 1500.6875 1830.566406 1500.144531 1825.039062 1499.78125 C 1822.28125 1499.597656 1819.425781 1499.453125 1816.527344 1499.363281 C 1815.242188 1499.324219 1813.945312 1499.292969 1812.648438 1499.273438 C 1812.625 1497.972656 1812.59375 1496.675781 1812.554688 1495.390625 C 1812.464844 1492.492188 1812.320312 1489.636719 1812.140625 1486.878906 C 1811.773438 1481.355469 1811.230469 1476.199219 1810.613281 1471.78125 C 1810.300781 1469.574219 1809.976562 1467.546875 1809.65625 1465.753906 C 1809.332031 1463.957031 1809.019531 1462.394531 1808.734375 1461.105469 C 1808.660156 1460.785156 1808.59375 1460.476562 1808.53125 1460.191406 C 1808.464844 1459.90625 1808.398438 1459.636719 1808.339844 1459.382812 C 1808.222656 1458.882812 1808.117188 1458.457031 1808.027344 1458.113281 C 1807.847656 1457.421875 1807.738281 1457.054688 1807.738281 1457.054688 C 1807.738281 1457.054688 1807.625 1457.421875 1807.449219 1458.113281 C 1807.359375 1458.457031 1807.25 1458.882812 1807.132812 1459.382812 C 1807.074219 1459.636719 1807.011719 1459.90625 1806.945312 1460.191406 C 1806.878906 1460.476562 1806.8125 1460.785156 1806.742188 1461.105469 C 1806.453125 1462.394531 1806.140625 1463.957031 1805.820312 1465.753906 C 1805.5 1467.546875 1805.171875 1469.574219 1804.863281 1471.78125 C 1804.242188 1476.199219 1803.699219 1481.355469 1803.335938 1486.878906 C 1803.152344 1489.636719 1803.007812 1492.492188 1802.917969 1495.390625 C 1802.878906 1496.679688 1802.851562 1497.976562 1802.828125 1499.277344 C 1801.527344 1499.300781 1800.234375 1499.332031 1798.949219 1499.375 C 1796.046875 1499.464844 1793.195312 1499.609375 1790.433594 1499.792969 C 1784.910156 1500.160156 1779.753906 1500.703125 1775.335938 1501.320312 C 1773.128906 1501.628906 1771.105469 1501.957031 1769.308594 1502.273438 C 1767.515625 1502.59375 1765.949219 1502.90625 1764.660156 1503.191406 C 1764.335938 1503.261719 1764.035156 1503.328125 1763.746094 1503.390625 C 1763.460938 1503.460938 1763.191406 1503.523438 1762.941406 1503.582031 C 1762.441406 1503.699219 1762.015625 1503.804688 1761.667969 1503.894531 C 1760.980469 1504.074219 1760.609375 1504.179688 1760.609375 1504.179688 C 1760.609375 1504.179688 1760.980469 1504.292969 1761.667969 1504.46875 C 1762.015625 1504.558594 1762.441406 1504.664062 1762.941406 1504.78125 C 1763.191406 1504.839844 1763.460938 1504.90625 1763.746094 1504.972656 C 1764.035156 1505.035156 1764.335938 1505.101562 1764.660156 1505.171875 C 1765.949219 1505.457031 1767.515625 1505.769531 1769.308594 1506.089844 C 1771.105469 1506.410156 1773.128906 1506.734375 1775.335938 1507.042969 C 1779.753906 1507.664062 1784.910156 1508.203125 1790.433594 1508.574219 C 1793.195312 1508.757812 1796.046875 1508.902344 1798.949219 1508.992188 C 1800.234375 1509.03125 1801.53125 1509.0625 1802.832031 1509.085938 C 1802.855469 1510.386719 1802.886719 1511.683594 1802.925781 1512.972656 C 1803.019531 1515.871094 1803.164062 1518.726562 1803.347656 1521.488281 C 1803.714844 1527.007812 1804.257812 1532.164062 1804.875 1536.582031 C 1805.183594 1538.789062 1805.507812 1540.816406 1805.828125 1542.609375 C 1806.152344 1544.40625 1806.460938 1545.96875 1806.746094 1547.257812 C 1806.816406 1547.582031 1806.882812 1547.886719 1806.949219 1548.171875 C 1807.015625 1548.460938 1807.078125 1548.730469 1807.136719 1548.980469 C 1807.253906 1549.480469 1807.363281 1549.90625 1807.453125 1550.25 C 1807.628906 1550.941406 1807.738281 1551.308594 1807.738281 1551.308594 C 1807.738281 1551.308594 1807.847656 1550.941406 1808.023438 1550.25 C 1808.113281 1549.90625 1808.21875 1549.480469 1808.335938 1548.980469 C 1808.394531 1548.730469 1808.457031 1548.460938 1808.527344 1548.171875 C 1808.589844 1547.886719 1808.65625 1547.582031 1808.726562 1547.257812 C 1809.015625 1545.96875 1809.324219 1544.40625 1809.644531 1542.609375 C 1809.964844 1540.816406 1810.289062 1538.789062 1810.597656 1536.582031 C 1811.214844 1532.164062 1811.757812 1527.007812 1812.125 1521.488281 C 1812.3125 1518.726562 1812.453125 1515.871094 1812.546875 1512.972656 C 1812.585938 1511.6875 1812.617188 1510.390625 1812.644531 1509.089844 C 1813.945312 1509.070312 1815.242188 1509.039062 1816.527344 1509 C 1819.425781 1508.914062 1822.28125 1508.765625 1825.039062 1508.582031 C 1830.566406 1508.21875 1835.71875 1507.675781 1840.136719 1507.054688 C 1842.34375 1506.746094 1844.371094 1506.421875 1846.164062 1506.097656 C 1847.960938 1505.777344 1849.527344 1505.464844 1850.8125 1505.175781 C 1851.136719 1505.105469 1851.441406 1505.039062 1851.726562 1504.976562 C 1852.015625 1504.910156 1852.285156 1504.84375 1852.535156 1504.785156 C 1853.035156 1504.667969 1853.460938 1504.558594 1853.804688 1504.46875 C 1854.496094 1504.292969 1854.863281 1504.179688 1854.863281 1504.179688 C 1854.863281 1504.179688 1854.496094 1504.070312 1853.804688 1503.894531 "/>
<path style=" stroke:none;fill-rule:nonzero;fill:rgb(53.48053%,59.672546%,78.315735%);fill-opacity:1;" d="M 1370.15625 1645.621094 C 1369.8125 1645.53125 1369.386719 1645.425781 1368.886719 1645.308594 C 1368.636719 1645.246094 1368.367188 1645.183594 1368.082031 1645.117188 C 1367.796875 1645.054688 1367.488281 1644.984375 1367.167969 1644.914062 C 1365.878906 1644.628906 1364.3125 1644.316406 1362.519531 1643.992188 C 1360.722656 1643.671875 1358.699219 1643.34375 1356.488281 1643.035156 C 1352.070312 1642.414062 1346.917969 1641.871094 1341.394531 1641.507812 C 1338.632812 1641.324219 1335.78125 1641.179688 1332.882812 1641.09375 C 1331.59375 1641.050781 1330.300781 1641.023438 1329 1641 C 1328.976562 1639.699219 1328.949219 1638.40625 1328.90625 1637.121094 C 1328.820312 1634.222656 1328.675781 1631.367188 1328.492188 1628.605469 C 1328.128906 1623.082031 1327.585938 1617.929688 1326.964844 1613.511719 C 1326.65625 1611.300781 1326.328125 1609.277344 1326.007812 1607.480469 C 1325.683594 1605.6875 1325.375 1604.121094 1325.085938 1602.832031 C 1325.015625 1602.511719 1324.945312 1602.207031 1324.886719 1601.917969 C 1324.816406 1601.632812 1324.753906 1601.363281 1324.691406 1601.113281 C 1324.578125 1600.613281 1324.46875 1600.1875 1324.378906 1599.84375 C 1324.203125 1599.152344 1324.089844 1598.78125 1324.089844 1598.78125 C 1324.089844 1598.78125 1323.980469 1599.152344 1323.804688 1599.84375 C 1323.714844 1600.1875 1323.601562 1600.613281 1323.488281 1601.113281 C 1323.429688 1601.363281 1323.363281 1601.632812 1323.296875 1601.917969 C 1323.230469 1602.207031 1323.167969 1602.511719 1323.09375 1602.832031 C 1322.804688 1604.121094 1322.496094 1605.6875 1322.171875 1607.480469 C 1321.851562 1609.277344 1321.523438 1611.300781 1321.21875 1613.511719 C 1320.59375 1617.929688 1320.054688 1623.082031 1319.6875 1628.605469 C 1319.507812 1631.367188 1319.359375 1634.222656 1319.273438 1637.121094 C 1319.230469 1638.40625 1319.203125 1639.703125 1319.179688 1641.003906 C 1317.882812 1641.027344 1316.585938 1641.058594 1315.300781 1641.101562 C 1312.398438 1641.191406 1309.546875 1641.335938 1306.785156 1641.519531 C 1301.261719 1641.886719 1296.109375 1642.429688 1291.691406 1643.050781 C 1289.480469 1643.355469 1287.457031 1643.683594 1285.664062 1644.003906 C 1283.867188 1644.324219 1282.304688 1644.632812 1281.011719 1644.921875 C 1280.691406 1644.988281 1280.386719 1645.058594 1280.097656 1645.121094 C 1279.8125 1645.1875 1279.542969 1645.25 1279.292969 1645.308594 C 1278.792969 1645.425781 1278.367188 1645.535156 1278.019531 1645.625 C 1277.332031 1645.800781 1276.964844 1645.910156 1276.964844 1645.910156 C 1276.964844 1645.910156 1277.332031 1646.019531 1278.019531 1646.195312 C 1278.367188 1646.285156 1278.792969 1646.394531 1279.292969 1646.511719 C 1279.542969 1646.566406 1279.8125 1646.632812 1280.097656 1646.699219 C 1280.386719 1646.761719 1280.691406 1646.828125 1281.011719 1646.898438 C 1282.304688 1647.1875 1283.867188 1647.496094 1285.664062 1647.816406 C 1287.457031 1648.136719 1289.480469 1648.464844 1291.691406 1648.769531 C 1296.109375 1649.390625 1301.261719 1649.933594 1306.785156 1650.300781 C 1309.546875 1650.484375 1312.398438 1650.628906 1315.300781 1650.71875 C 1316.589844 1650.761719 1317.882812 1650.792969 1319.183594 1650.816406 C 1319.210938 1652.117188 1319.238281 1653.414062 1319.28125 1654.699219 C 1319.371094 1657.601562 1319.515625 1660.453125 1319.703125 1663.214844 C 1320.066406 1668.738281 1320.609375 1673.890625 1321.230469 1678.308594 C 1321.539062 1680.519531 1321.863281 1682.542969 1322.183594 1684.339844 C 1322.503906 1686.132812 1322.8125 1687.699219 1323.101562 1688.988281 C 1323.171875 1689.308594 1323.238281 1689.613281 1323.300781 1689.902344 C 1323.367188 1690.1875 1323.429688 1690.457031 1323.488281 1690.707031 C 1323.605469 1691.207031 1323.714844 1691.632812 1323.804688 1691.976562 C 1323.980469 1692.667969 1324.089844 1693.035156 1324.089844 1693.035156 C 1324.089844 1693.035156 1324.199219 1692.667969 1324.378906 1691.976562 C 1324.464844 1691.632812 1324.574219 1691.207031 1324.6875 1690.707031 C 1324.75 1690.457031 1324.8125 1690.1875 1324.878906 1689.902344 C 1324.941406 1689.613281 1325.011719 1689.308594 1325.082031 1688.988281 C 1325.367188 1687.699219 1325.675781 1686.132812 1326 1684.339844 C 1326.316406 1682.542969 1326.640625 1680.519531 1326.953125 1678.308594 C 1327.570312 1673.890625 1328.113281 1668.738281 1328.480469 1663.214844 C 1328.664062 1660.453125 1328.808594 1657.601562 1328.898438 1654.699219 C 1328.941406 1653.414062 1328.972656 1652.117188 1328.996094 1650.820312 C 1330.296875 1650.796875 1331.59375 1650.769531 1332.882812 1650.726562 C 1335.78125 1650.640625 1338.632812 1650.492188 1341.394531 1650.3125 C 1346.917969 1649.945312 1352.070312 1649.402344 1356.488281 1648.785156 C 1358.699219 1648.476562 1360.722656 1648.148438 1362.519531 1647.828125 C 1364.3125 1647.503906 1365.878906 1647.191406 1367.167969 1646.90625 C 1367.488281 1646.835938 1367.796875 1646.769531 1368.082031 1646.703125 C 1368.367188 1646.636719 1368.636719 1646.570312 1368.886719 1646.515625 C 1369.386719 1646.394531 1369.8125 1646.285156 1370.15625 1646.199219 C 1370.847656 1646.019531 1371.21875 1645.910156 1371.21875 1645.910156 C 1371.21875 1645.910156 1370.847656 1645.800781 1370.15625 1645.621094 "/>
<path style=" stroke:none;fill-rule:nonzero;fill:rgb(53.48053%,59.672546%,78.315735%);fill-opacity:1;" d="M 1836.371094 832.046875 C 1836.027344 831.957031 1835.601562 831.847656 1835.101562 831.734375 C 1834.851562 831.671875 1834.582031 831.609375 1834.296875 831.542969 C 1834.007812 831.480469 1833.703125 831.410156 1833.382812 831.339844 C 1832.09375 831.050781 1830.527344 830.742188 1828.734375 830.417969 C 1826.9375 830.097656 1824.914062 829.769531 1822.703125 829.460938 C 1818.285156 828.839844 1813.132812 828.296875 1807.609375 827.933594 C 1804.847656 827.75 1801.992188 827.605469 1799.09375 827.519531 C 1797.808594 827.476562 1796.515625 827.449219 1795.214844 827.425781 C 1795.191406 826.125 1795.164062 824.832031 1795.121094 823.546875 C 1795.035156 820.644531 1794.890625 817.792969 1794.707031 815.03125 C 1794.34375 809.507812 1793.800781 804.355469 1793.179688 799.9375 C 1792.867188 797.726562 1792.542969 795.703125 1792.222656 793.90625 C 1791.898438 792.113281 1791.589844 790.546875 1791.300781 789.257812 C 1791.230469 788.9375 1791.160156 788.632812 1791.097656 788.34375 C 1791.03125 788.058594 1790.96875 787.789062 1790.90625 787.539062 C 1790.789062 787.039062 1790.683594 786.613281 1790.59375 786.265625 C 1790.414062 785.578125 1790.304688 785.207031 1790.304688 785.207031 C 1790.304688 785.207031 1790.195312 785.578125 1790.015625 786.265625 C 1789.925781 786.613281 1789.816406 787.039062 1789.699219 787.539062 C 1789.640625 787.789062 1789.578125 788.058594 1789.511719 788.34375 C 1789.445312 788.632812 1789.378906 788.9375 1789.308594 789.257812 C 1789.019531 790.546875 1788.710938 792.113281 1788.386719 793.90625 C 1788.066406 795.703125 1787.738281 797.726562 1787.429688 799.9375 C 1786.808594 804.355469 1786.265625 809.507812 1785.902344 815.03125 C 1785.722656 817.792969 1785.574219 820.644531 1785.484375 823.546875 C 1785.445312 824.832031 1785.417969 826.128906 1785.394531 827.429688 C 1784.09375 827.453125 1782.800781 827.484375 1781.515625 827.527344 C 1778.613281 827.617188 1775.761719 827.761719 1773 827.945312 C 1767.476562 828.3125 1762.324219 828.855469 1757.90625 829.476562 C 1755.695312 829.78125 1753.671875 830.109375 1751.875 830.429688 C 1750.082031 830.75 1748.515625 831.058594 1747.226562 831.347656 C 1746.90625 831.414062 1746.601562 831.484375 1746.3125 831.546875 C 1746.027344 831.613281 1745.757812 831.675781 1745.507812 831.734375 C 1745.007812 831.851562 1744.582031 831.960938 1744.234375 832.050781 C 1743.546875 832.226562 1743.179688 832.335938 1743.179688 832.335938 C 1743.179688 832.335938 1743.546875 832.445312 1744.234375 832.621094 C 1744.582031 832.710938 1745.007812 832.820312 1745.507812 832.9375 C 1745.757812 832.992188 1746.027344 833.058594 1746.3125 833.125 C 1746.601562 833.1875 1746.90625 833.257812 1747.226562 833.324219 C 1748.515625 833.613281 1750.082031 833.921875 1751.875 834.242188 C 1753.671875 834.5625 1755.695312 834.890625 1757.90625 835.195312 C 1762.324219 835.816406 1767.476562 836.359375 1773 836.726562 C 1775.761719 836.910156 1778.613281 837.054688 1781.515625 837.144531 C 1782.800781 837.1875 1784.097656 837.21875 1785.398438 837.242188 C 1785.421875 838.542969 1785.453125 839.839844 1785.496094 841.125 C 1785.585938 844.027344 1785.730469 846.878906 1785.914062 849.640625 C 1786.28125 855.164062 1786.824219 860.316406 1787.441406 864.734375 C 1787.753906 866.945312 1788.078125 868.96875 1788.394531 870.765625 C 1788.71875 872.558594 1789.027344 874.125 1789.3125 875.414062 C 1789.386719 875.734375 1789.453125 876.039062 1789.515625 876.328125 C 1789.582031 876.613281 1789.644531 876.882812 1789.703125 877.132812 C 1789.820312 877.632812 1789.929688 878.058594 1790.019531 878.402344 C 1790.195312 879.09375 1790.304688 879.464844 1790.304688 879.464844 C 1790.304688 879.464844 1790.414062 879.09375 1790.589844 878.402344 C 1790.679688 878.058594 1790.789062 877.632812 1790.902344 877.132812 C 1790.964844 876.882812 1791.027344 876.613281 1791.09375 876.328125 C 1791.15625 876.039062 1791.222656 875.734375 1791.296875 875.414062 C 1791.582031 874.125 1791.890625 872.558594 1792.210938 870.765625 C 1792.53125 868.96875 1792.855469 866.945312 1793.164062 864.734375 C 1793.785156 860.316406 1794.328125 855.164062 1794.695312 849.640625 C 1794.878906 846.878906 1795.023438 844.027344 1795.113281 841.125 C 1795.15625 839.839844 1795.183594 838.542969 1795.210938 837.246094 C 1796.511719 837.222656 1797.808594 837.195312 1799.09375 837.152344 C 1801.992188 837.066406 1804.847656 836.917969 1807.609375 836.738281 C 1813.132812 836.375 1818.285156 835.832031 1822.703125 835.210938 C 1824.914062 834.902344 1826.9375 834.574219 1828.734375 834.253906 C 1830.527344 833.929688 1832.09375 833.617188 1833.382812 833.332031 C 1833.703125 833.261719 1834.007812 833.195312 1834.296875 833.128906 C 1834.582031 833.0625 1834.851562 832.996094 1835.101562 832.9375 C 1835.601562 832.820312 1836.027344 832.714844 1836.371094 832.625 C 1837.0625 832.445312 1837.433594 832.335938 1837.433594 832.335938 C 1837.433594 832.335938 1837.0625 832.226562 1836.371094 832.046875 "/>
<path style=" stroke:none;fill-rule:nonzero;fill:rgb(53.48053%,59.672546%,78.315735%);fill-opacity:1;" d="M 1464.414062 1047.832031 C 1464.066406 1047.742188 1463.640625 1047.636719 1463.140625 1047.519531 C 1462.890625 1047.457031 1462.625 1047.394531 1462.335938 1047.328125 C 1462.050781 1047.265625 1461.742188 1047.195312 1461.421875 1047.125 C 1460.132812 1046.839844 1458.566406 1046.523438 1456.773438 1046.203125 C 1454.976562 1045.882812 1452.953125 1045.554688 1450.742188 1045.246094 C 1446.324219 1044.625 1441.171875 1044.082031 1435.648438 1043.71875 C 1432.886719 1043.535156 1430.035156 1043.390625 1427.136719 1043.304688 C 1425.851562 1043.261719 1424.554688 1043.234375 1423.253906 1043.210938 C 1423.230469 1041.910156 1423.203125 1040.617188 1423.160156 1039.332031 C 1423.074219 1036.433594 1422.929688 1033.578125 1422.746094 1030.816406 C 1422.382812 1025.292969 1421.839844 1020.140625 1421.21875 1015.722656 C 1420.910156 1013.511719 1420.582031 1011.488281 1420.261719 1009.691406 C 1419.9375 1007.898438 1419.628906 1006.332031 1419.339844 1005.042969 C 1419.269531 1004.722656 1419.203125 1004.417969 1419.140625 1004.128906 C 1419.070312 1003.84375 1419.007812 1003.574219 1418.949219 1003.324219 C 1418.832031 1002.824219 1418.722656 1002.398438 1418.632812 1002.054688 C 1418.457031 1001.363281 1418.34375 1000.992188 1418.34375 1000.992188 C 1418.34375 1000.992188 1418.234375 1001.363281 1418.058594 1002.054688 C 1417.96875 1002.398438 1417.855469 1002.824219 1417.742188 1003.324219 C 1417.683594 1003.574219 1417.617188 1003.84375 1417.550781 1004.128906 C 1417.488281 1004.417969 1417.421875 1004.722656 1417.347656 1005.042969 C 1417.058594 1006.332031 1416.75 1007.898438 1416.425781 1009.691406 C 1416.105469 1011.488281 1415.777344 1013.511719 1415.472656 1015.722656 C 1414.851562 1020.140625 1414.308594 1025.292969 1413.941406 1030.816406 C 1413.761719 1033.578125 1413.613281 1036.433594 1413.527344 1039.332031 C 1413.484375 1040.617188 1413.457031 1041.914062 1413.433594 1043.214844 C 1412.136719 1043.238281 1410.839844 1043.269531 1409.554688 1043.3125 C 1406.652344 1043.402344 1403.800781 1043.546875 1401.039062 1043.730469 C 1395.515625 1044.097656 1390.363281 1044.640625 1385.945312 1045.261719 C 1383.734375 1045.566406 1381.710938 1045.894531 1379.917969 1046.214844 C 1378.121094 1046.535156 1376.558594 1046.84375 1375.265625 1047.132812 C 1374.945312 1047.199219 1374.640625 1047.269531 1374.351562 1047.332031 C 1374.066406 1047.398438 1373.796875 1047.460938 1373.546875 1047.519531 C 1373.046875 1047.636719 1372.621094 1047.746094 1372.277344 1047.835938 C 1371.585938 1048.011719 1371.21875 1048.121094 1371.21875 1048.121094 C 1371.21875 1048.121094 1371.585938 1048.230469 1372.277344 1048.40625 C 1372.621094 1048.496094 1373.046875 1048.605469 1373.546875 1048.722656 C 1373.796875 1048.777344 1374.066406 1048.84375 1374.351562 1048.910156 C 1374.640625 1048.972656 1374.945312 1049.039062 1375.265625 1049.109375 C 1376.558594 1049.398438 1378.121094 1049.707031 1379.917969 1050.027344 C 1381.710938 1050.347656 1383.734375 1050.675781 1385.945312 1050.980469 C 1390.363281 1051.601562 1395.515625 1052.144531 1401.039062 1052.511719 C 1403.800781 1052.695312 1406.652344 1052.839844 1409.554688 1052.929688 C 1410.839844 1052.972656 1412.136719 1053.003906 1413.4375 1053.027344 C 1413.464844 1054.328125 1413.492188 1055.625 1413.535156 1056.910156 C 1413.625 1059.8125 1413.769531 1062.664062 1413.957031 1065.425781 C 1414.320312 1070.949219 1414.863281 1076.101562 1415.484375 1080.519531 C 1415.792969 1082.730469 1416.117188 1084.753906 1416.4375 1086.550781 C 1416.757812 1088.34375 1417.066406 1089.910156 1417.355469 1091.195312 C 1417.425781 1091.519531 1417.492188 1091.824219 1417.554688 1092.109375 C 1417.621094 1092.398438 1417.683594 1092.667969 1417.746094 1092.917969 C 1417.859375 1093.417969 1417.96875 1093.84375 1418.058594 1094.1875 C 1418.234375 1094.878906 1418.34375 1095.246094 1418.34375 1095.246094 C 1418.34375 1095.246094 1418.453125 1094.878906 1418.632812 1094.1875 C 1418.71875 1093.84375 1418.828125 1093.417969 1418.945312 1092.917969 C 1419.003906 1092.667969 1419.066406 1092.398438 1419.136719 1092.109375 C 1419.195312 1091.824219 1419.265625 1091.519531 1419.335938 1091.195312 C 1419.621094 1089.910156 1419.929688 1088.34375 1420.253906 1086.550781 C 1420.570312 1084.753906 1420.894531 1082.730469 1421.207031 1080.519531 C 1421.824219 1076.101562 1422.367188 1070.949219 1422.734375 1065.425781 C 1422.921875 1062.664062 1423.0625 1059.8125 1423.152344 1056.910156 C 1423.195312 1055.625 1423.226562 1054.328125 1423.25 1053.03125 C 1424.550781 1053.007812 1425.847656 1052.980469 1427.136719 1052.9375 C 1430.035156 1052.851562 1432.886719 1052.703125 1435.648438 1052.523438 C 1441.171875 1052.15625 1446.324219 1051.613281 1450.742188 1050.996094 C 1452.953125 1050.6875 1454.976562 1050.359375 1456.773438 1050.039062 C 1458.566406 1049.714844 1460.132812 1049.402344 1461.421875 1049.117188 C 1461.742188 1049.046875 1462.050781 1048.980469 1462.335938 1048.914062 C 1462.625 1048.847656 1462.890625 1048.78125 1463.140625 1048.726562 C 1463.640625 1048.605469 1464.066406 1048.496094 1464.414062 1048.410156 C 1465.101562 1048.230469 1465.472656 1048.121094 1465.472656 1048.121094 C 1465.472656 1048.121094 1465.101562 1048.011719 1464.414062 1047.832031 "/>
<path style=" stroke:none;fill-rule:nonzero;fill:rgb(53.48053%,59.672546%,78.315735%);fill-opacity:1;" d="M 1417.285156 249.554688 C 1416.9375 249.464844 1416.515625 249.355469 1416.015625 249.238281 C 1415.765625 249.179688 1415.496094 249.117188 1415.207031 249.046875 C 1414.921875 248.984375 1414.617188 248.917969 1414.292969 248.84375 C 1413.003906 248.558594 1411.441406 248.246094 1409.644531 247.921875 C 1407.851562 247.601562 1405.828125 247.277344 1403.617188 246.964844 C 1399.199219 246.347656 1394.042969 245.804688 1388.519531 245.441406 C 1385.761719 245.257812 1382.90625 245.113281 1380.007812 245.023438 C 1378.722656 244.984375 1377.425781 244.953125 1376.128906 244.933594 C 1376.105469 243.632812 1376.074219 242.335938 1376.035156 241.050781 C 1375.945312 238.152344 1375.800781 235.296875 1375.621094 232.535156 C 1375.253906 227.015625 1374.710938 221.859375 1374.089844 217.441406 C 1373.78125 215.234375 1373.457031 213.207031 1373.136719 211.414062 C 1372.8125 209.617188 1372.5 208.050781 1372.214844 206.765625 C 1372.140625 206.441406 1372.074219 206.136719 1372.011719 205.851562 C 1371.941406 205.5625 1371.878906 205.292969 1371.820312 205.042969 C 1371.703125 204.542969 1371.59375 204.117188 1371.503906 203.773438 C 1371.328125 203.082031 1371.21875 202.714844 1371.21875 202.714844 C 1371.21875 202.714844 1371.105469 203.082031 1370.929688 203.773438 C 1370.839844 204.117188 1370.730469 204.542969 1370.613281 205.042969 C 1370.554688 205.292969 1370.488281 205.5625 1370.421875 205.851562 C 1370.359375 206.136719 1370.292969 206.441406 1370.222656 206.765625 C 1369.933594 208.050781 1369.621094 209.617188 1369.300781 211.414062 C 1368.976562 213.207031 1368.652344 215.234375 1368.34375 217.441406 C 1367.722656 221.859375 1367.179688 227.015625 1366.8125 232.535156 C 1366.632812 235.296875 1366.488281 238.152344 1366.398438 241.050781 C 1366.359375 242.339844 1366.328125 243.636719 1366.304688 244.9375 C 1365.007812 244.960938 1363.710938 244.992188 1362.425781 245.03125 C 1359.527344 245.121094 1356.675781 245.265625 1353.914062 245.453125 C 1348.390625 245.820312 1343.234375 246.363281 1338.816406 246.980469 C 1336.605469 247.289062 1334.582031 247.613281 1332.789062 247.933594 C 1330.992188 248.253906 1329.429688 248.566406 1328.140625 248.851562 C 1327.816406 248.921875 1327.511719 248.988281 1327.226562 249.050781 C 1326.9375 249.121094 1326.671875 249.183594 1326.421875 249.242188 C 1325.917969 249.359375 1325.496094 249.464844 1325.148438 249.554688 C 1324.457031 249.730469 1324.089844 249.839844 1324.089844 249.839844 C 1324.089844 249.839844 1324.457031 249.949219 1325.148438 250.128906 C 1325.496094 250.214844 1325.917969 250.324219 1326.421875 250.441406 C 1326.671875 250.5 1326.9375 250.5625 1327.226562 250.628906 C 1327.511719 250.695312 1327.816406 250.761719 1328.140625 250.832031 C 1329.429688 251.117188 1330.992188 251.425781 1332.789062 251.75 C 1334.582031 252.070312 1336.605469 252.394531 1338.816406 252.703125 C 1343.234375 253.320312 1348.390625 253.863281 1353.914062 254.230469 C 1356.675781 254.414062 1359.527344 254.558594 1362.425781 254.652344 C 1363.714844 254.691406 1365.011719 254.722656 1366.3125 254.746094 C 1366.335938 256.046875 1366.367188 257.34375 1366.40625 258.632812 C 1366.5 261.53125 1366.640625 264.382812 1366.828125 267.144531 C 1367.195312 272.667969 1367.738281 277.824219 1368.355469 282.242188 C 1368.664062 284.449219 1368.988281 286.476562 1369.308594 288.269531 C 1369.632812 290.066406 1369.941406 291.628906 1370.226562 292.917969 C 1370.296875 293.242188 1370.363281 293.546875 1370.429688 293.832031 C 1370.496094 294.117188 1370.558594 294.386719 1370.617188 294.640625 C 1370.730469 295.140625 1370.84375 295.566406 1370.929688 295.910156 C 1371.105469 296.601562 1371.21875 296.96875 1371.21875 296.96875 C 1371.21875 296.96875 1371.328125 296.601562 1371.503906 295.910156 C 1371.59375 295.566406 1371.703125 295.140625 1371.816406 294.640625 C 1371.875 294.386719 1371.9375 294.117188 1372.007812 293.832031 C 1372.070312 293.546875 1372.136719 293.242188 1372.207031 292.917969 C 1372.496094 291.628906 1372.804688 290.066406 1373.125 288.269531 C 1373.445312 286.476562 1373.769531 284.449219 1374.078125 282.242188 C 1374.695312 277.824219 1375.238281 272.667969 1375.605469 267.144531 C 1375.792969 264.382812 1375.933594 261.53125 1376.027344 258.632812 C 1376.066406 257.34375 1376.097656 256.050781 1376.121094 254.75 C 1377.421875 254.730469 1378.722656 254.699219 1380.007812 254.660156 C 1382.90625 254.570312 1385.761719 254.425781 1388.519531 254.242188 C 1394.042969 253.878906 1399.199219 253.335938 1403.617188 252.714844 C 1405.828125 252.40625 1407.851562 252.078125 1409.644531 251.757812 C 1411.441406 251.4375 1413.003906 251.125 1414.292969 250.835938 C 1414.617188 250.765625 1414.921875 250.699219 1415.207031 250.636719 C 1415.496094 250.566406 1415.765625 250.503906 1416.015625 250.445312 C 1416.515625 250.328125 1416.9375 250.21875 1417.285156 250.128906 C 1417.976562 249.953125 1418.34375 249.839844 1418.34375 249.839844 C 1418.34375 249.839844 1417.976562 249.730469 1417.285156 249.554688 "/>
<path style=" stroke:none;fill-rule:nonzero;fill:rgb(53.48053%,59.672546%,78.315735%);fill-opacity:1;" d="M 181.804688 317.523438 C 181.460938 317.429688 181.035156 317.324219 180.535156 317.207031 C 180.285156 317.148438 180.015625 317.082031 179.730469 317.015625 C 179.441406 316.953125 179.136719 316.882812 178.816406 316.8125 C 177.527344 316.527344 175.960938 316.214844 174.164062 315.890625 C 172.371094 315.570312 170.347656 315.246094 168.136719 314.933594 C 163.71875 314.316406 158.566406 313.773438 153.042969 313.40625 C 150.28125 313.226562 147.425781 313.078125 144.527344 312.992188 C 143.242188 312.953125 141.945312 312.921875 140.648438 312.898438 C 140.625 311.597656 140.59375 310.304688 140.554688 309.019531 C 140.464844 306.121094 140.320312 303.265625 140.140625 300.503906 C 139.777344 294.980469 139.230469 289.828125 138.613281 285.410156 C 138.300781 283.199219 137.976562 281.175781 137.65625 279.378906 C 137.332031 277.585938 137.019531 276.019531 136.734375 274.734375 C 136.660156 274.410156 136.59375 274.105469 136.53125 273.820312 C 136.464844 273.53125 136.398438 273.261719 136.339844 273.011719 C 136.222656 272.511719 136.117188 272.085938 136.027344 271.742188 C 135.847656 271.050781 135.738281 270.683594 135.738281 270.683594 C 135.738281 270.683594 135.625 271.050781 135.449219 271.742188 C 135.359375 272.085938 135.25 272.511719 135.132812 273.011719 C 135.074219 273.261719 135.011719 273.53125 134.945312 273.820312 C 134.878906 274.105469 134.8125 274.410156 134.742188 274.734375 C 134.453125 276.019531 134.144531 277.585938 133.820312 279.378906 C 133.5 281.175781 133.171875 283.199219 132.863281 285.410156 C 132.242188 289.828125 131.699219 294.980469 131.335938 300.503906 C 131.152344 303.265625 131.007812 306.121094 130.917969 309.019531 C 130.878906 310.304688 130.851562 311.601562 130.828125 312.90625 C 129.527344 312.925781 128.234375 312.960938 126.949219 313 C 124.046875 313.089844 121.195312 313.234375 118.433594 313.417969 C 112.910156 313.785156 107.753906 314.328125 103.335938 314.949219 C 101.128906 315.257812 99.105469 315.582031 97.308594 315.902344 C 95.515625 316.222656 93.949219 316.53125 92.660156 316.820312 C 92.335938 316.890625 92.035156 316.957031 91.746094 317.019531 C 91.460938 317.085938 91.191406 317.152344 90.941406 317.210938 C 90.441406 317.324219 90.015625 317.433594 89.667969 317.523438 C 88.980469 317.699219 88.609375 317.808594 88.609375 317.808594 C 88.609375 317.808594 88.980469 317.917969 89.667969 318.09375 C 90.015625 318.183594 90.441406 318.292969 90.941406 318.410156 C 91.191406 318.46875 91.460938 318.53125 91.746094 318.597656 C 92.035156 318.660156 92.335938 318.726562 92.660156 318.800781 C 93.949219 319.085938 95.515625 319.394531 97.308594 319.714844 C 99.105469 320.035156 101.128906 320.363281 103.335938 320.667969 C 107.753906 321.289062 112.910156 321.832031 118.433594 322.199219 C 121.195312 322.382812 124.046875 322.527344 126.949219 322.617188 C 128.234375 322.660156 129.53125 322.691406 130.832031 322.714844 C 130.855469 324.015625 130.886719 325.3125 130.925781 326.597656 C 131.019531 329.5 131.164062 332.351562 131.347656 335.113281 C 131.714844 340.636719 132.257812 345.789062 132.875 350.210938 C 133.183594 352.417969 133.507812 354.441406 133.828125 356.238281 C 134.152344 358.03125 134.460938 359.597656 134.746094 360.886719 C 134.816406 361.207031 134.882812 361.511719 134.949219 361.800781 C 135.015625 362.085938 135.078125 362.355469 135.136719 362.605469 C 135.253906 363.105469 135.363281 363.53125 135.453125 363.878906 C 135.628906 364.566406 135.738281 364.9375 135.738281 364.9375 C 135.738281 364.9375 135.847656 364.566406 136.023438 363.878906 C 136.113281 363.53125 136.222656 363.105469 136.335938 362.605469 C 136.394531 362.355469 136.460938 362.085938 136.527344 361.800781 C 136.589844 361.511719 136.65625 361.207031 136.726562 360.886719 C 137.015625 359.597656 137.324219 358.03125 137.644531 356.238281 C 137.964844 354.441406 138.289062 352.417969 138.597656 350.210938 C 139.214844 345.789062 139.757812 340.636719 140.125 335.113281 C 140.3125 332.351562 140.457031 329.5 140.546875 326.597656 C 140.585938 325.3125 140.617188 324.019531 140.644531 322.71875 C 141.945312 322.695312 143.242188 322.667969 144.527344 322.625 C 147.425781 322.539062 150.28125 322.394531 153.042969 322.210938 C 158.566406 321.847656 163.71875 321.304688 168.136719 320.683594 C 170.347656 320.375 172.371094 320.046875 174.164062 319.726562 C 175.960938 319.40625 177.527344 319.09375 178.816406 318.804688 C 179.136719 318.734375 179.441406 318.667969 179.730469 318.601562 C 180.015625 318.535156 180.285156 318.472656 180.535156 318.414062 C 181.035156 318.296875 181.460938 318.1875 181.804688 318.097656 C 182.496094 317.917969 182.863281 317.808594 182.863281 317.808594 C 182.863281 317.808594 182.496094 317.699219 181.804688 317.523438 "/>
<path style=" stroke:none;fill-rule:nonzero;fill:rgb(53.48053%,59.672546%,78.315735%);fill-opacity:1;" d="M 1853.804688 155.300781 C 1853.460938 155.210938 1853.035156 155.101562 1852.535156 154.984375 C 1852.285156 154.925781 1852.015625 154.863281 1851.730469 154.792969 C 1851.441406 154.730469 1851.136719 154.664062 1850.816406 154.59375 C 1849.527344 154.304688 1847.960938 153.992188 1846.164062 153.667969 C 1844.371094 153.347656 1842.347656 153.023438 1840.136719 152.710938 C 1835.71875 152.09375 1830.566406 151.550781 1825.042969 151.1875 C 1822.28125 151.003906 1819.425781 150.859375 1816.527344 150.769531 C 1815.242188 150.730469 1813.945312 150.699219 1812.648438 150.679688 C 1812.625 149.378906 1812.59375 148.082031 1812.554688 146.796875 C 1812.464844 143.898438 1812.320312 141.042969 1812.140625 138.28125 C 1811.777344 132.761719 1811.230469 127.605469 1810.613281 123.1875 C 1810.300781 120.980469 1809.976562 118.953125 1809.65625 117.160156 C 1809.332031 115.363281 1809.019531 113.796875 1808.734375 112.511719 C 1808.660156 112.1875 1808.59375 111.882812 1808.53125 111.597656 C 1808.464844 111.308594 1808.398438 111.039062 1808.339844 110.789062 C 1808.222656 110.289062 1808.117188 109.863281 1808.027344 109.519531 C 1807.847656 108.828125 1807.738281 108.460938 1807.738281 108.460938 C 1807.738281 108.460938 1807.625 108.828125 1807.449219 109.519531 C 1807.359375 109.863281 1807.25 110.289062 1807.132812 110.789062 C 1807.074219 111.039062 1807.011719 111.308594 1806.945312 111.597656 C 1806.878906 111.882812 1806.8125 112.1875 1806.742188 112.511719 C 1806.453125 113.796875 1806.144531 115.363281 1805.820312 117.160156 C 1805.5 118.953125 1805.171875 120.980469 1804.863281 123.1875 C 1804.242188 127.605469 1803.699219 132.761719 1803.335938 138.28125 C 1803.152344 141.042969 1803.007812 143.898438 1802.917969 146.796875 C 1802.878906 148.085938 1802.851562 149.382812 1802.828125 150.683594 C 1801.527344 150.707031 1800.234375 150.738281 1798.949219 150.777344 C 1796.046875 150.867188 1793.195312 151.011719 1790.433594 151.199219 C 1784.910156 151.566406 1779.753906 152.109375 1775.335938 152.726562 C 1773.128906 153.035156 1771.105469 153.359375 1769.308594 153.679688 C 1767.515625 154 1765.949219 154.3125 1764.660156 154.597656 C 1764.335938 154.667969 1764.035156 154.734375 1763.746094 154.796875 C 1763.460938 154.867188 1763.191406 154.929688 1762.941406 154.988281 C 1762.441406 155.105469 1762.015625 155.210938 1761.667969 155.300781 C 1760.980469 155.476562 1760.609375 155.585938 1760.609375 155.585938 C 1760.609375 155.585938 1760.980469 155.695312 1761.667969 155.875 C 1762.015625 155.960938 1762.441406 156.070312 1762.941406 156.1875 C 1763.191406 156.246094 1763.460938 156.308594 1763.746094 156.375 C 1764.035156 156.441406 1764.335938 156.507812 1764.660156 156.578125 C 1765.949219 156.863281 1767.515625 157.171875 1769.308594 157.496094 C 1771.105469 157.816406 1773.128906 158.140625 1775.335938 158.449219 C 1779.753906 159.066406 1784.910156 159.609375 1790.433594 159.976562 C 1793.195312 160.160156 1796.046875 160.304688 1798.949219 160.398438 C 1800.234375 160.4375 1801.53125 160.46875 1802.832031 160.492188 C 1802.855469 161.792969 1802.886719 163.089844 1802.925781 164.378906 C 1803.019531 167.277344 1803.164062 170.128906 1803.347656 172.890625 C 1803.714844 178.414062 1804.257812 183.570312 1804.875 187.988281 C 1805.183594 190.195312 1805.507812 192.222656 1805.828125 194.015625 C 1806.152344 195.8125 1806.460938 197.375 1806.746094 198.664062 C 1806.816406 198.988281 1806.882812 199.292969 1806.949219 199.578125 C 1807.015625 199.863281 1807.078125 200.132812 1807.136719 200.386719 C 1807.253906 200.886719 1807.363281 201.3125 1807.453125 201.65625 C 1807.628906 202.347656 1807.738281 202.714844 1807.738281 202.714844 C 1807.738281 202.714844 1807.847656 202.347656 1808.023438 201.65625 C 1808.113281 201.3125 1808.222656 200.886719 1808.335938 200.386719 C 1808.394531 200.132812 1808.460938 199.863281 1808.527344 199.578125 C 1808.589844 199.292969 1808.65625 198.988281 1808.726562 198.664062 C 1809.015625 197.375 1809.324219 195.8125 1809.644531 194.015625 C 1809.964844 192.222656 1810.289062 190.195312 1810.597656 187.988281 C 1811.214844 183.570312 1811.757812 178.414062 1812.125 172.890625 C 1812.3125 170.128906 1812.457031 167.277344 1812.546875 164.378906 C 1812.585938 163.09375 1812.617188 161.796875 1812.644531 160.496094 C 1813.945312 160.476562 1815.242188 160.445312 1816.527344 160.40625 C 1819.425781 160.316406 1822.28125 160.171875 1825.042969 159.988281 C 1830.566406 159.625 1835.71875 159.082031 1840.136719 158.460938 C 1842.347656 158.152344 1844.371094 157.824219 1846.164062 157.503906 C 1847.960938 157.183594 1849.527344 156.871094 1850.816406 156.582031 C 1851.136719 156.511719 1851.441406 156.445312 1851.730469 156.382812 C 1852.015625 156.3125 1852.285156 156.25 1852.535156 156.191406 C 1853.035156 156.074219 1853.460938 155.964844 1853.804688 155.875 C 1854.496094 155.699219 1854.863281 155.585938 1854.863281 155.585938 C 1854.863281 155.585938 1854.496094 155.476562 1853.804688 155.300781 "/>
<path style=" stroke:none;fill-rule:nonzero;fill:rgb(53.48053%,59.672546%,78.315735%);fill-opacity:1;" d="M 1075.144531 541.183594 C 1074.800781 541.09375 1074.375 540.984375 1073.875 540.867188 C 1073.625 540.808594 1073.355469 540.746094 1073.070312 540.675781 C 1072.78125 540.613281 1072.476562 540.546875 1072.15625 540.476562 C 1070.867188 540.1875 1069.300781 539.875 1067.503906 539.554688 C 1065.710938 539.230469 1063.683594 538.90625 1061.476562 538.597656 C 1057.058594 537.976562 1051.90625 537.433594 1046.378906 537.070312 C 1043.621094 536.886719 1040.765625 536.742188 1037.867188 536.652344 C 1036.582031 536.613281 1035.285156 536.582031 1033.988281 536.5625 C 1033.964844 535.261719 1033.933594 533.964844 1033.894531 532.679688 C 1033.804688 529.78125 1033.660156 526.929688 1033.476562 524.167969 C 1033.113281 518.644531 1032.570312 513.488281 1031.953125 509.070312 C 1031.640625 506.863281 1031.316406 504.835938 1030.996094 503.042969 C 1030.671875 501.246094 1030.359375 499.683594 1030.074219 498.394531 C 1030 498.070312 1029.933594 497.765625 1029.871094 497.480469 C 1029.804688 497.191406 1029.738281 496.925781 1029.679688 496.675781 C 1029.5625 496.171875 1029.453125 495.746094 1029.367188 495.402344 C 1029.1875 494.710938 1029.078125 494.34375 1029.078125 494.34375 C 1029.078125 494.34375 1028.964844 494.710938 1028.789062 495.402344 C 1028.699219 495.746094 1028.589844 496.171875 1028.472656 496.675781 C 1028.414062 496.925781 1028.351562 497.191406 1028.285156 497.480469 C 1028.21875 497.765625 1028.152344 498.070312 1028.082031 498.394531 C 1027.792969 499.683594 1027.484375 501.246094 1027.160156 503.042969 C 1026.835938 504.835938 1026.511719 506.863281 1026.203125 509.070312 C 1025.582031 513.488281 1025.039062 518.644531 1024.675781 524.167969 C 1024.492188 526.929688 1024.347656 529.78125 1024.257812 532.679688 C 1024.21875 533.96875 1024.191406 535.265625 1024.167969 536.566406 C 1022.867188 536.589844 1021.574219 536.621094 1020.289062 536.660156 C 1017.386719 536.753906 1014.535156 536.894531 1011.773438 537.082031 C 1006.25 537.449219 1001.09375 537.992188 996.675781 538.609375 C 994.46875 538.917969 992.445312 539.242188 990.648438 539.5625 C 988.851562 539.886719 987.289062 540.195312 986 540.480469 C 985.675781 540.550781 985.375 540.617188 985.085938 540.679688 C 984.796875 540.75 984.53125 540.8125 984.28125 540.871094 C 983.78125 540.988281 983.351562 541.097656 983.007812 541.183594 C 982.320312 541.363281 981.949219 541.472656 981.949219 541.472656 C 981.949219 541.472656 982.320312 541.582031 983.007812 541.757812 C 983.351562 541.847656 983.78125 541.953125 984.28125 542.070312 C 984.53125 542.128906 984.796875 542.191406 985.085938 542.261719 C 985.375 542.324219 985.675781 542.390625 986 542.460938 C 987.289062 542.75 988.851562 543.058594 990.648438 543.378906 C 992.445312 543.699219 994.46875 544.023438 996.675781 544.332031 C 1001.09375 544.949219 1006.25 545.492188 1011.773438 545.859375 C 1014.535156 546.046875 1017.386719 546.1875 1020.289062 546.28125 C 1021.574219 546.320312 1022.871094 546.351562 1024.171875 546.375 C 1024.195312 547.675781 1024.226562 548.972656 1024.265625 550.261719 C 1024.359375 553.160156 1024.5 556.015625 1024.6875 558.773438 C 1025.054688 564.296875 1025.597656 569.453125 1026.214844 573.871094 C 1026.523438 576.078125 1026.847656 578.105469 1027.167969 579.898438 C 1027.492188 581.695312 1027.800781 583.261719 1028.085938 584.546875 C 1028.15625 584.871094 1028.222656 585.175781 1028.289062 585.460938 C 1028.355469 585.75 1028.417969 586.019531 1028.476562 586.269531 C 1028.59375 586.769531 1028.703125 587.195312 1028.792969 587.539062 C 1028.96875 588.230469 1029.078125 588.597656 1029.078125 588.597656 C 1029.078125 588.597656 1029.1875 588.230469 1029.363281 587.539062 C 1029.453125 587.195312 1029.558594 586.769531 1029.675781 586.269531 C 1029.734375 586.019531 1029.796875 585.75 1029.867188 585.460938 C 1029.929688 585.175781 1029.996094 584.871094 1030.066406 584.546875 C 1030.351562 583.261719 1030.664062 581.695312 1030.984375 579.898438 C 1031.304688 578.105469 1031.628906 576.078125 1031.9375 573.871094 C 1032.554688 569.453125 1033.097656 564.296875 1033.464844 558.773438 C 1033.652344 556.015625 1033.792969 553.160156 1033.886719 550.261719 C 1033.925781 548.976562 1033.957031 547.679688 1033.984375 546.382812 C 1035.285156 546.359375 1036.582031 546.328125 1037.867188 546.289062 C 1040.765625 546.199219 1043.621094 546.054688 1046.378906 545.875 C 1051.90625 545.507812 1057.058594 544.964844 1061.476562 544.34375 C 1063.683594 544.035156 1065.710938 543.710938 1067.503906 543.386719 C 1069.300781 543.066406 1070.867188 542.753906 1072.15625 542.46875 C 1072.476562 542.394531 1072.78125 542.328125 1073.070312 542.265625 C 1073.355469 542.195312 1073.625 542.132812 1073.875 542.074219 C 1074.375 541.957031 1074.800781 541.847656 1075.144531 541.757812 C 1075.835938 541.582031 1076.203125 541.472656 1076.203125 541.472656 C 1076.203125 541.472656 1075.835938 541.359375 1075.144531 541.183594 "/>
</g>
</svg>
