<?xml version="1.0" encoding="UTF-8"?>
<svg xmlns="http://www.w3.org/2000/svg" xmlns:xlink="http://www.w3.org/1999/xlink" width="2000pt" height="2000pt" viewBox="0 0 2000 2000" version="1.1">
<g id="surface1">
<rect x="0" y="0" width="2000" height="2000" style="fill:rgb(10.165405%,14.424133%,26.649475%);fill-opacity:1;stroke:none;"/>
<path style=" stroke:none;fill-rule:nonzero;fill:rgb(32.589722%,38.926697%,53.469849%);fill-opacity:1;" d="M 341.605469 680.792969 C 341.257812 680.703125 340.832031 680.597656 340.332031 680.480469 C 340.082031 680.417969 339.8125 680.355469 339.527344 680.289062 C 339.242188 680.226562 338.933594 680.15625 338.613281 680.085938 C 337.324219 679.800781 335.757812 679.488281 333.964844 679.164062 C 332.167969 678.84375 330.144531 678.519531 327.9375 678.207031 C 323.515625 677.589844 318.363281 677.042969 312.839844 676.679688 C 310.078125 676.5 307.226562 676.351562 304.328125 676.265625 C 303.042969 676.226562 301.746094 676.195312 300.445312 676.171875 C 300.421875 674.871094 300.394531 673.578125 300.355469 672.292969 C 300.265625 669.394531 300.121094 666.539062 299.9375 663.777344 C 299.574219 658.253906 299.03125 653.101562 298.410156 648.683594 C 298.101562 646.472656 297.773438 644.449219 297.453125 642.652344 C 297.132812 640.859375 296.820312 639.292969 296.53125 638.007812 C 296.460938 637.683594 296.394531 637.378906 296.332031 637.09375 C 296.261719 636.804688 296.199219 636.535156 296.140625 636.285156 C 296.023438 635.785156 295.914062 635.359375 295.824219 635.015625 C 295.648438 634.324219 295.535156 633.957031 295.535156 633.957031 C 295.535156 633.957031 295.425781 634.324219 295.25 635.015625 C 295.160156 635.359375 295.050781 635.785156 294.933594 636.285156 C 294.875 636.535156 294.808594 636.804688 294.742188 637.09375 C 294.679688 637.378906 294.613281 637.683594 294.539062 638.007812 C 294.253906 639.292969 293.941406 640.859375 293.617188 642.652344 C 293.296875 644.449219 292.972656 646.472656 292.664062 648.683594 C 292.042969 653.101562 291.5 658.253906 291.132812 663.777344 C 290.953125 666.539062 290.804688 669.394531 290.71875 672.292969 C 290.679688 673.578125 290.648438 674.875 290.625 676.179688 C 289.328125 676.199219 288.03125 676.234375 286.746094 676.273438 C 283.847656 676.363281 280.992188 676.507812 278.230469 676.691406 C 272.707031 677.058594 267.554688 677.601562 263.136719 678.222656 C 260.925781 678.53125 258.902344 678.855469 257.109375 679.175781 C 255.3125 679.496094 253.75 679.804688 252.457031 680.09375 C 252.136719 680.164062 251.832031 680.230469 251.546875 680.292969 C 251.257812 680.359375 250.988281 680.425781 250.738281 680.484375 C 250.238281 680.597656 249.8125 680.707031 249.46875 680.796875 C 248.777344 680.972656 248.410156 681.082031 248.410156 681.082031 C 248.410156 681.082031 248.777344 681.191406 249.46875 681.367188 C 249.8125 681.457031 250.238281 681.566406 250.738281 681.683594 C 250.988281 681.742188 251.257812 681.804688 251.546875 681.871094 C 251.832031 681.9375 252.136719 682 252.457031 682.074219 C 253.75 682.359375 255.3125 682.667969 257.109375 682.988281 C 258.902344 683.308594 260.925781 683.636719 263.136719 683.941406 C 267.554688 684.5625 272.707031 685.105469 278.230469 685.472656 C 280.992188 685.65625 283.847656 685.800781 286.746094 685.890625 C 288.03125 685.933594 289.328125 685.964844 290.628906 685.988281 C 290.65625 687.289062 290.683594 688.585938 290.726562 689.871094 C 290.816406 692.773438 290.960938 695.625 291.148438 698.386719 C 291.511719 703.910156 292.054688 709.066406 292.675781 713.484375 C 292.984375 715.691406 293.308594 717.71875 293.628906 719.511719 C 293.949219 721.304688 294.257812 722.871094 294.546875 724.160156 C 294.617188 724.480469 294.683594 724.785156 294.746094 725.074219 C 294.8125 725.359375 294.878906 725.628906 294.9375 725.878906 C 295.050781 726.378906 295.160156 726.804688 295.25 727.152344 C 295.425781 727.839844 295.535156 728.210938 295.535156 728.210938 C 295.535156 728.210938 295.644531 727.839844 295.824219 727.152344 C 295.910156 726.804688 296.019531 726.378906 296.136719 725.878906 C 296.195312 725.628906 296.257812 725.359375 296.324219 725.074219 C 296.386719 724.785156 296.457031 724.480469 296.527344 724.160156 C 296.8125 722.871094 297.121094 721.304688 297.445312 719.511719 C 297.761719 717.71875 298.089844 715.691406 298.398438 713.484375 C 299.015625 709.066406 299.558594 703.910156 299.925781 698.386719 C 300.109375 695.625 300.253906 692.773438 300.34375 689.871094 C 300.386719 688.585938 300.417969 687.292969 300.441406 685.992188 C 301.742188 685.96875 303.039062 685.941406 304.328125 685.898438 C 307.226562 685.8125 310.078125 685.667969 312.839844 685.484375 C 318.363281 685.121094 323.515625 684.578125 327.9375 683.957031 C 330.144531 683.648438 332.167969 683.320312 333.964844 683 C 335.757812 682.679688 337.324219 682.367188 338.613281 682.078125 C 338.933594 682.007812 339.242188 681.941406 339.527344 681.875 C 339.8125 681.808594 340.082031 681.746094 340.332031 681.6875 C 340.832031 681.570312 341.257812 681.460938 341.605469 681.371094 C 342.292969 681.191406 342.664062 681.082031 342.664062 681.082031 C 342.664062 681.082031 342.292969 680.972656 341.605469 680.792969 "/>
<path style=" stroke:none;fill-rule:nonzero;fill:rgb(32.589722%,38.926697%,53.469849%);fill-opacity:1;" d="M 593.765625 249.554688 C 593.417969 249.464844 592.992188 249.355469 592.492188 249.238281 C 592.242188 249.179688 591.972656 249.113281 591.6875 249.046875 C 591.398438 248.984375 591.09375 248.917969 590.773438 248.84375 C 589.484375 248.558594 587.917969 248.246094 586.125 247.925781 C 584.328125 247.601562 582.304688 247.277344 580.09375 246.96875 C 575.675781 246.347656 570.523438 245.804688 565 245.4375 C 562.238281 245.257812 559.386719 245.109375 556.484375 245.023438 C 555.199219 244.984375 553.90625 244.953125 552.605469 244.929688 C 552.582031 243.632812 552.554688 242.335938 552.515625 241.050781 C 552.425781 238.152344 552.28125 235.296875 552.097656 232.539062 C 551.734375 227.015625 551.191406 221.859375 550.570312 217.441406 C 550.261719 215.230469 549.933594 213.207031 549.613281 211.414062 C 549.289062 209.617188 548.980469 208.054688 548.691406 206.765625 C 548.621094 206.441406 548.550781 206.136719 548.488281 205.851562 C 548.421875 205.5625 548.359375 205.292969 548.296875 205.042969 C 548.183594 204.542969 548.074219 204.117188 547.984375 203.773438 C 547.804688 203.082031 547.695312 202.714844 547.695312 202.714844 C 547.695312 202.714844 547.585938 203.082031 547.40625 203.773438 C 547.316406 204.117188 547.207031 204.542969 547.09375 205.042969 C 547.035156 205.292969 546.96875 205.5625 546.902344 205.851562 C 546.835938 206.136719 546.769531 206.441406 546.699219 206.765625 C 546.410156 208.054688 546.101562 209.617188 545.777344 211.414062 C 545.457031 213.207031 545.128906 215.230469 544.820312 217.441406 C 544.199219 221.859375 543.65625 227.015625 543.292969 232.539062 C 543.113281 235.296875 542.964844 238.152344 542.878906 241.050781 C 542.835938 242.339844 542.808594 243.636719 542.785156 244.9375 C 541.488281 244.960938 540.191406 244.992188 538.90625 245.03125 C 536.003906 245.125 533.152344 245.265625 530.390625 245.453125 C 524.867188 245.816406 519.714844 246.359375 515.296875 246.980469 C 513.085938 247.289062 511.0625 247.613281 509.265625 247.933594 C 507.472656 248.253906 505.90625 248.5625 504.617188 248.851562 C 504.296875 248.921875 503.992188 248.988281 503.703125 249.050781 C 503.417969 249.121094 503.148438 249.183594 502.898438 249.242188 C 502.398438 249.355469 501.972656 249.464844 501.628906 249.554688 C 500.9375 249.730469 500.570312 249.839844 500.570312 249.839844 C 500.570312 249.839844 500.9375 249.949219 501.628906 250.128906 C 501.972656 250.214844 502.398438 250.324219 502.898438 250.441406 C 503.148438 250.5 503.417969 250.5625 503.703125 250.632812 C 503.992188 250.695312 504.296875 250.761719 504.617188 250.832031 C 505.90625 251.117188 507.472656 251.429688 509.265625 251.75 C 511.0625 252.070312 513.085938 252.394531 515.296875 252.703125 C 519.714844 253.320312 524.867188 253.863281 530.390625 254.230469 C 533.152344 254.417969 536.003906 254.558594 538.90625 254.648438 C 540.191406 254.691406 541.488281 254.722656 542.789062 254.746094 C 542.8125 256.046875 542.84375 257.34375 542.886719 258.632812 C 542.976562 261.53125 543.121094 264.382812 543.304688 267.144531 C 543.671875 272.667969 544.214844 277.824219 544.835938 282.242188 C 545.144531 284.449219 545.46875 286.476562 545.789062 288.269531 C 546.109375 290.066406 546.417969 291.628906 546.707031 292.917969 C 546.777344 293.238281 546.84375 293.546875 546.90625 293.832031 C 546.972656 294.121094 547.035156 294.386719 547.09375 294.636719 C 547.210938 295.136719 547.320312 295.5625 547.410156 295.910156 C 547.585938 296.601562 547.695312 296.96875 547.695312 296.96875 C 547.695312 296.96875 547.804688 296.601562 547.980469 295.910156 C 548.070312 295.5625 548.179688 295.136719 548.296875 294.636719 C 548.355469 294.386719 548.417969 294.121094 548.484375 293.832031 C 548.546875 293.546875 548.617188 293.238281 548.6875 292.917969 C 548.972656 291.628906 549.28125 290.066406 549.601562 288.269531 C 549.921875 286.476562 550.246094 284.449219 550.558594 282.242188 C 551.175781 277.824219 551.71875 272.667969 552.085938 267.144531 C 552.269531 264.382812 552.414062 261.53125 552.503906 258.632812 C 552.546875 257.347656 552.578125 256.050781 552.601562 254.75 C 553.902344 254.730469 555.199219 254.699219 556.484375 254.660156 C 559.386719 254.570312 562.238281 254.425781 565 254.242188 C 570.523438 253.878906 575.675781 253.335938 580.09375 252.714844 C 582.304688 252.40625 584.328125 252.082031 586.125 251.757812 C 587.917969 251.4375 589.484375 251.125 590.773438 250.835938 C 591.09375 250.765625 591.398438 250.699219 591.6875 250.636719 C 591.972656 250.566406 592.242188 250.503906 592.492188 250.445312 C 592.992188 250.328125 593.417969 250.21875 593.765625 250.128906 C 594.453125 249.953125 594.824219 249.839844 594.824219 249.839844 C 594.824219 249.839844 594.453125 249.730469 593.765625 249.554688 "/>
<path style=" stroke:none;fill-rule:nonzero;fill:rgb(32.589722%,38.926697%,53.469849%);fill-opacity:1;" d="M 724.65625 727.921875 C 724.3125 727.832031 723.886719 727.722656 723.386719 727.605469 C 723.136719 727.546875 722.867188 727.484375 722.582031 727.414062 C 722.292969 727.351562 721.988281 727.285156 721.667969 727.214844 C 720.378906 726.925781 718.8125 726.613281 717.019531 726.292969 C 715.222656 725.972656 713.199219 725.644531 710.988281 725.335938 C 706.570312 724.714844 701.417969 724.171875 695.894531 723.808594 C 693.132812 723.625 690.277344 723.480469 687.378906 723.390625 C 686.09375 723.351562 684.800781 723.320312 683.5 723.300781 C 683.476562 722 683.449219 720.703125 683.40625 719.417969 C 683.320312 716.519531 683.175781 713.667969 682.992188 710.90625 C 682.628906 705.382812 682.085938 700.230469 681.464844 695.808594 C 681.15625 693.601562 680.828125 691.574219 680.507812 689.78125 C 680.183594 687.984375 679.875 686.421875 679.585938 685.132812 C 679.515625 684.8125 679.445312 684.507812 679.382812 684.21875 C 679.316406 683.933594 679.253906 683.664062 679.191406 683.414062 C 679.078125 682.910156 678.96875 682.484375 678.878906 682.140625 C 678.699219 681.449219 678.589844 681.082031 678.589844 681.082031 C 678.589844 681.082031 678.480469 681.449219 678.300781 682.140625 C 678.210938 682.484375 678.101562 682.910156 677.984375 683.414062 C 677.925781 683.664062 677.863281 683.933594 677.796875 684.21875 C 677.730469 684.507812 677.664062 684.8125 677.59375 685.132812 C 677.304688 686.421875 676.996094 687.984375 676.671875 689.78125 C 676.351562 691.574219 676.023438 693.601562 675.714844 695.808594 C 675.09375 700.230469 674.550781 705.382812 674.1875 710.90625 C 674.007812 713.667969 673.859375 716.519531 673.773438 719.417969 C 673.730469 720.707031 673.703125 722.003906 673.679688 723.304688 C 672.378906 723.328125 671.085938 723.359375 669.800781 723.402344 C 666.898438 723.492188 664.046875 723.636719 661.285156 723.820312 C 655.761719 724.1875 650.609375 724.730469 646.191406 725.347656 C 643.980469 725.65625 641.957031 725.984375 640.160156 726.300781 C 638.367188 726.621094 636.800781 726.933594 635.511719 727.21875 C 635.191406 727.289062 634.886719 727.359375 634.597656 727.417969 C 634.3125 727.488281 634.042969 727.550781 633.792969 727.609375 C 633.292969 727.726562 632.867188 727.835938 632.519531 727.921875 C 631.832031 728.101562 631.464844 728.210938 631.464844 728.210938 C 631.464844 728.210938 631.832031 728.320312 632.519531 728.496094 C 632.867188 728.585938 633.292969 728.691406 633.792969 728.808594 C 634.042969 728.867188 634.3125 728.933594 634.597656 729 C 634.886719 729.0625 635.191406 729.128906 635.511719 729.199219 C 636.800781 729.484375 638.367188 729.796875 640.160156 730.117188 C 641.957031 730.4375 643.980469 730.761719 646.191406 731.070312 C 650.609375 731.691406 655.761719 732.234375 661.285156 732.601562 C 664.046875 732.785156 666.898438 732.929688 669.800781 733.019531 C 671.085938 733.058594 672.382812 733.089844 673.683594 733.113281 C 673.707031 734.414062 673.738281 735.714844 673.78125 737 C 673.871094 739.898438 674.015625 742.753906 674.199219 745.515625 C 674.566406 751.035156 675.109375 756.191406 675.730469 760.609375 C 676.039062 762.816406 676.363281 764.84375 676.683594 766.640625 C 677.003906 768.433594 677.3125 769.996094 677.597656 771.285156 C 677.671875 771.609375 677.738281 771.914062 677.800781 772.199219 C 677.867188 772.488281 677.929688 772.757812 677.988281 773.007812 C 678.105469 773.507812 678.214844 773.933594 678.304688 774.277344 C 678.480469 774.96875 678.589844 775.335938 678.589844 775.335938 C 678.589844 775.335938 678.699219 774.96875 678.875 774.277344 C 678.964844 773.933594 679.074219 773.507812 679.1875 773.007812 C 679.25 772.757812 679.3125 772.488281 679.378906 772.199219 C 679.441406 771.914062 679.507812 771.609375 679.582031 771.285156 C 679.867188 769.996094 680.175781 768.433594 680.496094 766.640625 C 680.816406 764.84375 681.140625 762.816406 681.449219 760.609375 C 682.070312 756.191406 682.613281 751.035156 682.980469 745.515625 C 683.164062 742.753906 683.308594 739.898438 683.398438 737 C 683.441406 735.714844 683.472656 734.417969 683.496094 733.121094 C 684.796875 733.097656 686.09375 733.066406 687.378906 733.027344 C 690.277344 732.941406 693.132812 732.792969 695.894531 732.613281 C 701.417969 732.246094 706.570312 731.703125 710.988281 731.082031 C 713.199219 730.773438 715.222656 730.449219 717.019531 730.125 C 718.8125 729.804688 720.378906 729.492188 721.667969 729.207031 C 721.988281 729.132812 722.292969 729.066406 722.582031 729.003906 C 722.867188 728.9375 723.136719 728.871094 723.386719 728.8125 C 723.886719 728.695312 724.3125 728.589844 724.65625 728.496094 C 725.347656 728.320312 725.71875 728.210938 725.71875 728.210938 C 725.71875 728.210938 725.347656 728.097656 724.65625 727.921875 "/>
<path style=" stroke:none;fill-rule:nonzero;fill:rgb(32.589722%,38.926697%,53.469849%);fill-opacity:1;" d="M 435.859375 1166.535156 C 435.511719 1166.445312 435.085938 1166.335938 434.585938 1166.21875 C 434.335938 1166.160156 434.066406 1166.097656 433.78125 1166.027344 C 433.496094 1165.964844 433.1875 1165.898438 432.867188 1165.828125 C 431.578125 1165.539062 430.011719 1165.226562 428.21875 1164.902344 C 426.421875 1164.582031 424.398438 1164.257812 422.191406 1163.949219 C 417.773438 1163.328125 412.617188 1162.785156 407.09375 1162.421875 C 404.332031 1162.238281 401.480469 1162.09375 398.582031 1162.003906 C 397.296875 1161.964844 396 1161.933594 394.699219 1161.914062 C 394.675781 1160.613281 394.648438 1159.316406 394.609375 1158.03125 C 394.519531 1155.132812 394.375 1152.277344 394.191406 1149.515625 C 393.828125 1143.996094 393.285156 1138.839844 392.664062 1134.421875 C 392.355469 1132.214844 392.027344 1130.1875 391.707031 1128.394531 C 391.386719 1126.597656 391.074219 1125.035156 390.785156 1123.746094 C 390.714844 1123.421875 390.648438 1123.117188 390.585938 1122.832031 C 390.515625 1122.542969 390.453125 1122.273438 390.394531 1122.023438 C 390.277344 1121.523438 390.167969 1121.097656 390.078125 1120.753906 C 389.902344 1120.0625 389.789062 1119.695312 389.789062 1119.695312 C 389.789062 1119.695312 389.679688 1120.0625 389.503906 1120.753906 C 389.414062 1121.097656 389.304688 1121.523438 389.1875 1122.023438 C 389.128906 1122.273438 389.0625 1122.542969 388.996094 1122.832031 C 388.933594 1123.117188 388.867188 1123.421875 388.792969 1123.746094 C 388.507812 1125.035156 388.195312 1126.597656 387.871094 1128.394531 C 387.550781 1130.1875 387.226562 1132.214844 386.917969 1134.421875 C 386.296875 1138.839844 385.753906 1143.996094 385.386719 1149.515625 C 385.207031 1152.277344 385.058594 1155.132812 384.972656 1158.03125 C 384.933594 1159.320312 384.902344 1160.613281 384.878906 1161.917969 C 383.582031 1161.941406 382.285156 1161.972656 381 1162.011719 C 378.101562 1162.101562 375.246094 1162.246094 372.484375 1162.433594 C 366.960938 1162.800781 361.808594 1163.34375 357.390625 1163.960938 C 355.179688 1164.269531 353.15625 1164.59375 351.363281 1164.914062 C 349.566406 1165.234375 348.003906 1165.546875 346.714844 1165.832031 C 346.390625 1165.902344 346.085938 1165.96875 345.800781 1166.03125 C 345.511719 1166.097656 345.242188 1166.164062 344.992188 1166.222656 C 344.492188 1166.339844 344.066406 1166.445312 343.722656 1166.535156 C 343.03125 1166.710938 342.664062 1166.820312 342.664062 1166.820312 C 342.664062 1166.820312 343.03125 1166.929688 343.722656 1167.109375 C 344.066406 1167.195312 344.492188 1167.304688 344.992188 1167.421875 C 345.242188 1167.480469 345.511719 1167.542969 345.800781 1167.613281 C 346.085938 1167.675781 346.390625 1167.742188 346.714844 1167.8125 C 348.003906 1168.097656 349.566406 1168.40625 351.363281 1168.730469 C 353.15625 1169.050781 355.179688 1169.375 357.390625 1169.683594 C 361.808594 1170.300781 366.960938 1170.84375 372.484375 1171.210938 C 375.246094 1171.394531 378.101562 1171.539062 381 1171.632812 C 382.289062 1171.671875 383.582031 1171.703125 384.882812 1171.726562 C 384.910156 1173.027344 384.941406 1174.324219 384.980469 1175.613281 C 385.070312 1178.511719 385.214844 1181.363281 385.402344 1184.125 C 385.765625 1189.648438 386.308594 1194.804688 386.929688 1199.222656 C 387.238281 1201.429688 387.5625 1203.457031 387.882812 1205.25 C 388.203125 1207.046875 388.511719 1208.609375 388.800781 1209.898438 C 388.871094 1210.222656 388.9375 1210.527344 389 1210.8125 C 389.066406 1211.097656 389.132812 1211.371094 389.191406 1211.621094 C 389.304688 1212.121094 389.414062 1212.546875 389.503906 1212.890625 C 389.679688 1213.582031 389.789062 1213.949219 389.789062 1213.949219 C 389.789062 1213.949219 389.898438 1213.582031 390.078125 1212.890625 C 390.164062 1212.546875 390.273438 1212.121094 390.390625 1211.621094 C 390.449219 1211.371094 390.511719 1211.097656 390.578125 1210.8125 C 390.640625 1210.527344 390.710938 1210.222656 390.78125 1209.898438 C 391.066406 1208.609375 391.375 1207.046875 391.699219 1205.25 C 392.015625 1203.457031 392.34375 1201.429688 392.652344 1199.222656 C 393.269531 1194.804688 393.8125 1189.648438 394.179688 1184.125 C 394.363281 1181.363281 394.507812 1178.511719 394.597656 1175.613281 C 394.640625 1174.328125 394.671875 1173.03125 394.695312 1171.730469 C 395.996094 1171.710938 397.292969 1171.679688 398.582031 1171.640625 C 401.480469 1171.550781 404.332031 1171.40625 407.09375 1171.222656 C 412.617188 1170.859375 417.773438 1170.316406 422.191406 1169.695312 C 424.398438 1169.386719 426.421875 1169.058594 428.21875 1168.738281 C 430.011719 1168.417969 431.578125 1168.105469 432.867188 1167.816406 C 433.1875 1167.746094 433.496094 1167.679688 433.78125 1167.617188 C 434.066406 1167.546875 434.335938 1167.484375 434.585938 1167.425781 C 435.085938 1167.308594 435.511719 1167.199219 435.859375 1167.109375 C 436.546875 1166.933594 436.917969 1166.820312 436.917969 1166.820312 C 436.917969 1166.820312 436.546875 1166.710938 435.859375 1166.535156 "/>
<path style=" stroke:none;fill-rule:nonzero;fill:rgb(32.589722%,38.926697%,53.469849%);fill-opacity:1;" d="M 996.921875 1645.621094 C 996.578125 1645.53125 996.152344 1645.425781 995.652344 1645.308594 C 995.402344 1645.246094 995.132812 1645.183594 994.84375 1645.117188 C 994.558594 1645.054688 994.253906 1644.984375 993.929688 1644.914062 C 992.644531 1644.628906 991.078125 1644.316406 989.28125 1643.992188 C 987.488281 1643.671875 985.464844 1643.347656 983.253906 1643.035156 C 978.835938 1642.414062 973.683594 1641.871094 968.15625 1641.507812 C 965.398438 1641.328125 962.542969 1641.179688 959.644531 1641.09375 C 958.359375 1641.054688 957.0625 1641.023438 955.765625 1641 C 955.742188 1639.699219 955.710938 1638.40625 955.671875 1637.121094 C 955.582031 1634.222656 955.4375 1631.367188 955.257812 1628.605469 C 954.890625 1623.082031 954.347656 1617.929688 953.730469 1613.511719 C 953.417969 1611.300781 953.09375 1609.277344 952.773438 1607.480469 C 952.449219 1605.6875 952.136719 1604.121094 951.851562 1602.835938 C 951.777344 1602.511719 951.710938 1602.207031 951.648438 1601.921875 C 951.582031 1601.632812 951.515625 1601.363281 951.457031 1601.113281 C 951.339844 1600.613281 951.234375 1600.1875 951.144531 1599.84375 C 950.964844 1599.152344 950.855469 1598.785156 950.855469 1598.785156 C 950.855469 1598.785156 950.742188 1599.152344 950.566406 1599.84375 C 950.476562 1600.1875 950.367188 1600.613281 950.25 1601.113281 C 950.191406 1601.363281 950.128906 1601.632812 950.0625 1601.921875 C 949.996094 1602.207031 949.929688 1602.511719 949.859375 1602.835938 C 949.570312 1604.121094 949.257812 1605.6875 948.9375 1607.480469 C 948.617188 1609.277344 948.289062 1611.300781 947.980469 1613.511719 C 947.359375 1617.929688 946.816406 1623.082031 946.453125 1628.605469 C 946.269531 1631.367188 946.125 1634.222656 946.035156 1637.121094 C 945.996094 1638.40625 945.96875 1639.703125 945.945312 1641.007812 C 944.644531 1641.027344 943.351562 1641.0625 942.066406 1641.101562 C 939.164062 1641.191406 936.3125 1641.335938 933.550781 1641.519531 C 928.027344 1641.886719 922.871094 1642.429688 918.453125 1643.050781 C 916.246094 1643.359375 914.222656 1643.683594 912.425781 1644.003906 C 910.632812 1644.324219 909.066406 1644.632812 907.777344 1644.921875 C 907.453125 1644.992188 907.152344 1645.058594 906.863281 1645.121094 C 906.578125 1645.1875 906.308594 1645.253906 906.058594 1645.3125 C 905.558594 1645.425781 905.132812 1645.535156 904.785156 1645.625 C 904.097656 1645.800781 903.726562 1645.910156 903.726562 1645.910156 C 903.726562 1645.910156 904.097656 1646.019531 904.785156 1646.195312 C 905.132812 1646.285156 905.558594 1646.394531 906.058594 1646.511719 C 906.308594 1646.570312 906.578125 1646.632812 906.863281 1646.699219 C 907.152344 1646.761719 907.453125 1646.828125 907.777344 1646.902344 C 909.066406 1647.1875 910.632812 1647.496094 912.425781 1647.816406 C 914.222656 1648.136719 916.246094 1648.464844 918.453125 1648.769531 C 922.871094 1649.390625 928.027344 1649.933594 933.550781 1650.300781 C 936.3125 1650.484375 939.164062 1650.628906 942.066406 1650.71875 C 943.351562 1650.761719 944.648438 1650.792969 945.949219 1650.816406 C 945.972656 1652.117188 946.003906 1653.414062 946.042969 1654.699219 C 946.136719 1657.601562 946.28125 1660.453125 946.464844 1663.214844 C 946.832031 1668.738281 947.375 1673.894531 947.992188 1678.3125 C 948.300781 1680.519531 948.625 1682.542969 948.945312 1684.339844 C 949.269531 1686.132812 949.578125 1687.699219 949.863281 1688.988281 C 949.933594 1689.308594 950 1689.613281 950.066406 1689.902344 C 950.132812 1690.1875 950.195312 1690.457031 950.253906 1690.707031 C 950.371094 1691.207031 950.480469 1691.632812 950.570312 1691.980469 C 950.746094 1692.667969 950.855469 1693.035156 950.855469 1693.035156 C 950.855469 1693.035156 950.964844 1692.667969 951.140625 1691.980469 C 951.230469 1691.632812 951.339844 1691.207031 951.453125 1690.707031 C 951.511719 1690.457031 951.574219 1690.1875 951.644531 1689.902344 C 951.707031 1689.613281 951.773438 1689.308594 951.84375 1688.988281 C 952.132812 1687.699219 952.441406 1686.132812 952.761719 1684.339844 C 953.082031 1682.542969 953.40625 1680.519531 953.714844 1678.3125 C 954.332031 1673.894531 954.875 1668.738281 955.242188 1663.214844 C 955.429688 1660.453125 955.570312 1657.601562 955.664062 1654.699219 C 955.703125 1653.414062 955.734375 1652.121094 955.761719 1650.820312 C 957.0625 1650.796875 958.359375 1650.769531 959.644531 1650.726562 C 962.542969 1650.640625 965.398438 1650.492188 968.15625 1650.3125 C 973.683594 1649.949219 978.835938 1649.40625 983.253906 1648.785156 C 985.464844 1648.476562 987.488281 1648.148438 989.28125 1647.828125 C 991.078125 1647.507812 992.644531 1647.195312 993.929688 1646.90625 C 994.253906 1646.835938 994.558594 1646.769531 994.84375 1646.703125 C 995.132812 1646.636719 995.402344 1646.574219 995.652344 1646.515625 C 996.152344 1646.398438 996.578125 1646.289062 996.921875 1646.199219 C 997.613281 1646.019531 997.980469 1645.910156 997.980469 1645.910156 C 997.980469 1645.910156 997.613281 1645.800781 996.921875 1645.621094 "/>
<path style=" stroke:none;fill-rule:nonzero;fill:rgb(32.589722%,38.926697%,53.469849%);fill-opacity:1;" d="M 558.585938 1629.523438 C 558.238281 1629.429688 557.8125 1629.324219 557.3125 1629.207031 C 557.0625 1629.148438 556.792969 1629.082031 556.507812 1629.015625 C 556.222656 1628.953125 555.914062 1628.882812 555.59375 1628.8125 C 554.304688 1628.527344 552.738281 1628.214844 550.945312 1627.890625 C 549.148438 1627.570312 547.125 1627.246094 544.914062 1626.933594 C 540.496094 1626.316406 535.34375 1625.773438 529.820312 1625.40625 C 527.058594 1625.226562 524.207031 1625.078125 521.308594 1624.992188 C 520.023438 1624.953125 518.726562 1624.921875 517.425781 1624.898438 C 517.402344 1623.597656 517.375 1622.304688 517.335938 1621.019531 C 517.246094 1618.121094 517.101562 1615.265625 516.917969 1612.503906 C 516.554688 1606.980469 516.011719 1601.828125 515.390625 1597.410156 C 515.082031 1595.199219 514.753906 1593.175781 514.433594 1591.378906 C 514.109375 1589.585938 513.800781 1588.019531 513.511719 1586.734375 C 513.441406 1586.410156 513.375 1586.105469 513.3125 1585.820312 C 513.242188 1585.53125 513.179688 1585.261719 513.121094 1585.011719 C 513.003906 1584.511719 512.894531 1584.085938 512.804688 1583.742188 C 512.628906 1583.050781 512.515625 1582.683594 512.515625 1582.683594 C 512.515625 1582.683594 512.40625 1583.050781 512.230469 1583.742188 C 512.140625 1584.085938 512.03125 1584.511719 511.914062 1585.011719 C 511.855469 1585.261719 511.789062 1585.53125 511.722656 1585.820312 C 511.660156 1586.105469 511.59375 1586.410156 511.519531 1586.734375 C 511.230469 1588.019531 510.921875 1589.585938 510.597656 1591.378906 C 510.277344 1593.175781 509.949219 1595.199219 509.640625 1597.410156 C 509.023438 1601.828125 508.480469 1606.980469 508.113281 1612.503906 C 507.933594 1615.265625 507.785156 1618.121094 507.699219 1621.019531 C 507.65625 1622.304688 507.628906 1623.601562 507.605469 1624.90625 C 506.308594 1624.925781 505.011719 1624.960938 503.726562 1625 C 500.828125 1625.089844 497.972656 1625.234375 495.210938 1625.417969 C 489.6875 1625.785156 484.535156 1626.328125 480.117188 1626.949219 C 477.90625 1627.257812 475.882812 1627.582031 474.089844 1627.902344 C 472.292969 1628.222656 470.726562 1628.53125 469.4375 1628.820312 C 469.117188 1628.890625 468.8125 1628.957031 468.523438 1629.019531 C 468.238281 1629.085938 467.96875 1629.152344 467.71875 1629.210938 C 467.21875 1629.324219 466.792969 1629.433594 466.449219 1629.523438 C 465.757812 1629.699219 465.390625 1629.808594 465.390625 1629.808594 C 465.390625 1629.808594 465.757812 1629.917969 466.449219 1630.09375 C 466.792969 1630.183594 467.21875 1630.292969 467.71875 1630.410156 C 467.96875 1630.46875 468.238281 1630.53125 468.523438 1630.597656 C 468.8125 1630.660156 469.117188 1630.726562 469.4375 1630.800781 C 470.726562 1631.085938 472.292969 1631.394531 474.089844 1631.714844 C 475.882812 1632.035156 477.90625 1632.363281 480.117188 1632.667969 C 484.535156 1633.289062 489.6875 1633.832031 495.210938 1634.199219 C 497.972656 1634.382812 500.828125 1634.527344 503.726562 1634.617188 C 505.015625 1634.660156 506.308594 1634.691406 507.609375 1634.714844 C 507.636719 1636.015625 507.664062 1637.3125 507.707031 1638.597656 C 507.796875 1641.5 507.941406 1644.351562 508.128906 1647.113281 C 508.492188 1652.636719 509.035156 1657.792969 509.65625 1662.210938 C 509.964844 1664.417969 510.289062 1666.441406 510.609375 1668.238281 C 510.929688 1670.03125 511.238281 1671.597656 511.527344 1672.886719 C 511.597656 1673.207031 511.664062 1673.511719 511.726562 1673.800781 C 511.792969 1674.085938 511.855469 1674.355469 511.917969 1674.605469 C 512.03125 1675.105469 512.140625 1675.53125 512.230469 1675.878906 C 512.40625 1676.566406 512.515625 1676.933594 512.515625 1676.933594 C 512.515625 1676.933594 512.625 1676.566406 512.804688 1675.878906 C 512.890625 1675.53125 513 1675.105469 513.117188 1674.605469 C 513.175781 1674.355469 513.238281 1674.085938 513.304688 1673.800781 C 513.367188 1673.511719 513.4375 1673.207031 513.507812 1672.886719 C 513.792969 1671.597656 514.101562 1670.03125 514.425781 1668.238281 C 514.742188 1666.441406 515.070312 1664.417969 515.378906 1662.210938 C 515.996094 1657.792969 516.539062 1652.636719 516.90625 1647.113281 C 517.089844 1644.351562 517.234375 1641.5 517.324219 1638.597656 C 517.367188 1637.3125 517.398438 1636.019531 517.421875 1634.71875 C 518.722656 1634.695312 520.019531 1634.667969 521.308594 1634.625 C 524.207031 1634.539062 527.058594 1634.390625 529.820312 1634.210938 C 535.34375 1633.847656 540.496094 1633.304688 544.914062 1632.683594 C 547.125 1632.375 549.148438 1632.046875 550.945312 1631.726562 C 552.738281 1631.40625 554.304688 1631.09375 555.59375 1630.804688 C 555.914062 1630.734375 556.222656 1630.667969 556.507812 1630.601562 C 556.792969 1630.535156 557.0625 1630.472656 557.3125 1630.414062 C 557.8125 1630.296875 558.238281 1630.1875 558.585938 1630.097656 C 559.273438 1629.917969 559.644531 1629.808594 559.644531 1629.808594 C 559.644531 1629.808594 559.273438 1629.699219 558.585938 1629.523438 "/>
<path style=" stroke:none;fill-rule:nonzero;fill:rgb(32.589722%,38.926697%,53.469849%);fill-opacity:1;" d="M 1370.15625 727.921875 C 1369.8125 727.832031 1369.386719 727.722656 1368.886719 727.605469 C 1368.636719 727.546875 1368.367188 727.484375 1368.082031 727.414062 C 1367.792969 727.351562 1367.488281 727.285156 1367.167969 727.214844 C 1365.878906 726.925781 1364.3125 726.613281 1362.519531 726.292969 C 1360.722656 725.972656 1358.699219 725.644531 1356.488281 725.335938 C 1352.070312 724.714844 1346.917969 724.171875 1341.394531 723.808594 C 1338.632812 723.625 1335.777344 723.480469 1332.878906 723.390625 C 1331.59375 723.351562 1330.300781 723.320312 1329 723.300781 C 1328.976562 722 1328.945312 720.703125 1328.90625 719.417969 C 1328.820312 716.519531 1328.675781 713.664062 1328.492188 710.90625 C 1328.128906 705.382812 1327.585938 700.226562 1326.964844 695.808594 C 1326.652344 693.601562 1326.328125 691.574219 1326.007812 689.78125 C 1325.683594 687.984375 1325.375 686.421875 1325.085938 685.132812 C 1325.015625 684.8125 1324.945312 684.503906 1324.882812 684.21875 C 1324.816406 683.933594 1324.753906 683.664062 1324.691406 683.410156 C 1324.578125 682.910156 1324.46875 682.484375 1324.378906 682.140625 C 1324.199219 681.449219 1324.089844 681.082031 1324.089844 681.082031 C 1324.089844 681.082031 1323.980469 681.449219 1323.800781 682.140625 C 1323.710938 682.484375 1323.601562 682.910156 1323.484375 683.410156 C 1323.425781 683.664062 1323.363281 683.933594 1323.296875 684.21875 C 1323.230469 684.503906 1323.164062 684.8125 1323.09375 685.132812 C 1322.804688 686.421875 1322.496094 687.984375 1322.171875 689.78125 C 1321.851562 691.574219 1321.523438 693.601562 1321.214844 695.808594 C 1320.59375 700.226562 1320.050781 705.382812 1319.6875 710.90625 C 1319.507812 713.664062 1319.359375 716.519531 1319.269531 719.417969 C 1319.230469 720.707031 1319.203125 722.003906 1319.179688 723.304688 C 1317.878906 723.328125 1316.585938 723.359375 1315.300781 723.402344 C 1312.398438 723.492188 1309.546875 723.636719 1306.785156 723.820312 C 1301.261719 724.1875 1296.109375 724.730469 1291.6875 725.347656 C 1289.480469 725.65625 1287.457031 725.984375 1285.660156 726.300781 C 1283.867188 726.621094 1282.300781 726.933594 1281.011719 727.21875 C 1280.691406 727.289062 1280.386719 727.355469 1280.097656 727.417969 C 1279.8125 727.488281 1279.542969 727.550781 1279.292969 727.609375 C 1278.792969 727.726562 1278.367188 727.832031 1278.019531 727.921875 C 1277.332031 728.101562 1276.964844 728.207031 1276.964844 728.207031 C 1276.964844 728.207031 1277.332031 728.320312 1278.019531 728.496094 C 1278.367188 728.585938 1278.792969 728.691406 1279.292969 728.808594 C 1279.542969 728.867188 1279.8125 728.933594 1280.097656 729 C 1280.386719 729.0625 1280.691406 729.128906 1281.011719 729.199219 C 1282.300781 729.484375 1283.867188 729.796875 1285.660156 730.117188 C 1287.457031 730.4375 1289.480469 730.761719 1291.6875 731.070312 C 1296.109375 731.691406 1301.261719 732.230469 1306.785156 732.601562 C 1309.546875 732.785156 1312.398438 732.929688 1315.300781 733.019531 C 1316.585938 733.058594 1317.882812 733.089844 1319.183594 733.113281 C 1319.207031 734.414062 1319.238281 735.714844 1319.28125 737 C 1319.371094 739.898438 1319.515625 742.753906 1319.699219 745.515625 C 1320.066406 751.035156 1320.609375 756.191406 1321.226562 760.609375 C 1321.539062 762.816406 1321.863281 764.84375 1322.183594 766.636719 C 1322.503906 768.433594 1322.8125 769.996094 1323.097656 771.285156 C 1323.171875 771.609375 1323.238281 771.914062 1323.300781 772.199219 C 1323.367188 772.488281 1323.429688 772.757812 1323.488281 773.007812 C 1323.605469 773.507812 1323.714844 773.933594 1323.804688 774.277344 C 1323.980469 774.96875 1324.089844 775.335938 1324.089844 775.335938 C 1324.089844 775.335938 1324.199219 774.96875 1324.375 774.277344 C 1324.464844 773.933594 1324.574219 773.507812 1324.6875 773.007812 C 1324.75 772.757812 1324.8125 772.488281 1324.878906 772.199219 C 1324.941406 771.914062 1325.007812 771.609375 1325.082031 771.285156 C 1325.367188 769.996094 1325.675781 768.433594 1325.996094 766.636719 C 1326.316406 764.84375 1326.640625 762.816406 1326.949219 760.609375 C 1327.570312 756.191406 1328.113281 751.035156 1328.480469 745.515625 C 1328.664062 742.753906 1328.808594 739.898438 1328.898438 737 C 1328.9375 735.714844 1328.96875 734.417969 1328.996094 733.117188 C 1330.296875 733.097656 1331.59375 733.066406 1332.878906 733.027344 C 1335.777344 732.941406 1338.632812 732.792969 1341.394531 732.609375 C 1346.917969 732.246094 1352.070312 731.703125 1356.488281 731.082031 C 1358.699219 730.773438 1360.722656 730.449219 1362.519531 730.125 C 1364.3125 729.804688 1365.878906 729.492188 1367.167969 729.203125 C 1367.488281 729.132812 1367.792969 729.066406 1368.082031 729.003906 C 1368.367188 728.9375 1368.636719 728.871094 1368.886719 728.8125 C 1369.386719 728.695312 1369.8125 728.585938 1370.15625 728.496094 C 1370.847656 728.320312 1371.21875 728.207031 1371.21875 728.207031 C 1371.21875 728.207031 1370.847656 728.097656 1370.15625 727.921875 "/>
<path style=" stroke:none;fill-rule:nonzero;fill:rgb(32.589722%,38.926697%,53.469849%);fill-opacity:1;" d="M 902.667969 1072.28125 C 902.324219 1072.191406 901.898438 1072.082031 901.398438 1071.964844 C 901.148438 1071.90625 900.878906 1071.84375 900.589844 1071.773438 C 900.304688 1071.710938 900 1071.644531 899.675781 1071.574219 C 898.390625 1071.285156 896.824219 1070.972656 895.027344 1070.652344 C 893.234375 1070.332031 891.207031 1070.003906 889 1069.695312 C 884.582031 1069.074219 879.429688 1068.53125 873.902344 1068.167969 C 871.144531 1067.984375 868.289062 1067.839844 865.390625 1067.75 C 864.105469 1067.710938 862.808594 1067.679688 861.511719 1067.660156 C 861.488281 1066.359375 861.457031 1065.0625 861.417969 1063.777344 C 861.328125 1060.878906 861.183594 1058.023438 861 1055.265625 C 860.636719 1049.742188 860.09375 1044.585938 859.476562 1040.167969 C 859.164062 1037.960938 858.839844 1035.933594 858.519531 1034.140625 C 858.195312 1032.34375 857.882812 1030.78125 857.597656 1029.492188 C 857.523438 1029.171875 857.457031 1028.863281 857.394531 1028.578125 C 857.328125 1028.292969 857.261719 1028.023438 857.203125 1027.769531 C 857.085938 1027.269531 856.980469 1026.84375 856.890625 1026.5 C 856.710938 1025.808594 856.601562 1025.441406 856.601562 1025.441406 C 856.601562 1025.441406 856.488281 1025.808594 856.3125 1026.5 C 856.222656 1026.84375 856.113281 1027.269531 855.996094 1027.769531 C 855.9375 1028.023438 855.875 1028.292969 855.808594 1028.578125 C 855.742188 1028.863281 855.675781 1029.171875 855.605469 1029.492188 C 855.316406 1030.78125 855.003906 1032.34375 854.683594 1034.140625 C 854.363281 1035.933594 854.035156 1037.960938 853.726562 1040.167969 C 853.105469 1044.585938 852.5625 1049.742188 852.199219 1055.265625 C 852.015625 1058.023438 851.871094 1060.878906 851.78125 1063.777344 C 851.742188 1065.066406 851.714844 1066.363281 851.691406 1067.664062 C 850.390625 1067.6875 849.097656 1067.71875 847.8125 1067.761719 C 844.910156 1067.851562 842.058594 1067.996094 839.296875 1068.179688 C 833.773438 1068.546875 828.617188 1069.089844 824.199219 1069.707031 C 821.992188 1070.015625 819.96875 1070.34375 818.171875 1070.660156 C 816.375 1070.980469 814.8125 1071.292969 813.523438 1071.578125 C 813.199219 1071.648438 812.898438 1071.714844 812.609375 1071.78125 C 812.324219 1071.847656 812.054688 1071.910156 811.804688 1071.96875 C 811.304688 1072.085938 810.875 1072.191406 810.53125 1072.28125 C 809.84375 1072.460938 809.472656 1072.566406 809.472656 1072.566406 C 809.472656 1072.566406 809.84375 1072.679688 810.53125 1072.855469 C 810.875 1072.945312 811.304688 1073.050781 811.804688 1073.167969 C 812.054688 1073.226562 812.324219 1073.292969 812.609375 1073.359375 C 812.898438 1073.421875 813.199219 1073.488281 813.523438 1073.558594 C 814.8125 1073.84375 816.375 1074.15625 818.171875 1074.476562 C 819.96875 1074.796875 821.992188 1075.121094 824.199219 1075.429688 C 828.617188 1076.050781 833.773438 1076.589844 839.296875 1076.960938 C 842.058594 1077.144531 844.910156 1077.289062 847.8125 1077.378906 C 849.097656 1077.417969 850.394531 1077.449219 851.695312 1077.472656 C 851.71875 1078.773438 851.75 1080.074219 851.789062 1081.359375 C 851.882812 1084.257812 852.027344 1087.113281 852.210938 1089.875 C 852.578125 1095.394531 853.121094 1100.550781 853.738281 1104.96875 C 854.046875 1107.175781 854.371094 1109.203125 854.691406 1110.996094 C 855.015625 1112.792969 855.324219 1114.355469 855.609375 1115.644531 C 855.679688 1115.96875 855.746094 1116.273438 855.8125 1116.558594 C 855.878906 1116.847656 855.941406 1117.117188 856 1117.367188 C 856.117188 1117.867188 856.226562 1118.292969 856.316406 1118.636719 C 856.492188 1119.328125 856.601562 1119.695312 856.601562 1119.695312 C 856.601562 1119.695312 856.710938 1119.328125 856.886719 1118.636719 C 856.976562 1118.292969 857.082031 1117.867188 857.199219 1117.367188 C 857.257812 1117.117188 857.320312 1116.847656 857.390625 1116.558594 C 857.453125 1116.273438 857.519531 1115.96875 857.589844 1115.644531 C 857.875 1114.355469 858.1875 1112.792969 858.507812 1110.996094 C 858.828125 1109.203125 859.152344 1107.175781 859.460938 1104.96875 C 860.078125 1100.550781 860.621094 1095.394531 860.988281 1089.875 C 861.175781 1087.113281 861.316406 1084.257812 861.410156 1081.359375 C 861.449219 1080.074219 861.480469 1078.777344 861.507812 1077.476562 C 862.808594 1077.457031 864.105469 1077.425781 865.390625 1077.386719 C 868.289062 1077.300781 871.144531 1077.152344 873.902344 1076.96875 C 879.429688 1076.605469 884.582031 1076.0625 889 1075.441406 C 891.207031 1075.132812 893.234375 1074.808594 895.027344 1074.484375 C 896.824219 1074.164062 898.390625 1073.851562 899.675781 1073.5625 C 900 1073.492188 900.304688 1073.425781 900.589844 1073.363281 C 900.878906 1073.296875 901.148438 1073.230469 901.398438 1073.171875 C 901.898438 1073.054688 902.324219 1072.945312 902.667969 1072.855469 C 903.359375 1072.679688 903.726562 1072.566406 903.726562 1072.566406 C 903.726562 1072.566406 903.359375 1072.457031 902.667969 1072.28125 "/>
<path style=" stroke:none;fill-rule:nonzero;fill:rgb(32.589722%,38.926697%,53.469849%);fill-opacity:1;" d="M 1853.804688 1503.894531 C 1853.460938 1503.804688 1853.035156 1503.695312 1852.535156 1503.578125 C 1852.285156 1503.519531 1852.015625 1503.457031 1851.726562 1503.386719 C 1851.441406 1503.324219 1851.136719 1503.257812 1850.8125 1503.1875 C 1849.527344 1502.898438 1847.960938 1502.585938 1846.164062 1502.265625 C 1844.371094 1501.945312 1842.34375 1501.617188 1840.136719 1501.308594 C 1835.71875 1500.6875 1830.566406 1500.144531 1825.039062 1499.78125 C 1822.28125 1499.597656 1819.425781 1499.453125 1816.527344 1499.363281 C 1815.242188 1499.324219 1813.945312 1499.292969 1812.648438 1499.273438 C 1812.625 1497.972656 1812.59375 1496.675781 1812.554688 1495.390625 C 1812.464844 1492.492188 1812.320312 1489.636719 1812.140625 1486.878906 C 1811.773438 1481.355469 1811.230469 1476.199219 1810.613281 1471.78125 C 1810.300781 1469.574219 1809.976562 1467.546875 1809.65625 1465.753906 C 1809.332031 1463.957031 1809.019531 1462.394531 1808.734375 1461.105469 C 1808.660156 1460.785156 1808.59375 1460.476562 1808.53125 1460.191406 C 1808.464844 1459.90625 1808.398438 1459.636719 1808.339844 1459.382812 C 1808.222656 1458.882812 1808.117188 1458.457031 1808.027344 1458.113281 C 1807.847656 1457.421875 1807.738281 1457.054688 1807.738281 1457.054688 C 1807.738281 1457.054688 1807.625 1457.421875 1807.449219 1458.113281 C 1807.359375 1458.457031 1807.25 1458.882812 1807.132812 1459.382812 C 1807.074219 1459.636719 1807.011719 1459.90625 1806.945312 1460.191406 C 1806.878906 1460.476562 1806.8125 1460.785156 1806.742188 1461.105469 C 1806.453125 1462.394531 1806.140625 1463.957031 1805.820312 1465.753906 C 1805.5 1467.546875 1805.171875 1469.574219 1804.863281 1471.78125 C 1804.242188 1476.199219 1803.699219 1481.355469 1803.335938 1486.878906 C 1803.152344 1489.636719 1803.007812 1492.492188 1802.917969 1495.390625 C 1802.878906 1496.679688 1802.851562 1497.976562 1802.828125 1499.277344 C 1801.527344 1499.300781 1800.234375 1499.332031 1798.949219 1499.375 C 1796.046875 1499.464844 1793.195312 1499.609375 1790.433594 1499.792969 C 1784.910156 1500.160156 1779.753906 1500.703125 1775.335938 1501.320312 C 1773.128906 1501.628906 1771.105469 1501.957031 1769.308594 1502.273438 C 1767.515625 1502.59375 1765.949219 1502.90625 1764.660156 1503.191406 C 1764.335938 1503.261719 1764.035156 1503.328125 1763.746094 1503.390625 C 1763.460938 1503.460938 1763.191406 1503.523438 1762.941406 1503.582031 C 1762.441406 1503.699219 1762.015625 1503.804688 1761.667969 1503.894531 C 1760.980469 1504.074219 1760.609375 1504.179688 1760.609375 1504.179688 C 1760.609375 1504.179688 1760.980469 1504.292969 1761.667969 1504.46875 C 1762.015625 1504.558594 1762.441406 1504.664062 1762.941406 1504.78125 C 1763.191406 1504.839844 1763.460938 1504.90625 1763.746094 1504.972656 C 1764.035156 1505.035156 1764.335938 1505.101562 1764.660156 1505.171875 C 1765.949219 1505.457031 1767.515625 1505.769531 1769.308594 1506.089844 C 1771.105469 1506.410156 1773.128906 1506.734375 1775.335938 1507.042969 C 1779.753906 1507.664062 1784.910156 1508.203125 1790.433594 1508.574219 C 1793.195312 1508.757812 1796.046875 1508.902344 1798.949219 1508.992188 C 1800.234375 1509.03125 1801.53125 1509.0625 1802.832031 1509.085938 C 1802.855469 1510.386719 1802.886719 1511.683594 1802.925781 1512.972656 C 1803.019531 1515.871094 1803.164062 1518.726562 1803.347656 1521.488281 C 1803.714844 1527.007812 1804.257812 1532.164062 1804.875 1536.582031 C 1805.183594 1538.789062 1805.507812 1540.816406 1805.828125 1542.609375 C 1806.152344 1544.40625 1806.460938 1545.96875 1806.746094 1547.257812 C 1806.816406 1547.582031 1806.882812 1547.886719 1806.949219 1548.171875 C 1807.015625 1548.460938 1807.078125 1548.730469 1807.136719 1548.980469 C 1807.253906 1549.480469 1807.363281 1549.90625 1807.453125 1550.25 C 1807.628906 1550.941406 1807.738281 1551.308594 1807.738281 1551.308594 C 1807.738281 1551.308594 1807.847656 1550.941406 1808.023438 1550.25 C 1808.113281 1549.90625 1808.21875 1549.480469 1808.335938 1548.980469 C 1808.394531 1548.730469 1808.457031 1548.460938 1808.527344 1548.171875 C 1808.589844 1547.886719 1808.65625 1547.582031 1808.726562 1547.257812 C 1809.015625 1545.96875 1809.324219 1544.40625 1809.644531 1542.609375 C 1809.964844 1540.816406 1810.289062 1538.789062 1810.597656 1536.582031 C 1811.214844 1532.164062 1811.757812 1527.007812 1812.125 1521.488281 C 1812.3125 1518.726562 1812.453125 1515.871094 1812.546875 1512.972656 C 1812.585938 1511.6875 1812.617188 1510.390625 1812.644531 1509.089844 C 1813.945312 1509.070312 1815.242188 1509.039062 1816.527344 1509 C 1819.425781 1508.914062 1822.28125 1508.765625 1825.039062 1508.582031 C 1830.566406 1508.21875 1835.71875 1507.675781 1840.136719 1507.054688 C 1842.34375 1506.746094 1844.371094 1506.421875 1846.164062 1506.097656 C 1847.960938 1505.777344 1849.527344 1505.464844 1850.8125 1505.175781 C 1851.136719 1505.105469 1851.441406 1505.039062 1851.726562 1504.976562 C 1852.015625 1504.910156 1852.285156 1504.84375 1852.535156 1504.785156 C 1853.035156 1504.667969 1853.460938 1504.558594 1853.804688 1504.46875 C 1854.496094 1504.292969 1854.863281 1504.179688 1854.863281 1504.179688 C 1854.863281 1504.179688 1854.496094 1504.070312 1853.804688 1503.894531 "/>
<path style=" stroke:none;fill-rule:nonzero;fill:rgb(32.589722%,38.926697%,53.469849%);fill-opacity:1;" d="M 1353.386719 1435.40625 C 1353.042969 1435.316406 1352.617188 1435.210938 1352.117188 1435.09375 C 1351.867188 1435.03125 1351.597656 1434.96875 1351.3125 1434.902344 C 1351.023438 1434.839844 1350.71875 1434.769531 1350.398438 1434.699219 C 1349.109375 1434.414062 1347.542969 1434.101562 1345.746094 1433.777344 C 1343.953125 1433.457031 1341.925781 1433.128906 1339.71875 1432.820312 C 1335.300781 1432.199219 1330.148438 1431.65625 1324.621094 1431.292969 C 1321.863281 1431.109375 1319.007812 1430.964844 1316.109375 1430.878906 C 1314.824219 1430.835938 1313.527344 1430.808594 1312.230469 1430.785156 C 1312.207031 1429.484375 1312.175781 1428.191406 1312.136719 1426.90625 C 1312.046875 1424.007812 1311.902344 1421.152344 1311.71875 1418.390625 C 1311.355469 1412.867188 1310.8125 1407.714844 1310.195312 1403.296875 C 1309.882812 1401.085938 1309.558594 1399.0625 1309.238281 1397.265625 C 1308.914062 1395.472656 1308.601562 1393.90625 1308.316406 1392.617188 C 1308.242188 1392.296875 1308.175781 1391.992188 1308.113281 1391.703125 C 1308.042969 1391.417969 1307.980469 1391.148438 1307.921875 1390.898438 C 1307.804688 1390.398438 1307.695312 1389.972656 1307.609375 1389.628906 C 1307.429688 1388.9375 1307.320312 1388.566406 1307.320312 1388.566406 C 1307.320312 1388.566406 1307.207031 1388.9375 1307.03125 1389.628906 C 1306.941406 1389.972656 1306.832031 1390.398438 1306.714844 1390.898438 C 1306.65625 1391.148438 1306.59375 1391.417969 1306.527344 1391.703125 C 1306.460938 1391.992188 1306.394531 1392.296875 1306.324219 1392.617188 C 1306.035156 1393.90625 1305.722656 1395.472656 1305.402344 1397.265625 C 1305.078125 1399.0625 1304.753906 1401.085938 1304.445312 1403.296875 C 1303.824219 1407.714844 1303.28125 1412.867188 1302.917969 1418.390625 C 1302.734375 1421.152344 1302.589844 1424.007812 1302.5 1426.90625 C 1302.460938 1428.191406 1302.433594 1429.488281 1302.410156 1430.789062 C 1301.109375 1430.8125 1299.816406 1430.84375 1298.53125 1430.886719 C 1295.628906 1430.976562 1292.777344 1431.121094 1290.015625 1431.304688 C 1284.492188 1431.671875 1279.335938 1432.214844 1274.917969 1432.835938 C 1272.710938 1433.140625 1270.6875 1433.46875 1268.890625 1433.789062 C 1267.09375 1434.109375 1265.53125 1434.417969 1264.242188 1434.707031 C 1263.917969 1434.773438 1263.617188 1434.84375 1263.328125 1434.90625 C 1263.039062 1434.972656 1262.773438 1435.035156 1262.523438 1435.09375 C 1262.023438 1435.210938 1261.59375 1435.320312 1261.25 1435.410156 C 1260.5625 1435.585938 1260.191406 1435.695312 1260.191406 1435.695312 C 1260.191406 1435.695312 1260.5625 1435.804688 1261.25 1435.980469 C 1261.59375 1436.070312 1262.023438 1436.179688 1262.523438 1436.296875 C 1262.773438 1436.351562 1263.039062 1436.417969 1263.328125 1436.484375 C 1263.617188 1436.546875 1263.917969 1436.613281 1264.242188 1436.683594 C 1265.53125 1436.972656 1267.09375 1437.28125 1268.890625 1437.601562 C 1270.6875 1437.921875 1272.710938 1438.25 1274.917969 1438.554688 C 1279.335938 1439.175781 1284.492188 1439.71875 1290.015625 1440.085938 C 1292.777344 1440.269531 1295.628906 1440.414062 1298.53125 1440.503906 C 1299.816406 1440.546875 1301.113281 1440.578125 1302.414062 1440.601562 C 1302.4375 1441.902344 1302.46875 1443.199219 1302.507812 1444.484375 C 1302.601562 1447.386719 1302.742188 1450.238281 1302.929688 1453 C 1303.296875 1458.523438 1303.839844 1463.675781 1304.457031 1468.09375 C 1304.765625 1470.304688 1305.089844 1472.328125 1305.410156 1474.125 C 1305.734375 1475.917969 1306.042969 1477.484375 1306.328125 1478.773438 C 1306.398438 1479.09375 1306.464844 1479.398438 1306.53125 1479.6875 C 1306.597656 1479.972656 1306.660156 1480.242188 1306.71875 1480.492188 C 1306.835938 1480.992188 1306.945312 1481.417969 1307.03125 1481.761719 C 1307.207031 1482.453125 1307.320312 1482.820312 1307.320312 1482.820312 C 1307.320312 1482.820312 1307.425781 1482.453125 1307.605469 1481.761719 C 1307.695312 1481.417969 1307.800781 1480.992188 1307.917969 1480.492188 C 1307.976562 1480.242188 1308.039062 1479.972656 1308.109375 1479.6875 C 1308.171875 1479.398438 1308.238281 1479.09375 1308.308594 1478.773438 C 1308.59375 1477.484375 1308.90625 1475.917969 1309.226562 1474.125 C 1309.546875 1472.328125 1309.871094 1470.304688 1310.179688 1468.09375 C 1310.796875 1463.675781 1311.339844 1458.523438 1311.707031 1453 C 1311.894531 1450.238281 1312.035156 1447.386719 1312.128906 1444.484375 C 1312.167969 1443.199219 1312.199219 1441.902344 1312.226562 1440.605469 C 1313.527344 1440.582031 1314.824219 1440.554688 1316.109375 1440.511719 C 1319.007812 1440.425781 1321.863281 1440.277344 1324.621094 1440.097656 C 1330.148438 1439.730469 1335.300781 1439.1875 1339.71875 1438.570312 C 1341.925781 1438.261719 1343.953125 1437.933594 1345.746094 1437.613281 C 1347.542969 1437.289062 1349.109375 1436.976562 1350.398438 1436.691406 C 1350.71875 1436.621094 1351.023438 1436.554688 1351.3125 1436.488281 C 1351.597656 1436.421875 1351.867188 1436.355469 1352.117188 1436.300781 C 1352.617188 1436.179688 1353.042969 1436.070312 1353.386719 1435.984375 C 1354.078125 1435.804688 1354.445312 1435.695312 1354.445312 1435.695312 C 1354.445312 1435.695312 1354.078125 1435.585938 1353.386719 1435.40625 "/>
<path style=" stroke:none;fill-rule:nonzero;fill:rgb(32.589722%,38.926697%,53.469849%);fill-opacity:1;" d="M 1789.246094 608.550781 C 1788.898438 608.460938 1788.476562 608.351562 1787.976562 608.234375 C 1787.726562 608.175781 1787.457031 608.113281 1787.167969 608.042969 C 1786.882812 607.980469 1786.574219 607.914062 1786.253906 607.84375 C 1784.964844 607.554688 1783.402344 607.242188 1781.605469 606.917969 C 1779.8125 606.597656 1777.785156 606.273438 1775.578125 605.964844 C 1771.160156 605.34375 1766.003906 604.800781 1760.480469 604.4375 C 1757.722656 604.253906 1754.867188 604.109375 1751.96875 604.019531 C 1750.683594 603.980469 1749.386719 603.949219 1748.085938 603.929688 C 1748.066406 602.628906 1748.035156 601.332031 1747.996094 600.046875 C 1747.90625 597.148438 1747.761719 594.292969 1747.578125 591.53125 C 1747.214844 586.011719 1746.671875 580.855469 1746.050781 576.4375 C 1745.742188 574.230469 1745.417969 572.203125 1745.09375 570.410156 C 1744.773438 568.613281 1744.460938 567.050781 1744.175781 565.761719 C 1744.101562 565.4375 1744.035156 565.132812 1743.972656 564.847656 C 1743.902344 564.558594 1743.839844 564.289062 1743.78125 564.039062 C 1743.664062 563.539062 1743.554688 563.113281 1743.464844 562.769531 C 1743.289062 562.078125 1743.179688 561.710938 1743.179688 561.710938 C 1743.179688 561.710938 1743.066406 562.078125 1742.890625 562.769531 C 1742.800781 563.113281 1742.691406 563.539062 1742.574219 564.039062 C 1742.515625 564.289062 1742.449219 564.558594 1742.382812 564.847656 C 1742.320312 565.132812 1742.253906 565.4375 1742.183594 565.761719 C 1741.894531 567.050781 1741.582031 568.613281 1741.261719 570.410156 C 1740.9375 572.203125 1740.613281 574.230469 1740.304688 576.4375 C 1739.683594 580.855469 1739.140625 586.011719 1738.773438 591.53125 C 1738.59375 594.292969 1738.449219 597.148438 1738.359375 600.046875 C 1738.320312 601.335938 1738.289062 602.632812 1738.265625 603.933594 C 1736.96875 603.957031 1735.671875 603.988281 1734.386719 604.027344 C 1731.488281 604.121094 1728.632812 604.261719 1725.875 604.449219 C 1720.351562 604.816406 1715.195312 605.359375 1710.777344 605.976562 C 1708.566406 606.285156 1706.542969 606.609375 1704.75 606.929688 C 1702.953125 607.25 1701.390625 607.5625 1700.101562 607.847656 C 1699.777344 607.917969 1699.472656 607.984375 1699.1875 608.046875 C 1698.898438 608.117188 1698.632812 608.179688 1698.378906 608.238281 C 1697.878906 608.355469 1697.453125 608.460938 1697.109375 608.550781 C 1696.417969 608.730469 1696.050781 608.835938 1696.050781 608.835938 C 1696.050781 608.835938 1696.417969 608.945312 1697.109375 609.125 C 1697.453125 609.210938 1697.878906 609.320312 1698.378906 609.4375 C 1698.632812 609.496094 1698.898438 609.558594 1699.1875 609.628906 C 1699.472656 609.691406 1699.777344 609.757812 1700.101562 609.828125 C 1701.390625 610.113281 1702.953125 610.421875 1704.75 610.746094 C 1706.542969 611.066406 1708.566406 611.390625 1710.777344 611.699219 C 1715.195312 612.316406 1720.351562 612.859375 1725.875 613.226562 C 1728.632812 613.414062 1731.488281 613.554688 1734.386719 613.648438 C 1735.675781 613.6875 1736.972656 613.71875 1738.273438 613.742188 C 1738.296875 615.042969 1738.328125 616.339844 1738.367188 617.628906 C 1738.460938 620.527344 1738.601562 623.378906 1738.789062 626.140625 C 1739.15625 631.664062 1739.699219 636.820312 1740.316406 641.238281 C 1740.625 643.445312 1740.949219 645.472656 1741.269531 647.265625 C 1741.589844 649.0625 1741.902344 650.625 1742.1875 651.914062 C 1742.257812 652.238281 1742.324219 652.542969 1742.386719 652.828125 C 1742.457031 653.117188 1742.519531 653.386719 1742.578125 653.636719 C 1742.691406 654.136719 1742.804688 654.5625 1742.890625 654.90625 C 1743.066406 655.597656 1743.179688 655.964844 1743.179688 655.964844 C 1743.179688 655.964844 1743.285156 655.597656 1743.464844 654.90625 C 1743.554688 654.5625 1743.660156 654.136719 1743.777344 653.636719 C 1743.835938 653.386719 1743.898438 653.117188 1743.96875 652.828125 C 1744.03125 652.542969 1744.097656 652.238281 1744.167969 651.914062 C 1744.453125 650.625 1744.765625 649.0625 1745.085938 647.265625 C 1745.40625 645.472656 1745.730469 643.445312 1746.039062 641.238281 C 1746.65625 636.820312 1747.199219 631.664062 1747.566406 626.140625 C 1747.753906 623.378906 1747.894531 620.527344 1747.984375 617.628906 C 1748.027344 616.34375 1748.058594 615.046875 1748.082031 613.746094 C 1749.382812 613.726562 1750.679688 613.695312 1751.96875 613.65625 C 1754.867188 613.566406 1757.722656 613.421875 1760.480469 613.238281 C 1766.003906 612.875 1771.160156 612.332031 1775.578125 611.710938 C 1777.785156 611.402344 1779.8125 611.078125 1781.605469 610.753906 C 1783.402344 610.433594 1784.964844 610.121094 1786.253906 609.832031 C 1786.574219 609.761719 1786.882812 609.695312 1787.167969 609.632812 C 1787.457031 609.5625 1787.726562 609.5 1787.976562 609.441406 C 1788.476562 609.324219 1788.898438 609.214844 1789.246094 609.125 C 1789.9375 608.949219 1790.304688 608.835938 1790.304688 608.835938 C 1790.304688 608.835938 1789.9375 608.726562 1789.246094 608.550781 "/>
<path style=" stroke:none;fill-rule:nonzero;fill:rgb(32.589722%,38.926697%,53.469849%);fill-opacity:1;" d="M 1635.457031 1119.40625 C 1635.113281 1119.316406 1634.6875 1119.210938 1634.1875 1119.09375 C 1633.9375 1119.03125 1633.667969 1118.96875 1633.382812 1118.902344 C 1633.09375 1118.839844 1632.789062 1118.769531 1632.46875 1118.699219 C 1631.179688 1118.414062 1629.613281 1118.097656 1627.816406 1117.777344 C 1626.023438 1117.457031 1623.996094 1117.128906 1621.789062 1116.820312 C 1617.371094 1116.199219 1612.21875 1115.65625 1606.691406 1115.292969 C 1603.933594 1115.109375 1601.078125 1114.964844 1598.179688 1114.878906 C 1596.894531 1114.835938 1595.597656 1114.808594 1594.300781 1114.785156 C 1594.277344 1113.484375 1594.246094 1112.191406 1594.207031 1110.90625 C 1594.117188 1108.007812 1593.972656 1105.152344 1593.789062 1102.390625 C 1593.425781 1096.867188 1592.882812 1091.714844 1592.265625 1087.296875 C 1591.953125 1085.085938 1591.628906 1083.0625 1591.308594 1081.265625 C 1590.984375 1079.472656 1590.671875 1077.90625 1590.386719 1076.617188 C 1590.3125 1076.296875 1590.246094 1075.992188 1590.183594 1075.703125 C 1590.117188 1075.417969 1590.050781 1075.148438 1589.992188 1074.898438 C 1589.875 1074.398438 1589.765625 1073.972656 1589.679688 1073.628906 C 1589.5 1072.9375 1589.390625 1072.566406 1589.390625 1072.566406 C 1589.390625 1072.566406 1589.277344 1072.9375 1589.101562 1073.628906 C 1589.011719 1073.972656 1588.902344 1074.398438 1588.785156 1074.898438 C 1588.726562 1075.148438 1588.664062 1075.417969 1588.597656 1075.703125 C 1588.53125 1075.992188 1588.464844 1076.296875 1588.394531 1076.617188 C 1588.105469 1077.90625 1587.796875 1079.472656 1587.472656 1081.265625 C 1587.148438 1083.0625 1586.824219 1085.085938 1586.515625 1087.296875 C 1585.894531 1091.714844 1585.351562 1096.867188 1584.988281 1102.390625 C 1584.804688 1105.152344 1584.660156 1108.007812 1584.570312 1110.90625 C 1584.53125 1112.191406 1584.503906 1113.488281 1584.480469 1114.789062 C 1583.179688 1114.8125 1581.886719 1114.84375 1580.601562 1114.886719 C 1577.699219 1114.976562 1574.847656 1115.121094 1572.085938 1115.304688 C 1566.5625 1115.671875 1561.40625 1116.214844 1556.988281 1116.835938 C 1554.78125 1117.140625 1552.757812 1117.46875 1550.960938 1117.789062 C 1549.164062 1118.109375 1547.601562 1118.417969 1546.3125 1118.707031 C 1545.988281 1118.773438 1545.6875 1118.84375 1545.398438 1118.90625 C 1545.109375 1118.972656 1544.84375 1119.035156 1544.59375 1119.09375 C 1544.09375 1119.210938 1543.664062 1119.320312 1543.320312 1119.410156 C 1542.632812 1119.585938 1542.261719 1119.695312 1542.261719 1119.695312 C 1542.261719 1119.695312 1542.632812 1119.804688 1543.320312 1119.980469 C 1543.664062 1120.070312 1544.09375 1120.179688 1544.59375 1120.296875 C 1544.84375 1120.351562 1545.109375 1120.417969 1545.398438 1120.484375 C 1545.6875 1120.546875 1545.988281 1120.613281 1546.3125 1120.683594 C 1547.601562 1120.972656 1549.164062 1121.28125 1550.960938 1121.601562 C 1552.757812 1121.921875 1554.78125 1122.25 1556.988281 1122.554688 C 1561.40625 1123.175781 1566.5625 1123.71875 1572.085938 1124.085938 C 1574.847656 1124.269531 1577.699219 1124.414062 1580.601562 1124.503906 C 1581.886719 1124.546875 1583.183594 1124.578125 1584.484375 1124.601562 C 1584.507812 1125.902344 1584.539062 1127.199219 1584.578125 1128.484375 C 1584.671875 1131.386719 1584.8125 1134.238281 1585 1137 C 1585.367188 1142.523438 1585.910156 1147.675781 1586.527344 1152.09375 C 1586.835938 1154.304688 1587.160156 1156.328125 1587.480469 1158.125 C 1587.804688 1159.917969 1588.113281 1161.484375 1588.398438 1162.769531 C 1588.46875 1163.09375 1588.535156 1163.398438 1588.601562 1163.683594 C 1588.667969 1163.972656 1588.730469 1164.242188 1588.789062 1164.492188 C 1588.90625 1164.992188 1589.015625 1165.417969 1589.105469 1165.761719 C 1589.28125 1166.453125 1589.390625 1166.820312 1589.390625 1166.820312 C 1589.390625 1166.820312 1589.5 1166.453125 1589.675781 1165.761719 C 1589.765625 1165.417969 1589.871094 1164.992188 1589.988281 1164.492188 C 1590.046875 1164.242188 1590.109375 1163.972656 1590.179688 1163.683594 C 1590.242188 1163.398438 1590.308594 1163.09375 1590.378906 1162.769531 C 1590.664062 1161.484375 1590.976562 1159.917969 1591.296875 1158.125 C 1591.617188 1156.328125 1591.941406 1154.304688 1592.25 1152.09375 C 1592.867188 1147.675781 1593.410156 1142.523438 1593.777344 1137 C 1593.964844 1134.238281 1594.105469 1131.386719 1594.199219 1128.484375 C 1594.238281 1127.199219 1594.269531 1125.902344 1594.296875 1124.605469 C 1595.597656 1124.582031 1596.894531 1124.554688 1598.179688 1124.511719 C 1601.078125 1124.425781 1603.933594 1124.277344 1606.691406 1124.097656 C 1612.21875 1123.730469 1617.371094 1123.1875 1621.789062 1122.570312 C 1623.996094 1122.261719 1626.023438 1121.933594 1627.816406 1121.613281 C 1629.613281 1121.289062 1631.179688 1120.976562 1632.46875 1120.691406 C 1632.789062 1120.621094 1633.09375 1120.554688 1633.382812 1120.488281 C 1633.667969 1120.421875 1633.9375 1120.355469 1634.1875 1120.300781 C 1634.6875 1120.179688 1635.113281 1120.070312 1635.457031 1119.984375 C 1636.148438 1119.804688 1636.515625 1119.695312 1636.515625 1119.695312 C 1636.515625 1119.695312 1636.148438 1119.585938 1635.457031 1119.40625 "/>
<path style=" stroke:none;fill-rule:nonzero;fill:rgb(32.589722%,38.926697%,53.469849%);fill-opacity:1;" d="M 1353.386719 202.425781 C 1353.039062 202.335938 1352.617188 202.226562 1352.117188 202.113281 C 1351.867188 202.050781 1351.597656 201.988281 1351.308594 201.921875 C 1351.023438 201.855469 1350.71875 201.789062 1350.394531 201.71875 C 1349.105469 201.429688 1347.542969 201.121094 1345.746094 200.796875 C 1343.953125 200.476562 1341.925781 200.148438 1339.71875 199.839844 C 1335.300781 199.21875 1330.144531 198.675781 1324.621094 198.3125 C 1321.863281 198.132812 1319.007812 197.984375 1316.109375 197.898438 C 1314.824219 197.855469 1313.527344 197.828125 1312.230469 197.804688 C 1312.207031 196.503906 1312.175781 195.210938 1312.136719 193.925781 C 1312.046875 191.023438 1311.902344 188.171875 1311.71875 185.410156 C 1311.355469 179.886719 1310.8125 174.734375 1310.191406 170.316406 C 1309.882812 168.105469 1309.558594 166.082031 1309.238281 164.285156 C 1308.914062 162.492188 1308.601562 160.925781 1308.316406 159.636719 C 1308.242188 159.316406 1308.175781 159.011719 1308.113281 158.722656 C 1308.042969 158.4375 1307.980469 158.167969 1307.921875 157.917969 C 1307.804688 157.417969 1307.695312 156.992188 1307.605469 156.644531 C 1307.429688 155.957031 1307.320312 155.589844 1307.320312 155.589844 C 1307.320312 155.589844 1307.207031 155.957031 1307.03125 156.644531 C 1306.941406 156.992188 1306.832031 157.417969 1306.714844 157.917969 C 1306.65625 158.167969 1306.589844 158.4375 1306.523438 158.722656 C 1306.460938 159.011719 1306.394531 159.316406 1306.324219 159.636719 C 1306.035156 160.925781 1305.722656 162.492188 1305.402344 164.285156 C 1305.078125 166.082031 1304.753906 168.105469 1304.445312 170.316406 C 1303.824219 174.734375 1303.28125 179.886719 1302.914062 185.410156 C 1302.734375 188.171875 1302.589844 191.023438 1302.5 193.925781 C 1302.460938 195.210938 1302.429688 196.507812 1302.40625 197.808594 C 1301.109375 197.832031 1299.8125 197.863281 1298.527344 197.90625 C 1295.628906 197.996094 1292.777344 198.140625 1290.015625 198.324219 C 1284.492188 198.691406 1279.335938 199.234375 1274.917969 199.855469 C 1272.707031 200.164062 1270.683594 200.488281 1268.890625 200.808594 C 1267.09375 201.128906 1265.53125 201.4375 1264.242188 201.722656 C 1263.917969 201.796875 1263.613281 201.863281 1263.328125 201.925781 C 1263.039062 201.992188 1262.773438 202.054688 1262.523438 202.113281 C 1262.019531 202.230469 1261.59375 202.339844 1261.25 202.429688 C 1260.558594 202.605469 1260.191406 202.714844 1260.191406 202.714844 C 1260.191406 202.714844 1260.558594 202.824219 1261.25 203 C 1261.59375 203.089844 1262.019531 203.199219 1262.523438 203.3125 C 1262.773438 203.375 1263.039062 203.4375 1263.328125 203.503906 C 1263.613281 203.566406 1263.917969 203.632812 1264.242188 203.707031 C 1265.53125 203.992188 1267.09375 204.300781 1268.890625 204.621094 C 1270.683594 204.941406 1272.707031 205.265625 1274.917969 205.574219 C 1279.335938 206.195312 1284.492188 206.738281 1290.015625 207.105469 C 1292.777344 207.289062 1295.628906 207.433594 1298.527344 207.523438 C 1299.816406 207.566406 1301.113281 207.597656 1302.414062 207.621094 C 1302.4375 208.921875 1302.46875 210.21875 1302.507812 211.503906 C 1302.601562 214.40625 1302.742188 217.257812 1302.929688 220.019531 C 1303.296875 225.542969 1303.839844 230.695312 1304.457031 235.113281 C 1304.765625 237.324219 1305.089844 239.347656 1305.410156 241.144531 C 1305.734375 242.9375 1306.042969 244.503906 1306.328125 245.792969 C 1306.398438 246.113281 1306.464844 246.417969 1306.53125 246.707031 C 1306.59375 246.992188 1306.660156 247.261719 1306.71875 247.511719 C 1306.832031 248.011719 1306.945312 248.4375 1307.03125 248.78125 C 1307.207031 249.472656 1307.320312 249.84375 1307.320312 249.84375 C 1307.320312 249.84375 1307.425781 249.472656 1307.605469 248.78125 C 1307.695312 248.4375 1307.800781 248.011719 1307.917969 247.511719 C 1307.976562 247.261719 1308.039062 246.992188 1308.109375 246.707031 C 1308.171875 246.417969 1308.238281 246.113281 1308.308594 245.792969 C 1308.59375 244.503906 1308.90625 242.9375 1309.226562 241.144531 C 1309.546875 239.347656 1309.871094 237.324219 1310.179688 235.113281 C 1310.796875 230.695312 1311.339844 225.542969 1311.707031 220.019531 C 1311.894531 217.257812 1312.035156 214.40625 1312.128906 211.503906 C 1312.167969 210.21875 1312.199219 208.925781 1312.222656 207.625 C 1313.523438 207.601562 1314.824219 207.574219 1316.109375 207.53125 C 1319.007812 207.445312 1321.863281 207.300781 1324.621094 207.117188 C 1330.144531 206.753906 1335.300781 206.210938 1339.71875 205.589844 C 1341.925781 205.28125 1343.953125 204.953125 1345.746094 204.632812 C 1347.542969 204.308594 1349.105469 204 1350.394531 203.710938 C 1350.71875 203.640625 1351.023438 203.574219 1351.308594 203.507812 C 1351.597656 203.441406 1351.867188 203.378906 1352.117188 203.316406 C 1352.617188 203.203125 1353.039062 203.09375 1353.386719 203.003906 C 1354.078125 202.824219 1354.445312 202.714844 1354.445312 202.714844 C 1354.445312 202.714844 1354.078125 202.605469 1353.386719 202.425781 "/>
<path style=" stroke:none;fill-rule:nonzero;fill:rgb(32.589722%,38.926697%,53.469849%);fill-opacity:1;" d="M 228.933594 249.554688 C 228.585938 249.464844 228.160156 249.355469 227.660156 249.238281 C 227.410156 249.179688 227.144531 249.117188 226.855469 249.046875 C 226.570312 248.984375 226.261719 248.917969 225.941406 248.84375 C 224.652344 248.558594 223.085938 248.246094 221.292969 247.921875 C 219.496094 247.601562 217.472656 247.277344 215.261719 246.964844 C 210.84375 246.347656 205.691406 245.804688 200.167969 245.441406 C 197.40625 245.257812 194.554688 245.113281 191.65625 245.023438 C 190.371094 244.984375 189.074219 244.953125 187.773438 244.933594 C 187.75 243.632812 187.722656 242.335938 187.683594 241.050781 C 187.59375 238.152344 187.449219 235.296875 187.265625 232.535156 C 186.902344 227.015625 186.359375 221.859375 185.738281 217.441406 C 185.429688 215.234375 185.101562 213.207031 184.78125 211.414062 C 184.457031 209.617188 184.148438 208.050781 183.859375 206.765625 C 183.789062 206.441406 183.722656 206.136719 183.660156 205.851562 C 183.589844 205.5625 183.527344 205.292969 183.46875 205.042969 C 183.351562 204.542969 183.242188 204.117188 183.152344 203.773438 C 182.972656 203.082031 182.863281 202.714844 182.863281 202.714844 C 182.863281 202.714844 182.753906 203.082031 182.578125 203.773438 C 182.488281 204.117188 182.378906 204.542969 182.261719 205.042969 C 182.203125 205.292969 182.136719 205.5625 182.070312 205.851562 C 182.007812 206.136719 181.941406 206.441406 181.867188 206.765625 C 181.582031 208.050781 181.269531 209.617188 180.945312 211.414062 C 180.625 213.207031 180.296875 215.234375 179.992188 217.441406 C 179.371094 221.859375 178.828125 227.015625 178.460938 232.535156 C 178.28125 235.296875 178.132812 238.152344 178.046875 241.050781 C 178.003906 242.339844 177.976562 243.636719 177.953125 244.9375 C 176.65625 244.960938 175.359375 244.992188 174.074219 245.03125 C 171.175781 245.121094 168.320312 245.265625 165.558594 245.453125 C 160.035156 245.820312 154.882812 246.363281 150.464844 246.980469 C 148.253906 247.289062 146.230469 247.613281 144.4375 247.933594 C 142.640625 248.253906 141.078125 248.566406 139.785156 248.851562 C 139.464844 248.921875 139.160156 248.988281 138.871094 249.050781 C 138.585938 249.121094 138.316406 249.183594 138.066406 249.242188 C 137.566406 249.359375 137.140625 249.464844 136.796875 249.554688 C 136.105469 249.730469 135.738281 249.839844 135.738281 249.839844 C 135.738281 249.839844 136.105469 249.949219 136.796875 250.128906 C 137.140625 250.214844 137.566406 250.324219 138.066406 250.441406 C 138.316406 250.5 138.585938 250.5625 138.871094 250.628906 C 139.160156 250.695312 139.464844 250.761719 139.785156 250.832031 C 141.078125 251.117188 142.640625 251.425781 144.4375 251.75 C 146.230469 252.070312 148.253906 252.394531 150.464844 252.703125 C 154.882812 253.320312 160.035156 253.863281 165.558594 254.230469 C 168.320312 254.414062 171.175781 254.558594 174.074219 254.652344 C 175.363281 254.691406 176.65625 254.722656 177.957031 254.746094 C 177.984375 256.046875 178.011719 257.34375 178.054688 258.632812 C 178.144531 261.53125 178.289062 264.382812 178.472656 267.144531 C 178.839844 272.667969 179.382812 277.824219 180.003906 282.242188 C 180.3125 284.449219 180.636719 286.476562 180.957031 288.269531 C 181.277344 290.066406 181.585938 291.628906 181.875 292.917969 C 181.945312 293.242188 182.011719 293.546875 182.074219 293.832031 C 182.140625 294.117188 182.207031 294.386719 182.265625 294.640625 C 182.378906 295.140625 182.488281 295.566406 182.578125 295.910156 C 182.753906 296.601562 182.863281 296.96875 182.863281 296.96875 C 182.863281 296.96875 182.972656 296.601562 183.152344 295.910156 C 183.238281 295.566406 183.347656 295.140625 183.464844 294.640625 C 183.523438 294.386719 183.585938 294.117188 183.65625 293.832031 C 183.714844 293.546875 183.785156 293.242188 183.855469 292.917969 C 184.140625 291.628906 184.449219 290.066406 184.773438 288.269531 C 185.089844 286.476562 185.417969 284.449219 185.726562 282.242188 C 186.34375 277.824219 186.886719 272.667969 187.253906 267.144531 C 187.4375 264.382812 187.582031 261.53125 187.671875 258.632812 C 187.714844 257.34375 187.746094 256.050781 187.769531 254.75 C 189.070312 254.730469 190.367188 254.699219 191.65625 254.660156 C 194.554688 254.570312 197.40625 254.425781 200.167969 254.242188 C 205.691406 253.878906 210.84375 253.335938 215.261719 252.714844 C 217.472656 252.40625 219.496094 252.078125 221.292969 251.757812 C 223.085938 251.4375 224.652344 251.125 225.941406 250.835938 C 226.261719 250.765625 226.570312 250.699219 226.855469 250.636719 C 227.144531 250.566406 227.410156 250.503906 227.660156 250.445312 C 228.160156 250.328125 228.585938 250.21875 228.933594 250.128906 C 229.621094 249.953125 229.992188 249.839844 229.992188 249.839844 C 229.992188 249.839844 229.621094 249.730469 228.933594 249.554688 "/>
<path style=" stroke:none;fill-rule:nonzero;fill:rgb(32.589722%,38.926697%,53.469849%);fill-opacity:1;" d="M 1789.246094 223.269531 C 1788.898438 223.179688 1788.476562 223.070312 1787.976562 222.953125 C 1787.726562 222.894531 1787.457031 222.832031 1787.167969 222.761719 C 1786.882812 222.699219 1786.578125 222.632812 1786.253906 222.558594 C 1784.964844 222.273438 1783.402344 221.960938 1781.605469 221.636719 C 1779.8125 221.316406 1777.785156 220.992188 1775.578125 220.679688 C 1771.160156 220.0625 1766.003906 219.519531 1760.480469 219.152344 C 1757.722656 218.972656 1754.867188 218.824219 1751.96875 218.738281 C 1750.683594 218.699219 1749.386719 218.667969 1748.089844 218.644531 C 1748.066406 217.347656 1748.035156 216.050781 1747.996094 214.765625 C 1747.90625 211.867188 1747.761719 209.011719 1747.582031 206.25 C 1747.214844 200.726562 1746.671875 195.574219 1746.050781 191.15625 C 1745.742188 188.945312 1745.417969 186.921875 1745.097656 185.128906 C 1744.773438 183.332031 1744.460938 181.765625 1744.175781 180.480469 C 1744.101562 180.15625 1744.035156 179.851562 1743.972656 179.566406 C 1743.902344 179.277344 1743.839844 179.007812 1743.78125 178.757812 C 1743.664062 178.257812 1743.554688 177.832031 1743.464844 177.488281 C 1743.289062 176.796875 1743.179688 176.429688 1743.179688 176.429688 C 1743.179688 176.429688 1743.066406 176.796875 1742.890625 177.488281 C 1742.800781 177.832031 1742.691406 178.257812 1742.574219 178.757812 C 1742.515625 179.007812 1742.449219 179.277344 1742.382812 179.566406 C 1742.320312 179.851562 1742.253906 180.15625 1742.183594 180.480469 C 1741.894531 181.765625 1741.582031 183.332031 1741.261719 185.128906 C 1740.9375 186.921875 1740.613281 188.945312 1740.304688 191.15625 C 1739.683594 195.574219 1739.140625 200.726562 1738.773438 206.25 C 1738.59375 209.011719 1738.449219 211.867188 1738.359375 214.765625 C 1738.320312 216.054688 1738.289062 217.351562 1738.265625 218.652344 C 1736.96875 218.675781 1735.671875 218.707031 1734.386719 218.746094 C 1731.488281 218.835938 1728.636719 218.980469 1725.875 219.167969 C 1720.351562 219.53125 1715.195312 220.074219 1710.777344 220.695312 C 1708.566406 221.003906 1706.542969 221.328125 1704.75 221.648438 C 1702.953125 221.96875 1701.390625 222.277344 1700.101562 222.566406 C 1699.777344 222.636719 1699.472656 222.703125 1699.1875 222.765625 C 1698.898438 222.835938 1698.632812 222.898438 1698.382812 222.957031 C 1697.878906 223.070312 1697.457031 223.179688 1697.109375 223.269531 C 1696.417969 223.445312 1696.050781 223.554688 1696.050781 223.554688 C 1696.050781 223.554688 1696.417969 223.664062 1697.109375 223.84375 C 1697.457031 223.929688 1697.878906 224.039062 1698.382812 224.15625 C 1698.632812 224.214844 1698.898438 224.277344 1699.1875 224.34375 C 1699.472656 224.40625 1699.777344 224.476562 1700.101562 224.546875 C 1701.390625 224.832031 1702.953125 225.140625 1704.75 225.464844 C 1706.542969 225.78125 1708.566406 226.109375 1710.777344 226.417969 C 1715.195312 227.035156 1720.351562 227.578125 1725.875 227.945312 C 1728.636719 228.128906 1731.488281 228.273438 1734.386719 228.363281 C 1735.675781 228.40625 1736.972656 228.4375 1738.273438 228.460938 C 1738.296875 229.761719 1738.328125 231.058594 1738.367188 232.347656 C 1738.460938 235.246094 1738.601562 238.097656 1738.789062 240.859375 C 1739.15625 246.382812 1739.699219 251.535156 1740.316406 255.957031 C 1740.625 258.164062 1740.949219 260.1875 1741.269531 261.984375 C 1741.59375 263.777344 1741.902344 265.34375 1742.1875 266.632812 C 1742.257812 266.957031 1742.324219 267.261719 1742.390625 267.546875 C 1742.457031 267.832031 1742.519531 268.101562 1742.578125 268.351562 C 1742.691406 268.851562 1742.804688 269.277344 1742.890625 269.625 C 1743.066406 270.3125 1743.179688 270.683594 1743.179688 270.683594 C 1743.179688 270.683594 1743.285156 270.3125 1743.464844 269.625 C 1743.554688 269.277344 1743.660156 268.851562 1743.777344 268.351562 C 1743.835938 268.101562 1743.898438 267.832031 1743.96875 267.546875 C 1744.03125 267.261719 1744.097656 266.957031 1744.167969 266.632812 C 1744.457031 265.34375 1744.765625 263.777344 1745.085938 261.984375 C 1745.40625 260.1875 1745.730469 258.164062 1746.039062 255.957031 C 1746.65625 251.535156 1747.199219 246.382812 1747.566406 240.859375 C 1747.753906 238.097656 1747.894531 235.246094 1747.988281 232.347656 C 1748.027344 231.058594 1748.058594 229.765625 1748.082031 228.464844 C 1749.382812 228.441406 1750.683594 228.414062 1751.96875 228.375 C 1754.867188 228.285156 1757.722656 228.140625 1760.480469 227.957031 C 1766.003906 227.59375 1771.160156 227.050781 1775.578125 226.429688 C 1777.785156 226.121094 1779.8125 225.792969 1781.605469 225.472656 C 1783.402344 225.152344 1784.964844 224.839844 1786.253906 224.550781 C 1786.578125 224.480469 1786.882812 224.414062 1787.167969 224.351562 C 1787.457031 224.28125 1787.726562 224.21875 1787.976562 224.160156 C 1788.476562 224.042969 1788.898438 223.933594 1789.246094 223.84375 C 1789.9375 223.667969 1790.304688 223.554688 1790.304688 223.554688 C 1790.304688 223.554688 1789.9375 223.445312 1789.246094 223.269531 "/>
<path style=" stroke:none;fill-rule:nonzero;fill:rgb(32.589722%,38.926697%,53.469849%);fill-opacity:1;" d="M 1075.144531 467.574219 C 1074.800781 467.484375 1074.375 467.375 1073.875 467.257812 C 1073.625 467.199219 1073.355469 467.136719 1073.070312 467.066406 C 1072.78125 467.003906 1072.476562 466.9375 1072.15625 466.863281 C 1070.867188 466.578125 1069.300781 466.265625 1067.503906 465.945312 C 1065.710938 465.621094 1063.683594 465.296875 1061.476562 464.988281 C 1057.058594 464.367188 1051.90625 463.824219 1046.378906 463.460938 C 1043.621094 463.277344 1040.765625 463.132812 1037.867188 463.042969 C 1036.582031 463.003906 1035.285156 462.972656 1033.988281 462.953125 C 1033.964844 461.652344 1033.933594 460.355469 1033.894531 459.070312 C 1033.804688 456.171875 1033.660156 453.316406 1033.476562 450.554688 C 1033.113281 445.035156 1032.570312 439.878906 1031.953125 435.460938 C 1031.640625 433.253906 1031.316406 431.226562 1030.996094 429.433594 C 1030.671875 427.636719 1030.359375 426.074219 1030.074219 424.785156 C 1030 424.460938 1029.933594 424.15625 1029.871094 423.871094 C 1029.804688 423.582031 1029.738281 423.3125 1029.679688 423.0625 C 1029.5625 422.5625 1029.453125 422.136719 1029.367188 421.792969 C 1029.1875 421.101562 1029.078125 420.734375 1029.078125 420.734375 C 1029.078125 420.734375 1028.964844 421.101562 1028.789062 421.792969 C 1028.699219 422.136719 1028.589844 422.5625 1028.472656 423.0625 C 1028.414062 423.3125 1028.351562 423.582031 1028.285156 423.871094 C 1028.21875 424.15625 1028.152344 424.460938 1028.082031 424.785156 C 1027.792969 426.074219 1027.484375 427.636719 1027.160156 429.433594 C 1026.835938 431.226562 1026.511719 433.253906 1026.203125 435.460938 C 1025.582031 439.878906 1025.039062 445.035156 1024.675781 450.554688 C 1024.492188 453.316406 1024.347656 456.171875 1024.257812 459.070312 C 1024.21875 460.359375 1024.191406 461.65625 1024.167969 462.957031 C 1022.867188 462.980469 1021.574219 463.011719 1020.289062 463.050781 C 1017.386719 463.144531 1014.535156 463.285156 1011.773438 463.472656 C 1006.25 463.839844 1001.09375 464.382812 996.675781 465 C 994.46875 465.308594 992.445312 465.632812 990.648438 465.953125 C 988.851562 466.273438 987.289062 466.585938 986 466.871094 C 985.675781 466.941406 985.375 467.007812 985.085938 467.070312 C 984.796875 467.140625 984.53125 467.203125 984.28125 467.261719 C 983.78125 467.378906 983.351562 467.484375 983.007812 467.574219 C 982.320312 467.753906 981.949219 467.859375 981.949219 467.859375 C 981.949219 467.859375 982.320312 467.96875 983.007812 468.148438 C 983.351562 468.234375 983.78125 468.34375 984.28125 468.460938 C 984.53125 468.519531 984.796875 468.582031 985.085938 468.652344 C 985.375 468.714844 985.675781 468.78125 986 468.851562 C 987.289062 469.136719 988.851562 469.449219 990.648438 469.769531 C 992.445312 470.089844 994.46875 470.414062 996.675781 470.722656 C 1001.09375 471.339844 1006.25 471.882812 1011.773438 472.25 C 1014.535156 472.4375 1017.386719 472.578125 1020.289062 472.671875 C 1021.574219 472.710938 1022.871094 472.742188 1024.171875 472.765625 C 1024.195312 474.066406 1024.226562 475.363281 1024.265625 476.652344 C 1024.359375 479.550781 1024.5 482.402344 1024.6875 485.164062 C 1025.054688 490.6875 1025.597656 495.84375 1026.214844 500.261719 C 1026.523438 502.46875 1026.847656 504.496094 1027.167969 506.289062 C 1027.492188 508.085938 1027.800781 509.648438 1028.085938 510.9375 C 1028.15625 511.261719 1028.222656 511.566406 1028.289062 511.851562 C 1028.355469 512.140625 1028.417969 512.40625 1028.476562 512.65625 C 1028.59375 513.15625 1028.703125 513.585938 1028.792969 513.929688 C 1028.96875 514.621094 1029.078125 514.988281 1029.078125 514.988281 C 1029.078125 514.988281 1029.1875 514.621094 1029.363281 513.929688 C 1029.453125 513.585938 1029.558594 513.15625 1029.675781 512.65625 C 1029.734375 512.40625 1029.796875 512.140625 1029.867188 511.851562 C 1029.929688 511.566406 1029.996094 511.261719 1030.066406 510.9375 C 1030.351562 509.648438 1030.664062 508.085938 1030.984375 506.289062 C 1031.304688 504.496094 1031.628906 502.46875 1031.9375 500.261719 C 1032.554688 495.84375 1033.097656 490.6875 1033.464844 485.164062 C 1033.652344 482.402344 1033.792969 479.550781 1033.886719 476.652344 C 1033.925781 475.367188 1033.957031 474.070312 1033.984375 472.769531 C 1035.285156 472.75 1036.582031 472.71875 1037.867188 472.679688 C 1040.765625 472.589844 1043.621094 472.445312 1046.378906 472.261719 C 1051.90625 471.898438 1057.058594 471.355469 1061.476562 470.734375 C 1063.683594 470.425781 1065.710938 470.101562 1067.503906 469.777344 C 1069.300781 469.457031 1070.867188 469.144531 1072.15625 468.855469 C 1072.476562 468.785156 1072.78125 468.71875 1073.070312 468.65625 C 1073.355469 468.585938 1073.625 468.523438 1073.875 468.464844 C 1074.375 468.347656 1074.800781 468.238281 1075.144531 468.148438 C 1075.835938 467.972656 1076.203125 467.859375 1076.203125 467.859375 C 1076.203125 467.859375 1075.835938 467.75 1075.144531 467.574219 "/>
</g>
</svg>
